<svg xmlns="http://www.w3.org/2000/svg" xmlns:xlink="http://www.w3.org/1999/xlink" xmlns:fi="http://pattern.flaticon.com/" x="0" y="0" width="700" height="350" viewBox="0 0 816.6666666666667 408.33333333333337"><rect x="0px" y="0px" width="100%" height="100%" opacity="1" fill="#62c573"/><defs><g transform="matrix(0.20926560699922817 0.05938618699462018 -0.05938618699462018 0.20926560699922817 49.12341650524773 106.20836605071437)" id="L1_66"><ellipse cx="256px" cy="268px" rx="255px" ry="232px" fill="#7e5c62"/><path d="M302.719,351.445l-40.219-56c-1.508-2.094-3.922-3.336-6.5-3.336c-0.008,0-0.016,0-0.023,0    c-2.578,0.008-5,1.258-6.5,3.367l-39.781,56c-1.781,2.508-1.969,5.828-0.469,8.516l40,72c1.406,2.539,4.086,4.117,6.992,4.117    s5.586-1.578,6.992-4.117l40-72C304.719,357.289,304.523,353.961,302.719,351.445z" fill="#ffcd00"/><path d="M249.476,295.477l-39.781,56c-1.781,2.508-1.969,5.828-0.469,8.516l40,72    c1.37,2.474,3.954,4.009,6.773,4.088V292.109c-0.008,0-0.016,0-0.023,0C253.398,292.117,250.976,293.367,249.476,295.477z" fill="#ff9100"/><path d="M376.004,157.221c-53.829-7.459-101.497,23.404-119.894,69.182    c-18.398-45.779-66.066-76.642-119.896-69.182c-49.922,6.919-89.733,48.001-95.284,98.093    c-7.489,67.585,45.219,124.795,111.289,124.795c41.549,0,77.757-22.652,97.077-56.259c2.989-5.2,10.639-5.2,13.628,0    c19.32,33.607,55.527,56.259,97.076,56.259c66.07,0,118.779-57.211,111.289-124.796    C465.737,205.221,425.926,164.139,376.004,157.221z" fill="#e6be94"/><circle cx="360" cy="268" r="72" fill="#996459"/><circle cx="152" cy="268" r="72" fill="#996459"/><path d="M400,76.109h40c30.875,0,56-25.125,56-56c0-4.422,3.578-8,8-8s8,3.578,8,8v96    c0,39.703-32.297,72-72,72h-96c-44.109,0-80,35.891-80,80c0,4.422-3.578,8-8,8s-8-3.578-8-8v-40    C248,144.297,316.187,76.109,400,76.109z" fill="#996459"/><path d="M112.219,76.109h-40c-30.875,0-56-25.125-56-56c0-4.422-3.578-8-8-8s-8,3.578-8,8v96    c0,39.703,32.297,72,72,72h96c44.109,0,80,35.891,80,80c0,4.422,3.578,8,8,8s8-3.578,8-8v-40    C264.219,144.297,196.031,76.109,112.219,76.109z" fill="#996459"/><g><circle cx="152" cy="268" r="48" fill="#ffcd00"/><circle cx="152" cy="268" r="24" fill="#5c546a"/><circle cx="168" cy="252" r="16" fill="#ffffff"/></g><g><circle cx="360" cy="268" r="48" fill="#ffcd00"/><circle cx="360" cy="268" r="24" fill="#5c546a"/><circle cx="375" cy="252" r="16" fill="#ffffff"/></g><path d="M504.219,12.109c-4.422,0-8,3.578-8,8c0,30.875-25.125,56-56,56h-40    c-67.028,0-123.954,43.663-144.109,103.999C235.954,119.772,179.028,76.109,112,76.109H72c-30.875,0-56-25.125-56-56    c0-4.422-3.578-8-8-8s-8,3.578-8,8v48c0,30.928,25.072,56,56,56h56c54.303,0,101.859,28.707,128.675,71.684    c3.288,5.27,9.202,8.316,15.413,8.316h0.043c6.211,0,12.125-3.046,15.413-8.316c26.816-42.977,74.372-71.684,128.675-71.684h56    c30.928,0,56-25.072,56-56v-48C512.219,15.687,508.64,12.109,504.219,12.109z" fill="#e6be94"/></g><g transform="matrix(0.17871705959918216 -0.1169784361434053 0.1169784361434053 0.17871705959918216 99.77057170750948 334.3010987679587)" id="L1_67"><path d="M502.008,397.838L24.773,84.651c-4.922-3.234-11.203-3.496-16.375-0.695    C3.219,86.752,0,92.147,0,98.034v313.18c0,8.824,7.18,16,16,16h477.226c7.125,0,13.289-4.59,15.328-11.418    C510.601,408.967,507.969,401.748,502.008,397.838z M279.055,347.213H80V216.584L279.055,347.213z" fill="#ffd788"/><path d="M264,395.213c-4.422,0-8,3.582-8,8v24h16v-24C272,398.795,268.422,395.213,264,395.213z" fill="#e6be8a"/><path d="M296,379.213c-4.422,0-8,3.582-8,8v40h16v-40C304,382.795,300.422,379.213,296,379.213z" fill="#c9a07c"/><path d="M144,427.213v-24c0-4.418-3.578-8-8-8s-8,3.582-8,8v24H144z" fill="#e6be8a"/><path d="M392,395.213c-4.422,0-8,3.582-8,8v24h16v-24C400,398.795,396.422,395.213,392,395.213z" fill="#e6be8a"/><path d="M360,379.213c-4.422,0-8,3.582-8,8v40h16v-40C368,382.795,364.422,379.213,360,379.213z" fill="#c9a07c"/><path d="M328,395.213c-4.422,0-8,3.582-8,8v24h16v-24C336,398.795,332.422,395.213,328,395.213z" fill="#e6be8a"/><path d="M208,403.213c0-4.418-3.578-8-8-8s-8,3.582-8,8v24h16V403.213z" fill="#e6be8a"/><path d="M40,379.213c-4.422,0-8,3.582-8,8v40h16v-40C48,382.795,44.422,379.213,40,379.213z" fill="#c9a07c"/><path d="M72,395.213c-4.422,0-8,3.582-8,8v24h16v-24C80,398.795,76.422,395.213,72,395.213z" fill="#e6be8a"/><path d="M176,387.213c0-4.418-3.578-8-8-8s-8,3.582-8,8v40h16V387.213z" fill="#c9a07c"/><path d="M424,379.213c-4.422,0-8,3.582-8,8v40h16v-40C432,382.795,428.422,379.213,424,379.213z" fill="#c9a07c"/><path d="M240,387.213c0-4.418-3.578-8-8-8s-8,3.582-8,8v40h16V387.213z" fill="#c9a07c"/><path d="M112,387.213c0-4.418-3.578-8-8-8s-8,3.582-8,8v40h16V387.213z" fill="#c9a07c"/></g><g transform="matrix(0.13671875 0 0 0.13671875 315 315)" id="L1_68"><path d="M339.276,368.445c-1.125-1.977-3.047-3.375-5.273-3.844c-2.195-0.492-4.539,0.023-6.375,1.359    c-1.516,1.102-2.922,1.711-4.328,1.859c-4.93,0.617-9.008-3.391-11.024-5.789c-4.195-4.984-7.101-12.367-7.984-20.258    c-0.883-7.883,0.32-15.727,3.313-21.516c1.391-2.688,4.367-7.211,9.133-8.031c0.297-0.008,0.594-0.031,0.852-0.063    c2.82-0.375,5.469-2.789,6.563-5.414c0.57-1.367,1.125-2.734,1.859-4.063c6.539-11.773,9.992-25.156,9.992-38.688    c0-37.625-25.594-69.711-62.242-78.023c-0.578-0.125-1.172-0.195-1.766-0.195h-32c-0.594,0-1.188,0.07-1.773,0.195    c-36.641,8.32-62.227,40.406-62.227,78.023c0,13.531,3.453,26.914,9.992,38.688c0.734,1.328,1.289,2.695,2.094,4.641    c1.102,2.617,3.508,4.461,6.328,4.836c0.281,0.039,0.602,0.063,0.93,0.063c7.367,1.258,14.172,13.461,12.367,29.547    c-0.883,7.891-3.789,15.273-7.984,20.258c-2.016,2.398-6.086,6.398-11.039,5.789c-1.391-0.148-2.805-0.766-4.328-1.867    c-1.836-1.344-4.148-1.859-6.375-1.352c-2.227,0.477-4.141,1.875-5.273,3.844c-10.156,17.734-14.352,37.898-12.125,58.32    c4.828,44.148,40.359,79.734,84.461,84.625c3.602,0.406,7.289,0.609,10.953,0.609c3.672,0,7.359-0.203,10.945-0.609    c44.117-4.891,79.648-40.477,84.477-84.625C353.643,406.336,349.448,386.172,339.276,368.445z" fill="#7e5c62"/><path d="M334.003,364.601c-2.195-0.492-4.539,0.023-6.375,1.359c-1.516,1.102-2.922,1.711-4.328,1.859    c-4.93,0.617-9.008-3.391-11.024-5.789c-4.195-4.984-7.101-12.367-7.984-20.258c-0.883-7.883,0.32-15.727,3.313-21.516    c1.391-2.688,4.367-7.211,9.133-8.031c0.297-0.008,0.594-0.031,0.852-0.063c2.82-0.375,5.469-2.789,6.563-5.414    c0.57-1.367,1.125-2.734,1.859-4.063c6.539-11.773,9.992-25.156,9.992-38.688c0-37.625-25.594-69.711-62.242-78.023    c-0.578-0.125-1.172-0.195-1.766-0.195h-16.219v326.206c0.073,0,0.146,0.012,0.219,0.012c3.672,0,7.359-0.203,10.945-0.609    c44.117-4.891,79.648-40.477,84.477-84.625c2.227-20.43-1.969-40.594-12.141-58.32    C338.151,366.469,336.229,365.07,334.003,364.601z" fill="#996459"/><path d="M255.995,424c-4.422,0-8-3.578-8-8V304c0-4.422,3.578-8,8-8s8,3.578,8,8v112     C263.995,420.422,260.417,424,255.995,424z" fill="#868491"/><path d="M271.995,368h-32c-4.422,0-8-3.578-8-8s3.578-8,8-8h32c4.422,0,8,3.578,8,8     S276.417,368,271.995,368z" fill="#5c546a"/><path d="M271.987,71.727c-0.148-4.313-3.68-7.727-7.992-7.727h-16c-4.313,0-7.844,3.414-7.992,7.727l-8,232    c-0.078,2.164,0.734,4.273,2.242,5.828c1.508,1.563,3.578,2.445,5.75,2.445h32c2.172,0,4.242-0.883,5.75-2.445    c1.508-1.555,2.32-3.664,2.242-5.828L271.987,71.727z" fill="#5c546a"/><path d="M278.136,410.875c-1.516-1.82-3.766-2.875-6.141-2.875h-32c-2.375,0-4.625,1.055-6.141,2.875    c-1.523,1.82-2.156,4.219-1.727,6.555l16,88c0.688,3.805,4,6.57,7.867,6.57s7.18-2.766,7.867-6.57l16-88    C280.292,415.094,279.659,412.695,278.136,410.875z" fill="#5c546a"/><path d="M239.995,32h-16c-4.422,0-8-3.578-8-8s3.578-8,8-8h16c4.422,0,8,3.578,8,8S244.417,32,239.995,32z     " fill="#5c546a"/><path d="M239.995,64h-16c-4.422,0-8-3.578-8-8s3.578-8,8-8h16c4.422,0,8,3.578,8,8S244.417,64,239.995,64z     " fill="#5c546a"/><path d="M287.995,32h-16c-4.422,0-8-3.578-8-8s3.578-8,8-8h16c4.422,0,8,3.578,8,8S292.417,32,287.995,32z     " fill="#5c546a"/><path d="M287.995,64h-16c-4.422,0-8-3.578-8-8s3.578-8,8-8h16c4.422,0,8,3.578,8,8S292.417,64,287.995,64z     " fill="#5c546a"/><path d="M255.995,0c-13.234,0-24,10.766-24,24v32c0,13.234,10.766,24,24,24c13.234,0,24-10.766,24-24V24    C279.995,10.766,269.229,0,255.995,0z" fill="#7e5c62"/></g><g transform="matrix(0.09765644371509552 0 0 0.09765644371509552 237.5 150)" id="L1_69"><path d="M84.516,343.25c-3.023,0-5.922-1.719-7.273-4.648c-1.852-4.008-0.102-8.766,3.914-10.617     l106.352-49.086c4.023-1.852,8.766-0.094,10.617,3.914s0.102,8.766-3.914,10.617L87.859,342.516     C86.773,343.016,85.633,343.25,84.516,343.25z" fill="#5c546a"/><path d="M205.305,213.086c-2.047,0-4.094-0.781-5.656-2.344l-70.461-70.461     c-3.125-3.125-3.125-8.188,0-11.313s8.188-3.125,11.312,0l70.461,70.461c3.125,3.125,3.125,8.187,0,11.312     C209.398,212.305,207.351,213.086,205.305,213.086z" fill="#5c546a"/><path d="M307.133,213.086c-2.047,0-4.094-0.781-5.656-2.344c-3.125-3.125-3.125-8.188,0-11.312     L402.969,97.945c3.125-3.125,8.188-3.125,11.313,0s3.125,8.187,0,11.312L312.789,210.742     C311.226,212.305,309.18,213.086,307.133,213.086z" fill="#5c546a"/><path d="M449.594,457.375c-2.047,0-4.094-0.781-5.656-2.344L301.469,312.562     c-3.125-3.125-3.125-8.187,0-11.312s8.188-3.125,11.312,0L455.25,443.719c3.125,3.125,3.125,8.188,0,11.313     C453.687,456.594,451.64,457.375,449.594,457.375z" fill="#5c546a"/><path d="M269.305,408c-4.094,0-7.578-3.125-7.961-7.273l-6.578-72.305     c-0.398-4.398,2.844-8.297,7.242-8.695c4.477-0.383,8.289,2.852,8.695,7.242l6.578,72.305c0.398,4.398-2.844,8.297-7.242,8.695     C269.789,407.992,269.547,408,269.305,408z" fill="#5c546a"/><circle cx="256" cy="256" r="80" fill="#ff4f19"/><circle cx="276" cy="236" r="28" fill="#ff8c62"/><circle cx="47" cy="351" r="47" fill="#ff9100"/><circle cx="59" cy="339" r="16" fill="#ffcd00"/><circle cx="448" cy="63" r="63" fill="#ffcd00"/><circle cx="463" cy="47" r="22" fill="#ffe671"/><circle cx="111" cy="112" r="39" fill="#00c37a"/><circle cx="121" cy="102" r="13" fill="#60dc4d"/><circle cx="471" cy="472" r="39" fill="#4cd7ff"/><circle cx="481" cy="462" r="13" fill="#aeefff"/><circle cx="272" cy="432" r="39" fill="#868491"/><circle cx="281" cy="422" r="13" fill="#b4b6bc"/></g></defs><g fi:class="KUsePattern"><pattern id="pattern_L1_66" width="350" height="350" patternUnits="userSpaceOnUse"><use xlink:href="#L1_66" x="-350" y="-350"/><use xlink:href="#L1_66" x="0" y="-350"/><use xlink:href="#L1_66" x="350" y="-350"/><use xlink:href="#L1_66" x="-350" y="0"/><use xlink:href="#L1_66" x="0" y="0"/><use xlink:href="#L1_66" x="350" y="0"/><use xlink:href="#L1_66" x="-350" y="350"/><use xlink:href="#L1_66" x="0" y="350"/><use xlink:href="#L1_66" x="350" y="350"/></pattern><rect x="0" y="0" width="100%" height="100%" fill="url(#pattern_L1_66)"/></g><g fi:class="KUsePattern"><pattern id="pattern_L1_67" width="350" height="350" patternUnits="userSpaceOnUse"><use xlink:href="#L1_67" x="-350" y="-350"/><use xlink:href="#L1_67" x="0" y="-350"/><use xlink:href="#L1_67" x="350" y="-350"/><use xlink:href="#L1_67" x="-350" y="0"/><use xlink:href="#L1_67" x="0" y="0"/><use xlink:href="#L1_67" x="350" y="0"/><use xlink:href="#L1_67" x="-350" y="350"/><use xlink:href="#L1_67" x="0" y="350"/><use xlink:href="#L1_67" x="350" y="350"/></pattern><rect x="0" y="0" width="100%" height="100%" fill="url(#pattern_L1_67)"/></g><g fi:class="KUsePattern"><pattern id="pattern_L1_68" width="350" height="350" patternUnits="userSpaceOnUse"><use xlink:href="#L1_68" x="-350" y="-350"/><use xlink:href="#L1_68" x="0" y="-350"/><use xlink:href="#L1_68" x="350" y="-350"/><use xlink:href="#L1_68" x="-350" y="0"/><use xlink:href="#L1_68" x="0" y="0"/><use xlink:href="#L1_68" x="350" y="0"/><use xlink:href="#L1_68" x="-350" y="350"/><use xlink:href="#L1_68" x="0" y="350"/><use xlink:href="#L1_68" x="350" y="350"/></pattern><rect x="0" y="0" width="100%" height="100%" fill="url(#pattern_L1_68)"/></g><g fi:class="KUsePattern"><pattern id="pattern_L1_69" width="350" height="350" patternUnits="userSpaceOnUse"><use xlink:href="#L1_69" x="-350" y="-350"/><use xlink:href="#L1_69" x="0" y="-350"/><use xlink:href="#L1_69" x="350" y="-350"/><use xlink:href="#L1_69" x="-350" y="0"/><use xlink:href="#L1_69" x="0" y="0"/><use xlink:href="#L1_69" x="350" y="0"/><use xlink:href="#L1_69" x="-350" y="350"/><use xlink:href="#L1_69" x="0" y="350"/><use xlink:href="#L1_69" x="350" y="350"/></pattern><rect x="0" y="0" width="100%" height="100%" fill="url(#pattern_L1_69)"/></g></svg>