<?xml version="1.0" encoding="utf-8"?>
<!-- Generator: Adobe Illustrator 22.0.0, SVG Export Plug-In . SVG Version: 6.00 Build 0)  -->
<svg version="1.1" id="Layer_1" xmlns="http://www.w3.org/2000/svg" xmlns:xlink="http://www.w3.org/1999/xlink" x="0px" y="0px"
	 viewBox="0 0 304.5 522.7" style="enable-background:new 0 0 304.5 522.7;" xml:space="preserve">
<style type="text/css">
	.st0{stroke:#000000;stroke-width:4.0856;stroke-linecap:round;stroke-linejoin:round;stroke-miterlimit:10;}
	.st1{stroke:#000000;stroke-width:1.1958;stroke-linecap:round;stroke-linejoin:round;stroke-miterlimit:10;}
	.st2{fill:#FCF1BB;}
	.st3{clip-path:url(#XMLID_2_);fill:#F5B886;}
	.st4{fill:#FFFFFF;}
	.st5{fill:#FDF4BE;}
	.st6{fill:none;stroke:#EE7D63;stroke-width:1.1958;stroke-linecap:round;stroke-linejoin:round;stroke-miterlimit:10;}
	.st7{fill:#F9FCE8;}
	.st8{fill:#EBEAE6;}
	.st9{fill:#0B0F1F;}
	.st10{fill:none;stroke:#EBEAE6;stroke-width:1.0418;stroke-linecap:round;stroke-linejoin:round;stroke-miterlimit:10;}
	.st11{fill:none;stroke:#EBEAE6;stroke-width:1.4721;stroke-linecap:round;stroke-linejoin:round;stroke-miterlimit:10;}
	.st12{fill:none;stroke:#EBEAE6;stroke-width:1.5438;stroke-linecap:round;stroke-linejoin:round;stroke-miterlimit:10;}
	.st13{clip-path:url(#XMLID_3_);fill:#EA404F;}
	.st14{clip-path:url(#XMLID_3_);fill:#EE7D63;}
	.st15{fill:#ABBAC2;}
	.st16{fill:#1A366B;stroke:#1A366B;stroke-width:1.3809;stroke-linecap:round;stroke-linejoin:round;stroke-miterlimit:10;}
	.st17{fill:#FFFFFF;stroke:#333333;stroke-width:1.1958;stroke-linecap:round;stroke-linejoin:round;stroke-miterlimit:10;}
	.st18{fill:#EEE8EB;}
	.st19{opacity:0.82;fill:#FAFAF9;}
	.st20{fill:none;stroke:#CDC9C1;stroke-width:1.18;stroke-miterlimit:10;}
	.st21{fill:#FAFAF9;stroke:#FC402D;stroke-width:1.7375;stroke-miterlimit:10;}
	.st22{fill:#87A1CC;}
	.st23{fill:#FD2D1C;}
	.st24{font-family:'ComicSansMS';}
	.st25{font-size:20.9683px;}
	.st26{fill:#DF2D69;}
	.st27{fill:#F5B886;}
	.st28{clip-path:url(#XMLID_4_);fill:#10090B;}
	.st29{clip-path:url(#XMLID_4_);fill:#FFFFFF;}
	.st30{clip-path:url(#XMLID_4_);fill:#BE0008;}
	.st31{fill:#3558A6;}
	.st32{opacity:0.3;}
</style>
<g>
	<path class="st0" d="M15.3,152.5c0,0-2.1,52.5,24.1,91.9l2-11.5c0,0,9.6,30.4,57.3,28.2c42.7-2,47.7-30,47.7-30s2.9,12.4,7.7,8.1
		c8.2-7.3,23.7-56.2,18-111.4"/>
	<path class="st1" d="M174.5,116.5c0,0,17.1,55.2-2.7,96.6c0,0-4.7-10.8-2.5-24.2"/>
	<g>
		<path class="st2" d="M147.8,244.7l-19.3-22.8c0.7-0.6,65-56.1,64.3-126.6l29.9-0.3C223.5,179.7,150.9,242.1,147.8,244.7z"/>
	</g>
	<g>
		<g>
			<defs>
				<path id="XMLID_46_" d="M58,289.6c0,0-18.3,34.8-34,25.4c-15.7-9.4,6.4-42,6.4-42s6.8,1.6,14.9,6.4
					C53.5,284.4,58,289.6,58,289.6z"/>
			</defs>
			<use xlink:href="#XMLID_46_"  style="overflow:visible;fill:#FCF1BB;"/>
			<clipPath id="XMLID_2_">
				<use xlink:href="#XMLID_46_"  style="overflow:visible;"/>
			</clipPath>
			<path class="st3" d="M24.5,273.8c0,0-4.1,5.9,2.5,7.1c3.2,0.6-1.9,8.1-1.9,8.1s0.6,5.2,18.3,8.5c17.7,3.3,17.3-25.3,17.3-25.3"/>
		</g>
		<path class="st4" d="M28.2,273.1c0,0,23.6-42.1,42.5-30.1c18.9,12-9.2,51.2-9.2,51.2s-8.2-2.1-18.1-8.4
			C33.6,279.6,28.2,273.1,28.2,273.1z"/>
		<path class="st5" d="M34.3,268.9c0,0,7.8-3.1,7.3-10c-0.6-8.7,8.3-9.3,7.8-13.4c-0.5-3.7-4-7.6-10.6,2.5c0,0-2.8,1.2,0.3-7.1
			c3.4-9.3,1.9-11.9-1.3-12.2c-2.4-0.2-4.2,11.8-5.9,11.7c-1.7-0.1,4.1-15.3-2.2-15.9c-3.7-0.4-4.4,15-5.9,15.1
			c-1.5,0.1,1.8-14.4-2.4-14.6c-5.6-0.3-3.6,15.4-5.8,15.1c-2.2-0.3,0.9-10.9-1.9-10.6c-3.9,0.4-4.2,4.5-4.9,16.1
			c-0.5,7.5-2.8,12.9,4.3,22.4c0,0-6.8,47,15.6,48.2C51.1,317.4,36.1,272.9,34.3,268.9z"/>
		<path class="st6" d="M34.9,254.2c0,0-11.5-3-12.8,8.2"/>
		<path class="st6" d="M35.2,244.4c0,0-7.4-5.1-23.7,0.3"/>
	</g>
	<path class="st4" d="M140.2,208.3c0,0-37.2,30.7-22,47.2c15.2,16.4,48.8-18.1,48.8-18.1s-3.6-7.7-11.4-16.3
		C147.6,212.5,140.2,208.3,140.2,208.3z"/>
	<g>
		<g>
			
				<rect x="99.3" y="369.3" transform="matrix(0.9995 -3.009156e-02 3.009156e-02 0.9995 -13.1179 3.596)" class="st2" width="27.1" height="136.7"/>
		</g>
		<polygon class="st7" points="128.7,490.2 101.6,492.2 99.2,442.6 126,441.8 		"/>
		<g>
			<path d="M169,514.5l-63.4,0.1c-6.4,0-6.1-7.6-5.6-24.4c0,0,14.5-0.6,23.9-0.6c4.7,0,8.1,0.1,7.9,0.6c5.5,5,11.6,9.8,16.9,11
				c0.6,0.1,1.2,0.2,1.8,0.3c8.5,0.5,13.4,1,13.4,1C171,502.6,171.9,512.4,169,514.5z"/>
			<path class="st4" d="M166.4,520.2l-63.4,0c-0.9,0-1.6-0.7-1.6-1.6l0-3.7c0-0.9,0.7-1.6,1.6-1.6l63.4,0c0.9,0,1.6,0.7,1.6,1.6v3.7
				C168,519.5,167.2,520.2,166.4,520.2z"/>
			<g>
				<path class="st8" d="M169.3,520.2l-15,0c-0.4,0-0.8-0.4-0.8-0.8l0-5.4c0-0.4,0.4-0.8,0.8-0.8l15,0c0.4,0,0.8,0.4,0.8,0.8l0,5.4
					C170.1,519.8,169.7,520.2,169.3,520.2z"/>
			</g>
			<g>
				<path class="st9" d="M148.8,501.1c-2.7,0.6-5.9,0.7-9.1,0.2c-8.7-1.3-15.2-6.4-15.6-11.8c4.7,0,8.1,0.1,7.9,0.6
					C137.4,495.1,143.6,499.9,148.8,501.1z"/>
			</g>
			<path class="st10" d="M143,498.9c-2-0.7-4.1,0.2-5.2,1.7"/>
			<path class="st11" d="M139.9,496.5c-2.8-1-5.8,0.3-7.4,2.3"/>
			<path class="st12" d="M136,493.6c-3-1-6.1,0.3-7.7,2.5"/>
		</g>
		<g>
			
				<rect x="66.7" y="372" transform="matrix(1 -3.584036e-03 3.584036e-03 1 -1.5743 0.2904)" class="st2" width="27.1" height="134.9"/>
		</g>
		<polygon class="st7" points="67,490.9 94,493.2 93.8,442.4 66.4,442.5 		"/>
		<g>
			<path d="M26,514.5l63.4,0.1c6.4,0,6.1-7.6,5.6-24.4c0,0-14.5-0.6-23.9-0.6c-4.7,0-8.1,0.1-7.9,0.6c-5.5,5-11.6,9.8-16.9,11
				c-0.6,0.1-1.2,0.2-1.8,0.3c-8.5,0.5-13.4,1-13.4,1C24,502.6,23.1,512.4,26,514.5z"/>
			<path class="st4" d="M28.7,520.2l63.4,0c0.9,0,1.6-0.7,1.6-1.6l0-3.7c0-0.9-0.7-1.6-1.6-1.6l-63.4,0c-0.9,0-1.6,0.7-1.6,1.6
				l0,3.7C27.1,519.5,27.8,520.2,28.7,520.2z"/>
			<g>
				<path class="st8" d="M25.8,520.2l15,0c0.4,0,0.8-0.4,0.8-0.8l0-5.4c0-0.4-0.4-0.8-0.8-0.8l-15,0c-0.4,0-0.8,0.4-0.8,0.8l0,5.4
					C25,519.8,25.3,520.2,25.8,520.2z"/>
			</g>
			<g>
				<path class="st9" d="M46.3,501.1c2.7,0.6,5.9,0.7,9.1,0.2c8.7-1.3,15.2-6.4,15.6-11.8c-4.7,0-8.1,0.1-7.9,0.6
					C57.6,495.1,51.5,499.9,46.3,501.1z"/>
			</g>
			<path class="st10" d="M52,498.9c2-0.7,4.1,0.2,5.2,1.7"/>
			<path class="st11" d="M55.1,496.5c2.8-1,5.8,0.3,7.4,2.3"/>
			<path class="st12" d="M59.1,493.6c3-1,6.1,0.3,7.7,2.5"/>
		</g>
	</g>
	<path class="st4" d="M110.5,239.8c0,0,4.6-9.6,23.3-14.3c9.7-2.4,33.1,11.8,33.1,11.8s-15,12.6-19.4,29c-4,15.1-5.6,35.6-4.7,67.2"
		/>
	<g>
		<path class="st4" d="M47.7,342.1c0,14.5,11.8,26.3,26.3,26.3h42.8c14.5,0,26.3-11.8,26.3-26.3v-73.5c0-14.5-11.8-26.3-26.3-26.3
			H74c-14.5,0-26.3,11.8-26.3,26.3V342.1z"/>
	</g>
	<g>
		<defs>
			<rect id="XMLID_45_" x="82.9" y="225.6" width="25.1" height="38.3"/>
		</defs>
		<use xlink:href="#XMLID_45_"  style="overflow:visible;fill:#F5B886;"/>
		<clipPath id="XMLID_3_">
			<use xlink:href="#XMLID_45_"  style="overflow:visible;"/>
		</clipPath>
		<path class="st13" d="M75.3,220.4c0,0-2.1,22.9,20.2,22.4c22.4-0.5,19.2-23.2,19.2-23.2s-8.1-1.1-19.8-0.8
			C83.3,219,75.3,220.4,75.3,220.4z"/>
		<path class="st14" d="M75.3,220.4c0,0-2.1,22.9,20.2,22.4c22.4-0.5,19.2-23.2,19.2-23.2s-8.1-1.1-19.8-0.8
			C83.3,219,75.3,220.4,75.3,220.4z"/>
	</g>
	<rect x="80.6" y="251.6" class="st4" width="29.6" height="29.6"/>
	<path class="st15" d="M95.9,259.8l4.7-6.6c0.2-0.2,0.2-0.5,0.1-0.7c-0.1-0.2-0.4-0.4-0.6-0.4H87.4c-0.3,0-0.5,0.1-0.6,0.4
		c-0.1,0.2-0.1,0.5,0.1,0.7l4.7,6.6l-11.1,71.1c0,0.2,0,0.4,0.2,0.6l12.6,13c0.1,0.1,0.3,0.2,0.5,0.2h0c0.2,0,0.4-0.1,0.5-0.2
		l12.6-13.5c0.1-0.2,0.2-0.4,0.2-0.6L95.9,259.8z"/>
	<polygon class="st16" points="97.6,257.7 102.5,250.9 89.8,250.9 94.7,257.7 83.6,329 96.1,342.1 108.7,328.5 	"/>
	<polygon class="st17" points="92.5,248.2 78,233.2 70.5,242.2 87.1,262.5 	"/>
	<polygon class="st17" points="99.8,248.2 110.2,235 116.8,236.7 107.7,259.3 	"/>
	<g>
		<path class="st18" d="M251.8,5.8l55,88.2c0,0-9,6.3-23.6,14.1c-21.4,11.3-46.4,22.6-50.3,25l-0.1,0c-10.9,6.8-12.7,15.7-12.7,15.7
			l-55-88.2c0,0,1.8-8.9,12.7-15.7l0.1,0c3.9-2.5,28.9-13.7,50.3-25C242.8,12.1,251.8,5.8,251.8,5.8z"/>
		<path class="st19" d="M177.8,44.9l55,88.2c-10.9,6.8-12.7,15.7-12.7,15.7l-55-88.2C165.1,60.6,166.9,51.7,177.8,44.9z"/>
		<g>
			<path class="st20" d="M258.3,16.5c0,0-9,6.3-23.6,14c-21.4,11.3-46.4,22.6-50.3,25c-0.9,0.6-1.8,1.2-2.6,1.8
				c-8.7,6.5-10.2,14-10.2,14"/>
			<path class="st20" d="M263,24.2c0,0-9,6.3-23.6,14c-21.4,11.3-46.4,22.6-50.3,25c-0.9,0.6-1.8,1.2-2.6,1.8
				c-8.7,6.5-10.2,14-10.2,14"/>
			<path class="st20" d="M267.8,31.8c0,0-9,6.3-23.6,14c-21.4,11.3-46.4,22.6-50.3,25c-0.9,0.6-1.8,1.2-2.6,1.8
				c-8.7,6.5-10.2,14-10.2,14"/>
			<path class="st20" d="M272.6,39.4c0,0-9,6.3-23.6,14c-21.4,11.3-46.4,22.6-50.3,25c-0.9,0.6-1.8,1.2-2.6,1.8
				c-8.7,6.5-10.2,14-10.2,14"/>
			<path class="st20" d="M277.3,47.1c0,0-9,6.3-23.6,14c-21.4,11.3-46.4,22.6-50.3,25c-0.9,0.6-1.8,1.2-2.6,1.8
				c-8.7,6.5-10.2,14-10.2,14"/>
			<path class="st20" d="M282.1,54.7c0,0-9,6.3-23.6,14c-21.4,11.3-46.4,22.6-50.3,25c-0.9,0.6-1.8,1.2-2.6,1.8
				c-8.7,6.5-10.2,14-10.2,14"/>
			<path class="st20" d="M286.9,62.4c0,0-9,6.3-23.6,14.1c-21.4,11.3-46.4,22.6-50.3,25c-0.9,0.6-1.8,1.2-2.6,1.8
				c-8.7,6.5-10.2,14-10.2,14"/>
			<path class="st20" d="M291.6,70c0,0-9,6.3-23.6,14.1c-21.4,11.3-46.4,22.6-50.3,25c-0.9,0.6-1.8,1.2-2.6,1.8
				c-8.7,6.5-10.2,14-10.2,14"/>
			<path class="st20" d="M296.4,77.6c0,0-9,6.3-23.6,14.1c-21.4,11.3-46.4,22.6-50.3,25c-0.9,0.6-1.8,1.2-2.6,1.8
				c-8.7,6.5-10.2,14-10.2,14"/>
			<path class="st20" d="M301.2,85.3c0,0-9,6.3-23.6,14.1c-21.4,11.3-46.4,22.6-50.3,25c-0.9,0.6-1.8,1.2-2.6,1.8
				c-8.7,6.5-10.2,14-10.2,14"/>
		</g>
		<line class="st21" x1="298" y1="99.7" x2="243" y2="11.4"/>
		<g>
			<path class="st22" d="M199.4,52.6c-2.3,1.7-4.7,2.7-7.5,3.2c-0.9,0.2-1.4,0.5-2.1,0.9c-0.8,0.5-1.8,0.7-2.6,1.2
				c-0.5,0.3-0.4,0.7-1.1,1c-0.2,0.1-0.6,0-0.9,0.1c-0.8,0.3-1.2,1.2-1.9,1.6c-1.3,0.9-3.1,1.1-2.8,3.1c0.1,0.7,1.2,0.7,1.1,0
				c-0.1-0.9,1.2-1.6,1.8-1.8c0.4-0.2,0.7-0.3,1-0.6c0.2-0.1,0.3-0.4,0.5-0.5c0.5-0.4,0.9-0.5,1.5-0.8c0.4-0.2,0.6-0.2,1-0.5
				c0.4-0.3,0.6-0.7,1.1-0.9c0.3-0.1,0.6-0.2,0.9-0.3c1.1-0.5,1.9-1.2,3.2-1.5c0.7-0.1,1.4-0.2,2.1-0.5c1.9-0.6,3.7-1.6,5.3-2.8
				C200.5,53.1,200,52.2,199.4,52.6z"/>
			<path class="st22" d="M220.3,42.1c-1.7,0.6-3.4,1.1-5.1,1.8c-1.5,0.6-2.5,1.9-3.9,2.5c-0.3,0.1-0.6,0.1-0.9,0.4
				c-0.6,0.4-0.3,0.7-1.4,1.1c-0.3,0.1-0.7,0.1-1.1,0.2c-0.5,0.1-1,0.3-1.3,0.6c-0.3,0-0.6,0.1-0.6,0.5c0,0.2,0,0.4,0,0.6
				c0,0.7,0.9,0.6,1.1,0.1c0.4-1,2.4-1,3.3-1.5c0.5-0.3,0.7-0.7,1.3-0.9c0.3-0.1,0.6-0.1,0.9-0.3c0.4-0.2,0.6-0.6,0.9-0.9
				c0.9-0.8,1.8-1.2,2.9-1.6c1.4-0.5,2.8-1,4.2-1.5C221.2,42.9,220.9,41.8,220.3,42.1z"/>
			<path class="st22" d="M233.1,35c-1.7,0.8-3.4,1.7-5,2.6c-1.1,0.6-2.3,1.1-2.9,2.2c-0.3,0.6,0.7,1.1,1,0.5
				c0.6-1.2,2.6-1.9,3.6-2.4c1.3-0.7,2.6-1.3,3.9-2C234.3,35.6,233.7,34.7,233.1,35z"/>
			<path class="st22" d="M193.4,65.3c-2.3,0.6-3.9,2.3-5.8,3.5c-1.2,0.7-2.7,1.3-2.7,2.9c0,0.7,1.1,0.7,1.1,0c0-1.2,2.6-2.2,3.4-2.8
				c1.4-1,2.6-2.1,4.3-2.5C194.4,66.2,194.1,65.2,193.4,65.3z"/>
			<path class="st22" d="M209.8,56.5c-1.2,0.1-1.9,0.9-2.9,1.4c-0.9,0.5-1.5,0.1-2.3,0.3c-0.5,0.1-0.6,0.4-0.9,0.7
				c-1.2,1.1-2.6,1.9-4.1,2.4c-0.8,0.3-1.3,0.8-1.2,1.7c0.1,0.7,1.2,0.7,1.1,0c-0.1-0.5,2.2-1,2.7-1.3c0.7-0.5,1.5-1.1,2.2-1.7
				c1-0.7,1.8-0.4,2.8-0.9c1-0.5,1.7-1.5,2.9-1.5C210.5,57.5,210.5,56.4,209.8,56.5z"/>
			<path class="st22" d="M216.4,52.7c-0.7,0.1-1.3,0.4-1.8,0.9c-0.5,0.5,0.3,1.2,0.8,0.7c0.3-0.3,0.6-0.5,1.1-0.5
				C217.1,53.7,217.1,52.6,216.4,52.7z"/>
			<path class="st22" d="M244.6,29.1c-2.4,1.2-4.8,2.4-7.3,3.5c-0.6,0.3,0,1.2,0.6,0.9c2.4-1.1,4.9-2.3,7.3-3.5
				C245.8,29.7,245.2,28.8,244.6,29.1z"/>
			<path class="st22" d="M209.7,67.5c-2.2-0.2-3.9,0.5-5.7,1.7c-0.6,0.4-1.7,0.7-2.3,1.1c-0.3,0.2-0.5,0.6-0.8,0.7
				c-0.3,0.1-0.5,0-0.8,0.1c-1.8,0.4-3.3,1.8-4.7,2.9c-1.5,1.4-3.5,1.4-3.9,3.7c-0.1,0.7,0.9,0.9,1,0.2c0.2-1.2,1.4-1.7,2.3-2.2
				c0.7-0.4,1.2-0.9,1.8-1.5c0.9-0.8,2-1.6,3.2-1.9c0.5-0.1,0.9-0.1,1.3-0.2c0.5-0.2,0.5-0.6,0.9-0.9c0.5-0.3,1.2-0.4,1.7-0.7
				c0.9-0.6,1.6-1.3,2.6-1.7c1.1-0.4,2.2-0.5,3.3-0.4C210.4,68.7,210.4,67.6,209.7,67.5z"/>
			<path class="st22" d="M229.1,57c-1.3,0.2-2.5,0.5-3.6,1.1c-0.7,0.4-1.2,1-1.9,1.3c-0.7,0.4-1.8,0.3-2.7,0.6c-1.4,0.5-2.7,1.3-4,2
				c-0.9,0.5-1.6,1-1.9,2.1c-0.2,0.7,0.8,0.9,1,0.2c0.4-1.2,2.1-1.7,3.1-2.2c1.3-0.7,2.3-1.1,3.8-1.3c0.9-0.2,1.3-0.6,2.1-1.1
				c1.2-0.9,2.6-1.4,4-1.6C229.8,57.9,229.8,56.9,229.1,57z"/>
			<path class="st22" d="M240.2,51.3c-2.3,0.6-4.3,1.7-6.1,3.3c-0.5,0.5,0.3,1.2,0.8,0.7c1.6-1.4,3.5-2.4,5.6-3
				C241.2,52.1,240.9,51.1,240.2,51.3z"/>
			<path class="st22" d="M203.2,79.6c-1,0.6-2.1,0.9-3.2,1.3c-0.8,0.3-1,0.7-1.7,1.2c-0.9,0.7-2,0.9-2,2.3c0,0.7,1.1,0.7,1.1,0
				c0-0.8,1.1-1,1.6-1.3c0.4-0.3,0.6-0.7,1-0.9c1-0.7,2.6-0.9,3.7-1.6C204.3,80.2,203.8,79.3,203.2,79.6z"/>
			<path class="st22" d="M234.3,63.7c-0.9,1.3-2.2,0.9-3.4,1.6c-1.2,0.7-2.3,1.5-3.7,1.9c-1.3,0.4-2.5,0.7-3.7,1.3
				c-1.2,0.5-2.2,1.5-3.4,2c-1,0.4-1.8,0-2.7,0.4c-0.5,0.2-0.8,0.8-1.1,1.2c-0.6,0.6-1.2,1.1-2,1.5c-1.6,0.8-4.4,1.3-4.9,3.3
				c-0.2,0.7,0.9,0.9,1,0.2c0.3-1.3,2.8-1.9,3.8-2.4c0.9-0.4,1.7-0.9,2.4-1.5c0.7-0.7,1.2-1.2,2.3-1.3c0.2,0,0.5,0,0.7,0
				c0.9-0.2,1.8-1.1,2.6-1.6c2.3-1.3,4.8-1.7,7.1-2.8c0.6-0.3,1-0.7,1.5-1c1.2-0.7,1-0.4,1.9-0.7c1-0.3,1.6-0.6,2.2-1.5
				C235.5,63.9,234.7,63.1,234.3,63.7z"/>
			<path class="st22" d="M247.4,57.2c-1.2,1-2.9,1.2-4.2,2.1c-0.9,0.6-2.3,0.6-2.9,1.6c-0.4,0.6,0.6,1.1,1,0.5
				c0.2-0.4,1.4-0.5,1.8-0.7c0.8-0.4,1.3-1,2.2-1.3c1.1-0.4,2.1-0.6,3-1.4C248.7,57.4,247.9,56.7,247.4,57.2z"/>
			<path class="st22" d="M260.8,49.9c-0.7,0-1.2,0.2-1.8,0.6c-1.2,0.9-2.2,1.9-3.6,2.4c-0.9,0.3-1.8,0.4-2.6,0.8
				c-1.1,0.5-2.2,1.2-3.2,1.9c-0.6,0.4,0,1.3,0.6,0.9c0.8-0.5,1.6-1,2.4-1.5c1-0.6,2.1-0.6,3.1-1c0.7-0.2,1.4-0.8,2.1-1.1
				c1-0.6,1.8-1.9,3.1-2C261.5,51,261.5,49.9,260.8,49.9z"/>
			<path class="st22" d="M207.6,88.2c-0.8-0.2-1.5,0.1-2.2,0.5c-1.2,0.7-2.4,1.5-3.6,2.3c-0.6,0.4,0,1.3,0.6,0.9
				c0.8-0.5,1.6-1,2.4-1.5c0.7-0.4,1.7-1.4,2.6-1.1C208.1,89.4,208.3,88.4,207.6,88.2z"/>
			<path class="st22" d="M211.6,86.1l-1.4,0.4c-0.7,0.2-0.4,1.2,0.3,1l1.4-0.4C212.6,86.9,212.3,85.9,211.6,86.1z"/>
			<path class="st22" d="M226.5,77.4c-2.6,0.8-4.6,2.2-6.8,3.8c-1,0.8-2,0.9-3.1,1.4c-0.7,0.3-1.1,0.8-1.3,1.6
				c-0.1,0.7,0.9,0.9,1,0.2c0.1-0.6,1.3-1,1.8-1.2c0.4-0.2,0.6-0.2,0.9-0.4c0.8-0.4,1.4-1,2.1-1.5c1.7-1.3,3.5-2.3,5.6-3
				C227.5,78.2,227.2,77.2,226.5,77.4z"/>
			<path class="st22" d="M252.4,66c-0.6-0.3-0.9-0.1-1.4,0.3c-0.8,0.5-1.2,0.9-2.2,1.1c-0.5,0.1-1.1,0.1-1.6,0.2
				c-1.3,0.4-2.1,1.3-3.5,1.5c-1.1,0.2-2.2,0.4-3.1,1c-0.5,0.3-0.8,0.7-1.2,1c-0.2,0.3-0.4,0.4-0.7,0.5c-0.2-0.1-0.3-0.1-0.5-0.1
				c-0.8,0.3-0.7,0.4-1.1,1.1c-1.2,1.7-4.3,0.9-4.5,3.5c-0.1,0.7,1,0.7,1.1,0c0.1-1.3,2.4-1.2,3.2-1.6c0.6-0.3,0.7-0.5,1.1-1.1
				c0.6-0.9,0.6-0.5,1.3-0.7c0.5-0.1,0.4-0.3,0.8-0.6c0.8-0.6,1.2-1.1,2.2-1.5c1-0.3,2-0.3,3-0.7c0.9-0.3,1.5-1.1,2.4-1.3
				c0.9-0.3,1.9-0.1,2.9-0.5c0.2-0.1,1.5-1.2,1.5-1.2C252.5,67.2,253,66.3,252.4,66z"/>
			<path class="st22" d="M259.7,60.6c-0.8,0.5-1.7,0.9-2.5,1.4c-0.6,0.3,0,1.2,0.6,0.9c0.8-0.5,1.7-0.9,2.5-1.4
				C260.9,61.1,260.3,60.2,259.7,60.6z"/>
			<path class="st22" d="M230.8,87c-3.1,0.7-5.1,3.4-8.3,3.7c-1.3,0.1-1.7,0.3-2.7,1c-0.7,0.6-1.3,0.7-1.9,1.1
				c-0.3,0.2-0.6,0.3-0.8,0.5c-0.9,0.8-0.5,0.9-2,1.1c-0.3,0-0.6,0-0.9,0.1c-0.4,0.2-0.6,0.5-0.8,0.9c-0.6,1.1-0.9,1.7-2.2,2.2
				c-1.7,0.6-4,1.3-3.7,3.6c0.1,0.7,1.2,0.7,1.1,0c-0.3-2.4,4.4-2.4,5.4-4.3c0.4-0.7,0.3-1.1,1.3-1.3c0.5-0.1,0.7,0.1,1.2-0.1
				c0.9-0.4,1.1-1.3,2.2-1.6c0.8-0.2,1-0.4,1.7-0.9c1.3-1.1,1.4-1,2.7-1.1c0.4,0,0.8-0.1,1.2-0.2c2.5-0.7,4.2-2.9,6.8-3.5
				C231.7,87.9,231.4,86.8,230.8,87z"/>
			<path class="st22" d="M247.5,79.4c0,0-0.1,0-0.1,0c-0.2,0-0.3-0.1-0.5-0.1c-0.3,0-0.6,0-0.9,0.1c-0.4,0.2-0.6,0.6-0.5,1
				c-0.2-0.1-0.5-0.1-0.7,0.2c-0.1,0.1-1.9-0.6-2.3-0.5c-0.6,0.2-0.8,0.6-1.1,1.1c-1,1.4-3,0.8-3.6,2.6c-0.2,0.7,0.8,0.9,1,0.2
				c0.3-0.9,1.9-0.7,2.6-1.1c0.7-0.4,0.7-1.1,1.5-1.3c1-0.3,2.1,0.9,2.9-0.4c0-0.1,0.1-0.1,0.1-0.2c0.4,0.3,1-0.2,0.8-0.6
				c0,0,0,0,0,0c0.1,0,0.2,0,0.4,0.1c0.3,0,0.5,0.1,0.8,0c0.5-0.1,0.8-0.5,0.8-1C248.6,78.8,247.6,78.8,247.5,79.4z"/>
			<path class="st22" d="M251.4,76.5c-0.2,0.1-0.3,0.5-0.2,0.7c0,0,0,0,0,0.1c0,0,0,0.1,0.1,0.1c0.2,0.3,0.5,0.3,0.7,0.2
				c0.3-0.2,0.4-0.6,0.2-0.9C252.1,76.4,251.7,76.3,251.4,76.5z"/>
		</g>
		<g>
			<path class="st23" d="M279,74.1c-6.1-4.4-17.1-4.2-22.8,1.8c-0.6,0.6,0.6,1.2,1.1,0.6c4.7-4.9,13.6-5.6,19.3-2.5
				c6.3,3.5,7.7,9.9,5.8,15.8c-2,6.1-7.2,11.8-15.8,12.9c-7.8,1.1-14.9-2-18.1-7.1c-3.8-5.9-1.8-13.1,3.4-18.8
				c0.5-0.6-0.6-1.2-1.1-0.6c-5.2,5.6-7.4,12.8-4.2,18.8c2.9,5.5,9.8,9.4,18.1,8.9c4-0.2,8.1-1.4,11.3-3.5c3.5-2.3,5.7-5.5,7.1-8.7
				C285.9,85.6,285.2,78.5,279,74.1z"/>
			<text transform="matrix(0.8485 -0.5292 0.5292 0.8485 253.0909 103.0419)" class="st23 st24 st25">100</text>
		</g>
	</g>
	<g>
		<path class="st2" d="M193.9,118.6c-1,0-2-0.4-2.7-1.2c-0.5-0.6-12.4-14.4-3.2-26.2c1.2-1.6,3.5-1.8,5-0.6c1.6,1.2,1.8,3.5,0.6,5
			c-5.6,7.1,2.8,17,2.9,17c1.3,1.5,1.1,3.8-0.3,5.1C195.6,118.4,194.7,118.6,193.9,118.6z"/>
	</g>
	<g>
		<path d="M158.9,78c-14.4-15.8-37.7-24.1-64-22.8c-20.1,1-38.1,7.6-42.7,15.6c-0.7,1.2-1.2,1.3-1.8,1.3c-0.5,0-1,0-1.7-0.1
			c-0.9-0.1-1.9-0.2-3.2-0.1c-5.1,0.3-10.1,3.2-15.9,9.4c-31.5,33.4-14.4,84.9-14.3,85.4c0.1,0.2,0.1,0.3,0.2,0.4
			c1.4,2,8.4,11.9,11.9,13.6c0.5,0.2,1.1,0.2,1.6-0.1c0.5-0.3,0.8-0.8,0.8-1.4c0.7-13.4,24-28.4,61.6-30.3l0.3,0
			c35.6-1.7,64.4,26.2,64.7,26.5c0.3,0.3,0.8,0.5,1.3,0.5c0,0,0.1,0,0.2,0c0.5-0.1,1-0.4,1.3-0.9c5.4-9.6,11.9-18,14-18.3
			c0.5,0.3,1,0.3,1.5,0c0.5-0.2,0.9-0.8,1-1.3C180.6,121.5,174.9,95.5,158.9,78z"/>
		<path class="st2" d="M157.8,181.9c1.5,32.5-34.9,54-62.5,55.6c-27.3,1.5-65.4-17.6-67.1-49.9l-1.8-41.9c-1.2-27,18.3-49.9,43.2-51
			l38.8-1.7c25-1.1,46.4,20.1,47.6,47L157.8,181.9z"/>
		<path d="M168,108.8c-0.3-1.5-2.5-11.2-12.3-20.2c-9.5-8.6-28.2-18.1-63.4-14.2c-1,0.1-1.7,1-1.6,2c0,0.1,0,0.2,0.1,0.3L39.9,92.5
			c-0.2-0.6-0.7-1.1-1.4-1.2c-1-0.2-1.9,0.4-2.1,1.4c-0.1,0.4-0.4,2.6,1.9,5.6c5.8,7.8,25.9,18.5,88.7,24.7
			c29.8,3,29,34.8,28.5,55.9c-0.2,7.3-0.3,13.1,0.7,16.6c0.7,2.3,2.1,2.9,2.9,3.1c0.3,0.1,0.6,0.1,0.9,0.1c1.4-0.1,3-1,4.6-2.8
			C172.2,186.9,183.8,152.8,168,108.8z"/>
		<path d="M71.4,105.4c0,0-0.1,0-0.3,0L60.5,72.9c0.6-0.2,0.9-0.8,0.8-1.4c-0.1-0.6-0.8-1-1.4-0.9c-0.4,0.1-42.1,10.3-48,62.4
			c-2.6,22.5,14.1,63.5,14.8,65.2c0.2,0.5,0.7,0.8,1.2,0.7c0.1,0,0.1,0,0.2,0c0.6-0.1,1-0.7,0.9-1.3c-7.1-83.4,42.2-89.8,42.7-89.9
			c0.7-0.1,1.1-0.7,1.1-1.3C72.7,105.8,72.1,105.4,71.4,105.4z"/>
		<path d="M91.4,121.6c-0.1-0.1-13.5-5.6-14.6-14.2c0-0.3-0.4-0.6-0.7-0.5c-0.3,0-0.4,0.2-0.5,0.4l-15.4-4c0-0.1,0-0.1,0-0.1
			c0-0.3-0.2-0.6-0.6-0.6c-0.3,0-0.6,0.2-0.6,0.6c0,0.3-0.2,6.8,5.3,12.3c5.5,5.4,14.4,7.8,26.6,7.2c0.1,0,0.2,0,0.3,0
			c0.3,0,0.5-0.2,0.6-0.5C91.8,122,91.7,121.7,91.4,121.6z"/>
		<path class="st1" d="M12.7,124.5c0,0-10.1,27.9-2.1,53.9c0,0,2.1-22.6,6.6-27.5"/>
		<path class="st26" d="M147.5,112.8c-0.2-0.1-0.4-0.1-0.5,0c-0.2,0.1-0.3,0.3-0.3,0.4c-0.6,6-9,12.7-9.1,12.8
			c-0.2,0.2-0.3,0.5-0.1,0.8c0.7,1,4.1,6,6.3,5.9l0,0c2.4-0.2,9.6-10.5,9.5-13.8C153.3,115.3,147.7,112.9,147.5,112.8z"/>
	</g>
	<g>
		<g>
			<path d="M69.8,166.2c0.2,4.2-2.4,7.8-5.7,7.9c-3.3,0.1-6.2-3.2-6.3-7.4c-0.2-4.2,2.4-7.8,5.7-7.9C66.8,158.7,69.6,162,69.8,166.2
				z"/>
			<path class="st4" d="M63.1,162.7c0,1.1-0.8,2.1-1.9,2.1c-1.1,0.1-2.1-0.8-2.1-1.9c0-1.1,0.8-2.1,1.9-2.1
				C62.1,160.7,63,161.6,63.1,162.7z"/>
		</g>
		<path class="st27" d="M44.4,176.1c-4.2,0.2-7.8-2.4-7.9-5.7c-0.1-3.3,3.2-6.2,7.4-6.4c4.2-0.2,7.8,2.4,7.9,5.7
			C51.9,173,48.6,175.9,44.4,176.1z"/>
		<path class="st27" d="M140,171.3c-4.2,0.2-7.8-2.4-7.9-5.7c-0.1-3.3,3.2-6.2,7.4-6.4c4.2-0.2,7.8,2.4,7.9,5.7
			C147.6,168.3,144.2,171.1,140,171.3z"/>
		<path class="st27" d="M96,228.9c-2.8,0.1-5.1-1.5-5.2-3.7c-0.1-2.2,2.1-4.1,4.9-4.2c2.8-0.1,5.1,1.5,5.2,3.7
			C101,226.9,98.8,228.8,96,228.9z"/>
		<g>
			<defs>
				<path id="XMLID_44_" d="M73.5,194.7c0,0,11.5,0.4,21,0c9.5-0.4,15.6-1.1,20-1.8c0.5,12.5-9.2,23-19.9,23.4
					C88.3,216.6,74.2,211.1,73.5,194.7z"/>
			</defs>
			<use xlink:href="#XMLID_44_"  style="overflow:visible;fill:#190A0C;"/>
			<clipPath id="XMLID_4_">
				<use xlink:href="#XMLID_44_"  style="overflow:visible;"/>
			</clipPath>
			<path class="st28" d="M83.7,211.2c0,0-1.2-12.9,10.7-13.4c13.9-0.6,12.3,14.8,12.3,14.8"/>
			<path class="st29" d="M74.6,191.4l1.9,8.6c0,0,7,0.8,18.3,0.2c12.8-0.6,17.8-1.9,17.8-1.9l0.3-17.2L74.6,191.4z"/>
			<path class="st30" d="M73,218.2c0,0,5-13,21.6-13.9c20.7-1.1,23.5,14.3,23.5,14.3"/>
			<path class="st29" d="M113.4,178.8"/>
			
				<use xlink:href="#XMLID_44_"  style="overflow:visible;fill:none;stroke:#F5B886;stroke-width:0.9637;stroke-linecap:round;stroke-linejoin:round;stroke-miterlimit:10;"/>
		</g>
		<g>
			<path d="M47.7,146c-0.1,0-0.3,0-0.4-0.1c-0.2-0.2-0.2-0.5-0.1-0.7c0.3-0.5,6.9-11,15.3-11.5c3.3-0.2,6.3,1.3,9.1,4.2
				c0.1,0.2,0.2,0.4,0.1,0.6c-0.1,0.2-0.3,0.3-0.4,0.3c0,0,0,0,0,0c0,0-0.9,0-2.4,0c-4,0.2-14.2,1.3-20.8,7
				C48,145.9,47.9,146,47.7,146z"/>
			<path class="st27" d="M62.6,134.3c2.8-0.1,5.8,0.9,8.7,4.1c0,0-0.9,0-2.4,0c-4.5,0.2-14.5,1.4-21.1,7.1
				C47.7,145.5,54.4,134.7,62.6,134.3 M62.5,133.2L62.5,133.2c-8.6,0.4-15.4,11.2-15.7,11.7c-0.3,0.4-0.2,1,0.2,1.3
				c0.2,0.2,0.5,0.3,0.7,0.2c0.2,0,0.4-0.1,0.6-0.2c6.5-5.6,16.5-6.7,20.5-6.9c1.4-0.1,2.3,0,2.3,0c0,0,0.1,0,0.1,0
				c0.4,0,0.7-0.3,0.9-0.6c0.2-0.4,0.1-0.8-0.2-1.1C69.1,134.5,65.9,133.1,62.5,133.2L62.5,133.2z"/>
		</g>
		<g>
			<path d="M137.1,144.8c-0.1,0-0.2,0-0.3-0.1c-7.3-5.2-17.7-5.3-21.9-5.1c-1.2,0.1-1.9,0.1-1.9,0.1c0,0,0,0,0,0
				c-0.2,0-0.4-0.1-0.5-0.3c-0.1-0.2-0.1-0.4,0-0.6c2.5-3.2,5.4-4.8,8.6-5c8.4-0.4,16,9.6,16.3,10.1c0.2,0.2,0.1,0.5,0,0.7
				C137.3,144.7,137.2,144.8,137.1,144.8z"/>
			<path class="st27" d="M121.2,134.4c8.2-0.4,15.9,9.9,15.9,9.9c-7.4-5.3-17.9-5.4-22.2-5.2c-1.2,0.1-1.9,0.1-1.9,0.1
				C115.6,135.9,118.4,134.6,121.2,134.4 M121.1,133.4c-3.4,0.2-6.4,1.9-9,5.2c-0.3,0.3-0.3,0.8-0.1,1.2c0.2,0.3,0.6,0.5,1,0.5
				c0,0,0,0,0.1,0c0,0,0.7-0.1,1.8-0.1c4.1-0.2,14.4-0.1,21.5,5c0.2,0.1,0.4,0.2,0.7,0.2c0.3,0,0.5-0.1,0.7-0.3
				c0.4-0.4,0.4-0.9,0.1-1.3C137.6,143.2,129.8,132.9,121.1,133.4L121.1,133.4z"/>
		</g>
		<path class="st27" d="M99.1,181.3c-0.5-0.7-1.1-1.4-1.7-2.1c-0.6-0.7-1.2-1.4-1.8-2l-0.1-0.1c0,0-0.1-0.1-0.2-0.2
			c-0.1-0.1-0.2-0.2-0.2-0.3c-0.1-0.2-0.3-0.5-0.4-0.7c-0.2-0.5-0.3-1.1-0.4-1.6c-0.1-0.6,0-1.2,0-1.8c0.1-0.6,0.2-1.2,0.3-1.9
			l-0.5,0.8c-0.1,0.3-0.3,0.6-0.4,0.9c-0.1,0.3-0.2,0.6-0.3,0.9c-0.1,0.3-0.1,0.7-0.2,1c-0.1,0.7,0,1.4,0.1,2.1
			c0.1,0.3,0.2,0.7,0.3,1c0.1,0.2,0.2,0.3,0.3,0.5c0.1,0.2,0.2,0.3,0.4,0.5l-0.1-0.1c0.4,0.8,0.9,1.5,1.4,2.3c0.3,0.5,0.7,1,1.1,1.6
			c-0.2,0.3-0.3,0.5-0.5,0.8c-0.2,0.5-0.5,1-0.7,1.6c-0.2,0.5-0.4,1.1-0.6,1.7c-0.2,0.6-0.3,1.2-0.4,1.8c0.5-0.4,1-0.8,1.4-1.2
			c0.4-0.4,0.8-0.9,1.2-1.3c0.4-0.4,0.7-0.9,1.1-1.4c0.3-0.5,0.7-1,0.9-1.5l0.4-0.7L99.1,181.3z"/>
		<g>
			<path d="M70,158c-2.6-3.1-6.4-4.8-10.5-4.6c0,0-0.1,0-0.1,0c-3.4,0.2-6.6,1.7-8.9,4.2c-2.3,2.6-3.6,5.9-3.4,9.4
				c0,0.7,0.6,1.2,1.2,1.1c0,0,0,0,0,0c0.7,0,1.2-0.6,1.1-1.2c-0.1-2.8,0.9-5.5,2.8-7.6c1.9-2.1,4.5-3.3,7.4-3.4
				c3.3-0.1,6.4,1.2,8.6,3.7c0.4,0.5,1.2,0.6,1.7,0.1C70.4,159.2,70.4,158.5,70,158z"/>
			<path d="M43.4,159.7c0,0,0.5,0.4,1.1,1c0.3,0.3,0.6,0.5,0.9,0.8c0.1,0.1,0.3,0.2,0.4,0.3c0.2,0.1,0.3,0.2,0.4,0.2
				c0.1,0.1,0.3,0.1,0.4,0.2c0.1,0.1,0.3,0.1,0.5,0.1c0.2,0,0.4,0,0.5,0c0.2,0,0.4,0,0.6,0c0.4,0,0.7-0.1,1,0c0.3,0,0.4,0,0.4,0
				s-0.1,0.2-0.2,0.4c-0.1,0.2-0.3,0.6-0.7,0.9c-0.2,0.2-0.4,0.3-0.6,0.5c-0.3,0.1-0.5,0.3-0.9,0.3c-0.3,0-0.7,0.1-1.1,0.1
				c-0.2,0-0.4-0.1-0.6-0.1c-0.2-0.1-0.4-0.1-0.5-0.2c-0.4-0.2-0.6-0.4-0.9-0.6c-0.2-0.3-0.5-0.5-0.6-0.8c-0.3-0.5-0.4-1.1-0.5-1.5
				C43.1,160.3,43.4,159.7,43.4,159.7z"/>
			<path d="M42.9,164c0,0,0.5,0.2,1.1,0.5c0.3,0.1,0.6,0.3,0.9,0.4c0.1,0,0.3,0.1,0.4,0.1c0.1,0,0.2,0,0.3,0c0.1,0,0.2,0,0.3,0
				c0.1,0,0.2,0,0.4,0c0.1,0,0.3,0,0.4-0.1c0.1,0,0.3-0.1,0.5-0.1c0.3,0,0.6-0.1,0.8-0.2c0.2,0,0.4,0,0.4,0s0,0.1,0,0.4
				c-0.1,0.2-0.1,0.6-0.3,0.9c-0.1,0.2-0.2,0.4-0.4,0.5c-0.2,0.2-0.4,0.3-0.6,0.5c-0.2,0.2-0.5,0.3-0.8,0.3c-0.3,0-0.7,0.1-1,0
				c-0.3,0-0.7-0.2-0.9-0.3c-0.3-0.1-0.5-0.3-0.7-0.5c-0.4-0.4-0.6-0.8-0.7-1.2C42.7,164.5,42.9,164,42.9,164z"/>
		</g>
		<g>
			<path d="M114.4,164c0.2,4.2,3.1,7.5,6.4,7.3c3.3-0.2,5.8-3.8,5.6-8c-0.2-4.2-3.1-7.5-6.4-7.3C116.6,156.2,114.1,159.8,114.4,164z
				"/>
			<path class="st4" d="M120.7,159.8c0.1,1.1,1,2,2.1,1.9c1.1-0.1,2-1,1.9-2.1c-0.1-1.1-1-2-2.1-1.9
				C121.5,157.7,120.7,158.7,120.7,159.8z"/>
		</g>
		<g>
			<path d="M132.8,153.5c-2.6-2.3-5.9-3.5-9.3-3.3c0,0-0.1,0-0.1,0c-4,0.2-7.7,2.3-10,5.6c-0.4,0.5-0.2,1.3,0.3,1.7
				c0.5,0.4,1.3,0.2,1.7-0.3c1.9-2.7,4.9-4.4,8.2-4.6c0,0,0,0,0.1,0c2.8-0.1,5.5,0.8,7.6,2.7c2.1,1.9,3.4,4.5,3.5,7.3
				c0,0.7,0.6,1.2,1.3,1.1c0,0,0,0,0,0c0.7,0,1.2-0.6,1.1-1.3C136.9,159,135.4,155.8,132.8,153.5z"/>
			<path d="M140.1,154.9c0,0-0.5,0.5-1,1.1c-0.3,0.3-0.5,0.6-0.8,0.9c-0.1,0.2-0.3,0.3-0.4,0.4c-0.1,0.1-0.3,0.2-0.4,0.3
				c-0.1,0.1-0.3,0.1-0.4,0.2c-0.1,0.1-0.3,0.1-0.4,0.2c-0.2,0-0.4,0.1-0.5,0.1c-0.2,0-0.4,0-0.6,0c-0.4,0.1-0.7,0-1,0
				c-0.3,0-0.4,0-0.4,0s0.1,0.1,0.2,0.4c0.2,0.2,0.4,0.6,0.8,0.8c0.2,0.1,0.4,0.3,0.7,0.4c0.3,0.1,0.6,0.2,0.9,0.3
				c0.3,0,0.7,0.1,1.1,0c0.2,0,0.4-0.1,0.5-0.2c0.2-0.1,0.3-0.2,0.5-0.3c0.3-0.2,0.6-0.5,0.8-0.7c0.2-0.3,0.4-0.5,0.5-0.8
				c0.3-0.6,0.3-1.1,0.3-1.6C140.4,155.5,140.1,154.9,140.1,154.9z"/>
			<path d="M140.9,159.1c0,0-0.5,0.3-1,0.6c-0.3,0.1-0.6,0.3-0.8,0.4c-0.1,0.1-0.3,0.1-0.3,0.1c-0.1,0-0.2,0.1-0.3,0.1
				c-0.1,0.1-0.2,0-0.3,0.1c-0.1,0-0.2,0-0.4,0c-0.1,0-0.3,0-0.5,0c-0.2,0-0.3,0-0.5,0c-0.3,0-0.6-0.1-0.8-0.1c-0.2,0-0.4,0-0.4,0
				s0,0.1,0.1,0.4c0.1,0.2,0.2,0.6,0.4,0.9c0.1,0.2,0.3,0.3,0.4,0.5c0.2,0.2,0.4,0.3,0.6,0.4c0.2,0.1,0.5,0.2,0.8,0.3
				c0.3,0,0.7,0,1-0.1c0.3-0.1,0.6-0.2,0.9-0.4c0.3-0.2,0.5-0.4,0.6-0.6c0.3-0.4,0.5-0.9,0.5-1.3
				C141.2,159.6,140.9,159.1,140.9,159.1z"/>
		</g>
	</g>
	<path id="XMLID_122_" class="st31" d="M47.7,344.7l-5.6,144.9c0,0,33,4,54.3,4s58.5-4,58.5-4l-11.7-144.8c0,0-13,2.7-47,2.7
		C62.2,347.4,47.7,344.7,47.7,344.7z"/>
	<path id="XMLID_123_" class="st32" d="M47.7,344.7l-0.6,7.5c0,0,30.3,2.9,49,3.3s47.7-2.6,47.7-2.6l-0.7-8.2c0,0-13,2.7-47,2.7
		C62.2,347.4,47.7,344.7,47.7,344.7z"/>
</g>
</svg>
