<?xml version="1.0" encoding="utf-8"?>
<!-- Generator: Adobe Illustrator 22.0.0, SVG Export Plug-In . SVG Version: 6.00 Build 0)  -->
<svg version="1.1" id="Layer_1" xmlns="http://www.w3.org/2000/svg" xmlns:xlink="http://www.w3.org/1999/xlink" x="0px" y="0px"
	 viewBox="0 0 712 439.6" style="enable-background:new 0 0 712 439.6;" xml:space="preserve">
<style type="text/css">
	.st0{opacity:0.3;}
	.st1{fill:#FFFFFF;}
	.st2{fill:#4369AE;}
	.st3{fill:none;stroke:#FA373C;stroke-width:2.2323;stroke-linecap:round;stroke-linejoin:round;stroke-miterlimit:10;}
	.st4{fill:#2F2030;}
	.st5{fill:none;stroke:#362337;stroke-width:2.2323;stroke-linecap:round;stroke-linejoin:round;stroke-miterlimit:10;}
	.st6{fill:none;stroke:#362337;stroke-width:4.0182;stroke-linecap:round;stroke-linejoin:round;stroke-miterlimit:10;}
	.st7{fill:none;stroke:#2F2030;stroke-width:3.1253;stroke-linecap:round;stroke-linejoin:round;stroke-miterlimit:10;}
	.st8{opacity:0.7;}
	.st9{fill:none;stroke:#2F2030;stroke-width:2.3561;stroke-linecap:round;stroke-linejoin:round;stroke-miterlimit:10;}
	.st10{opacity:0.85;fill:#806B8B;}
	.st11{fill:#379184;}
	.st12{fill:#45303D;}
	.st13{opacity:0.7;fill:#806B8B;}
	.st14{fill:#FA373C;}
	.st15{fill:#FCF280;}
	.st16{opacity:0.4;fill:#8A8DB8;}
	.st17{fill:#F9BE11;}
	.st18{fill:#DD7203;}
	.st19{fill:#429E5D;}
	.st20{fill:#56B275;}
	.st21{fill:#CDECE7;}
	.st22{fill:#F6EED4;}
	.st23{fill:#F93627;}
	.st24{opacity:0.6;fill:#516C15;}
	.st25{fill:#ABCF12;}
	.st26{fill:#362337;}
	.st27{fill:#FFC310;}
	.st28{fill:#43484B;}
	.st29{fill:#D2E5DE;}
	.st30{fill:#A13A20;}
	.st31{fill:#C54933;}
	.st32{fill:#493748;}
	.st33{fill:#EB6754;}
	.st34{fill:#B70F0C;}
	.st35{fill:#F92324;}
	.st36{fill:#C9EAE8;}
	.st37{fill:#235761;}
	.st38{fill:#6DB05B;}
	.st39{fill:#FADB2A;}
	.st40{fill:#8B2B46;}
	.st41{clip-path:url(#XMLID_2_);fill:#F5B886;}
	.st42{fill:#F5B886;}
	.st43{fill:#F9ED13;}
	.st44{clip-path:url(#XMLID_3_);fill:#EA404F;}
	.st45{clip-path:url(#XMLID_3_);fill:#EE7D63;}
	.st46{fill:#FFFFFF;stroke:#333333;stroke-width:1.1595;stroke-linecap:round;stroke-linejoin:round;stroke-miterlimit:10;}
	.st47{fill:#FFFFFF;stroke:#333333;stroke-width:1.296;stroke-linecap:round;stroke-linejoin:round;stroke-miterlimit:10;}
	.st48{stroke:#000000;stroke-width:3.4075;stroke-linecap:round;stroke-linejoin:round;stroke-miterlimit:10;}
	.st49{stroke:#000000;stroke-width:3.5859;stroke-linecap:round;stroke-linejoin:round;stroke-miterlimit:10;}
	.st50{fill:#EE7D63;}
	.st51{clip-path:url(#XMLID_4_);fill:#EE7D63;}
	.st52{fill:#FCF1BB;}
	.st53{fill:#EA404F;stroke:#F5B886;stroke-width:1.0715;stroke-linecap:round;stroke-linejoin:round;stroke-miterlimit:10;}
	.st54{fill:none;stroke:#000000;stroke-width:2.4664;stroke-linecap:round;stroke-linejoin:round;stroke-miterlimit:10;}
	.st55{stroke:#000000;stroke-width:3.6996;stroke-linecap:round;stroke-linejoin:round;stroke-miterlimit:10;}
	.st56{fill:#DF2D69;stroke:#DF2D69;stroke-width:1.1718;stroke-linecap:round;stroke-linejoin:round;stroke-miterlimit:10;}
	.st57{stroke:#000000;stroke-width:2.4664;stroke-linecap:round;stroke-linejoin:round;stroke-miterlimit:10;}
	.st58{stroke:#000000;stroke-width:1.2332;stroke-linecap:round;stroke-linejoin:round;stroke-miterlimit:10;}
	.st59{stroke:#000000;stroke-width:3.4588;stroke-linecap:round;stroke-linejoin:round;stroke-miterlimit:10;}
	.st60{fill:#F6306E;}
	.st61{fill:#F7FC84;}
	.st62{fill:#521A17;}
	.st63{fill:#FDF4BE;}
	.st64{fill:#0F1A27;}
	.st65{fill:none;stroke:#5A415C;stroke-width:7.6228;stroke-linecap:round;stroke-linejoin:round;stroke-miterlimit:10;}
	.st66{fill:none;stroke:#B2D3D1;stroke-width:7.6228;stroke-linecap:round;stroke-linejoin:round;stroke-miterlimit:10;}
	.st67{fill:#422E44;}
	.st68{fill:#DA285A;}
	.st69{fill:none;stroke:#C8EAE9;stroke-width:7.6228;stroke-linecap:round;stroke-linejoin:round;stroke-miterlimit:10;}
	.st70{fill:#2F2030;stroke:#5A415C;stroke-width:6.1701;stroke-linecap:round;stroke-linejoin:round;stroke-miterlimit:10;}
	.st71{fill:#F13363;}
	.st72{fill:none;stroke:#FFFFFF;stroke-width:4.636;stroke-linecap:round;stroke-miterlimit:10;}
	.st73{fill:none;stroke:#BC1200;stroke-width:4.636;stroke-linecap:round;stroke-miterlimit:10;}
	.st74{fill:#50AAB4;}
	.st75{fill:#3558A6;stroke:#3558A6;stroke-width:2;stroke-linecap:round;stroke-linejoin:round;stroke-miterlimit:10;}
	.st76{clip-path:url(#XMLID_5_);fill:#EA404F;}
	.st77{clip-path:url(#XMLID_5_);fill:#EE7D63;}
	.st78{fill:#FFFFFF;stroke:#333333;stroke-width:1.2786;stroke-linecap:round;stroke-linejoin:round;stroke-miterlimit:10;}
	.st79{fill:#FFFFFF;stroke:#333333;stroke-width:1.4291;stroke-linecap:round;stroke-linejoin:round;stroke-miterlimit:10;}
	.st80{stroke:#000000;stroke-width:3.9543;stroke-linecap:round;stroke-linejoin:round;stroke-miterlimit:10;}
	.st81{clip-path:url(#XMLID_6_);fill:#EE7D63;}
	.st82{fill:none;stroke:#000000;stroke-width:2.7197;stroke-linecap:round;stroke-linejoin:round;stroke-miterlimit:10;}
	.st83{stroke:#000000;stroke-width:4.0796;stroke-linecap:round;stroke-linejoin:round;stroke-miterlimit:10;}
	.st84{stroke:#000000;stroke-width:2.7197;stroke-linecap:round;stroke-linejoin:round;stroke-miterlimit:10;}
	.st85{stroke:#000000;stroke-width:1.3599;stroke-linecap:round;stroke-linejoin:round;stroke-miterlimit:10;}
	.st86{fill:none;stroke:#F5B886;stroke-width:2.7197;stroke-linecap:round;stroke-linejoin:round;stroke-miterlimit:10;}
	.st87{fill:#999999;stroke:#999999;stroke-width:3;stroke-linecap:round;stroke-linejoin:round;stroke-miterlimit:10;}
	.st88{fill:#E5E5E5;stroke:#E5E5E5;stroke-width:3;stroke-linecap:round;stroke-linejoin:round;stroke-miterlimit:10;}
	.st89{fill:#0B0F1F;}
	.st90{fill:#9BCB2F;}
	.st91{fill:none;stroke:#4B771B;stroke-width:2.8799;stroke-linecap:round;stroke-linejoin:round;stroke-miterlimit:10;}
	.st92{fill:none;stroke:#070606;stroke-width:2.8799;stroke-linecap:round;stroke-linejoin:round;stroke-miterlimit:10;}
	.st93{fill:#9DC7DF;stroke:#4B771B;stroke-width:2.8799;stroke-linecap:round;stroke-linejoin:round;stroke-miterlimit:10;}
	.st94{fill:#851A14;}
	.st95{fill:#A82621;}
	.st96{fill:#580F13;}
	.st97{fill:#BA4136;}
	.st98{fill:#E0A681;}
	.st99{fill:#FEE9C8;}
	.st100{fill:#8A5940;}
	.st101{fill:#C0C9C6;}
	.st102{fill:#FC2827;}
	.st103{fill:#F3181B;}
	.st104{fill:#D4E2DF;}
	.st105{fill:#F87AA4;}
	.st106{fill:#33127D;}
	.st107{fill:#C5934A;}
	.st108{fill:#F8DC33;}
	.st109{fill:#264852;}
	.st110{fill:#F42D2E;}
</style>
<g>
	<g>
		<g class="st0">
			<path d="M452.1,88c0,7.2-5.9,13.1-13.1,13.1h-63.5c-7.2,0-13.1-5.9-13.1-13.1V26.7c0-7.2,5.9-13.1,13.1-13.1h63.5
				c7.2,0,13.1,5.9,13.1,13.1V88z"/>
		</g>
		<g>
			<path class="st1" d="M368.8,92.4c-6,0-10.9-4.9-10.9-10.9V20.2c0-6,4.9-10.9,10.9-10.9h63.5c6,0,10.9,4.9,10.9,10.9v61.3
				c0,6-4.9,10.9-10.9,10.9H368.8z"/>
			<g>
				<path class="st1" d="M432.1,9.2h-63.5c-6,0-10.9,4.9-10.9,10.9v61.3c0,6,4.9,10.9,10.9,10.9h63.5c6,0,10.9-4.9,10.9-10.9V20.2
					C443.1,14.1,438.2,9.2,432.1,9.2L432.1,9.2z"/>
			</g>
			<path class="st2" d="M432.4,12.7c4.1,0,7.4,3.3,7.4,7.4v61.3c0,4.1-3.3,7.4-7.4,7.4h-63.5c-4.1,0-7.4-3.3-7.4-7.4V20.2
				c0-4.1,3.3-7.4,7.4-7.4H432.4 M432.4,7h-63.5c-7.2,0-13.1,5.9-13.1,13.1v61.3c0,7.2,5.9,13.1,13.1,13.1h63.5
				c7.2,0,13.1-5.9,13.1-13.1V20.2C445.5,12.9,439.6,7,432.4,7L432.4,7z"/>
		</g>
		<line class="st3" x1="400.4" y1="50.6" x2="395.2" y2="72.2"/>
		<path class="st4" d="M397.8,50.6c0-1.4,1.2-2.6,2.6-2.6c1.4,0,2.6,1.2,2.6,2.6c0,1.4-1.2,2.6-2.6,2.6
			C398.9,53.2,397.8,52.1,397.8,50.6z"/>
		<line class="st5" x1="400.4" y1="50.6" x2="417" y2="35.9"/>
		<line class="st6" x1="400.5" y1="50.6" x2="392.6" y2="39.7"/>
		<g>
			<line class="st7" x1="400.3" y1="24.4" x2="401.2" y2="24.4"/>
			<line class="st7" x1="384.9" y1="24.4" x2="385.8" y2="24.4"/>
			<line class="st7" x1="373.1" y1="35.8" x2="373.1" y2="34.9"/>
			<line class="st7" x1="373.1" y1="51.7" x2="373.1" y2="50.8"/>
			<line class="st7" x1="373.1" y1="66.6" x2="373.1" y2="65.7"/>
			<line class="st7" x1="386.1" y1="76.8" x2="385.1" y2="76.8"/>
			<line class="st7" x1="400.7" y1="76.8" x2="399.9" y2="76.8"/>
			<line class="st7" x1="415.5" y1="76.8" x2="414.5" y2="76.8"/>
			<line class="st7" x1="427.7" y1="66.3" x2="427.7" y2="67.2"/>
			<line class="st7" x1="427.7" y1="50.3" x2="427.7" y2="51.2"/>
			<line class="st7" x1="427.7" y1="34.8" x2="427.7" y2="35.7"/>
			<line class="st7" x1="414.3" y1="24.4" x2="415.2" y2="24.4"/>
		</g>
		<g class="st8">
			<path class="st9" d="M368.6,84.3c-1.6,0-2.9-1.3-2.9-2.9V20.2c0-1.6,1.3-2.9,2.9-2.9h63.5c1.6,0,2.9,1.3,2.9,2.9v61.3
				c0,1.6-1.3,2.9-2.9,2.9H368.6z"/>
		</g>
		<path class="st10" d="M432.1,9.2h-63.5c-6,0-10.9,4.9-10.9,10.9v61.3c0,6,4.9,10.9,10.9,10.9h63.5c6,0,10.9-4.9,10.9-10.9V20.2
			C443.1,14.1,438.2,9.2,432.1,9.2z M440,86.8c0,1.6-1.3,2.9-2.9,2.9h-64c-1.6,0-2.9-1.3-2.9-2.9V24.6c0-1.6,1.3-2.9,2.9-2.9h67.1
			c1.6,0,2.9,1.3,2.9,2.9L440,86.8z"/>
		<path class="st11" d="M432.4,6.1h-63.5c-7.7,0-14,6.3-14,14v61.3c0,7.7,6.3,14,14,14h63.5c7.7,0,14-6.3,14-14V20.2
			C446.4,12.4,440.1,6.1,432.4,6.1z M438.9,81.4c0,3.6-2.9,6.5-6.5,6.5h-63.5c-3.6,0-6.5-2.9-6.5-6.5V20.2c0-3.6,2.9-6.6,6.5-6.6
			h63.5c3.6,0,6.5,2.9,6.5,6.6V81.4z"/>
	</g>
	<g>
		<g class="st0">
			<path d="M495.4,163.4c-2.4,0.1-4,2-3.5,4.4l6.2,31.8c0.5,2.4,2.8,4.3,5.2,4.3h204.6c2.4,0,3.9-1.9,3.4-4.3l-8.1-36.3
				c-0.5-2.4-2.9-4.2-5.3-4.2L495.4,163.4z"/>
		</g>
		<g>
			<path class="st12" d="M691.9,173c0,0.8-0.6,1.4-1.4,1.4h-5.4c-0.8,0-1.4-0.6-1.4-1.4v-4.5c0-0.8,0.6-1.4,1.4-1.4h5.4
				c0.8,0,1.4,0.6,1.4,1.4V173z"/>
		</g>
		<g>
			<path class="st12" d="M506.6,173c0,0.8-0.6,1.4-1.4,1.4h-5.4c-0.8,0-1.4-0.6-1.4-1.4v-4.5c0-0.8,0.6-1.4,1.4-1.4h5.4
				c0.8,0,1.4,0.6,1.4,1.4V173z"/>
		</g>
		<polygon class="st13" points="620.7,113.4 613.3,162.5 696.8,160.3 691.2,129.8 690.4,132.8 682,92.3 677.6,113.4 		"/>
		<polygon class="st13" points="535.4,88.9 536,161.4 612,160.9 589.3,76.1 574.6,92.3 560,87 551.6,91.4 		"/>
		<polygon class="st13" points="519.2,161.4 527,160.9 538.3,129.8 523.9,76.1 509.2,92.3 		"/>
		<g>
			<g>
				<rect x="611.3" y="88.5" class="st14" width="70.7" height="19.6"/>
				<rect x="672.9" y="88.4" class="st15" width="3.9" height="19.7"/>
				<rect x="618.7" y="88.4" class="st15" width="3.9" height="19.7"/>
				<rect x="611.3" y="102.3" class="st16" width="70.7" height="5.9"/>
			</g>
			<rect x="610.1" y="147.3" class="st17" width="75" height="11.7"/>
			<rect x="610.1" y="147.3" class="st18" width="75" height="2.7"/>
			<rect x="613.8" y="108.2" class="st4" width="65.7" height="18.5"/>
			<g>
				<rect x="610.1" y="126.7" class="st19" width="75" height="20.6"/>
				<rect x="610.1" y="126.7" class="st20" width="75" height="3.7"/>
			</g>
			<g>
				<path class="st21" d="M657.4,115.8c0.4,0,0.8,0.4,0.8,0.8v1.7c0,0.4-0.4,0.8-0.8,0.8h-36.5c-0.4,0-0.8-0.4-0.8-0.8v-1.7
					c0-0.4,0.4-0.8,0.8-0.8H657.4z"/>
			</g>
			<g>
				<path class="st21" d="M670,115.1c0.6,0,1.1,0.5,1.1,1.1v2.4c0,0.6-0.5,1.1-1.1,1.1h-2.8c-0.6,0-1.1-0.5-1.1-1.1v-2.4
					c0-0.6,0.5-1.1,1.1-1.1H670z"/>
			</g>
			<g>
				<path class="st22" d="M616.4,128.7c0.7,0,1.2,0.6,1.2,1.2v14.2c0,0.7-0.6,1.2-1.2,1.2h-0.6c-0.7,0-1.2-0.6-1.2-1.2v-14.2
					c0-0.7,0.6-1.2,1.2-1.2H616.4z"/>
			</g>
			<g>
				<path class="st22" d="M621,128.7c0.7,0,1.2,0.6,1.2,1.2v14.2c0,0.7-0.6,1.2-1.2,1.2h-0.6c-0.7,0-1.2-0.6-1.2-1.2v-14.2
					c0-0.7,0.6-1.2,1.2-1.2H621z"/>
			</g>
		</g>
		<g>
			<g>
				<g>
					<g>
						<rect x="567.8" y="76.1" class="st23" width="21.5" height="83.1"/>
						<polygon class="st24" points="579.3,159.2 567.9,76.1 567.9,76.1 567.9,159.2 						"/>
						<rect x="505.2" y="76.1" class="st25" width="19.2" height="83.1"/>
					</g>
					<path class="st26" d="M578.1,135.7c-2,0-3.6,1.6-3.6,3.6s1.6,3.6,3.6,3.6s3.6-1.6,3.6-3.6S580.1,135.7,578.1,135.7z"/>
					<rect x="546.4" y="76.1" class="st27" width="21.5" height="83.1"/>
					<path class="st26" d="M556.8,135.5c-2,0-3.6,1.6-3.6,3.6c0,2,1.6,3.6,3.6,3.6s3.6-1.6,3.6-3.6
						C560.3,137.1,558.8,135.5,556.8,135.5z"/>
					<g>
						<rect x="510.1" y="87.6" class="st1" width="9.5" height="36.8"/>
						<rect x="510.1" y="121.6" class="st26" width="9.5" height="4.1"/>
						<rect x="510.1" y="87.1" class="st26" width="9.5" height="4.1"/>
					</g>
					<g>
						<rect x="552.4" y="87.6" class="st1" width="9.5" height="36.8"/>
						<rect x="552.4" y="121.6" class="st26" width="9.5" height="4.1"/>
						<rect x="552.4" y="87.1" class="st26" width="9.5" height="4.1"/>
					</g>
					<g>
						<rect x="573.8" y="87.6" class="st1" width="9.5" height="36.8"/>
						<rect x="573.8" y="121.6" class="st26" width="9.5" height="4.1"/>
						<rect x="573.8" y="87.1" class="st26" width="9.5" height="4.1"/>
					</g>
					<path class="st26" d="M515.6,134.2c-2,0-3.6,1.6-3.6,3.6c0,2,1.6,3.6,3.6,3.6c2,0,3.6-1.6,3.6-3.6
						C519.2,135.8,517.6,134.2,515.6,134.2z"/>
				</g>
				<g>
					<polygon class="st28" points="524.8,157.8 538.5,159.3 546,87 543,86.7 543,86.7 535.3,85.8 535.3,85.8 532.3,85.5 					"/>
					<polygon class="st22" points="543,86.7 535.5,159 527.8,158.1 535.3,85.8 					"/>
				</g>
				<polygon class="st29" points="539,159.2 539,159.2 528.4,159.2 528.4,159.2 				"/>
			</g>
		</g>
		<rect x="684.7" y="129.4" class="st30" width="6.4" height="31"/>
		<rect x="499.3" y="129.4" class="st31" width="6.4" height="31"/>
		<rect x="486.2" y="159" class="st31" width="216.1" height="9.3"/>
		<rect x="613.8" y="108.2" class="st32" width="65.7" height="3.2"/>
		<polygon class="st13" points="691,129.4 691,150 684.7,150 684.7,147.3 684.7,129.4 		"/>
		<polygon class="st33" points="523.2,159 525.7,167.9 647.3,167.9 644.7,159 		"/>
	</g>
	<g>
		<path class="st34" d="M246.2,285.5c0-31.2,25.5-56.7,56.7-56.7h62.6c31.2,0,56.7,25.5,56.7,56.7v87.5c0,31.2-25.5,56.7-56.7,56.7
			h-62.6c-31.2,0-56.7-25.5-56.7-56.7V285.5z"/>
		<path class="st35" d="M422.3,276.1v87.5c0,31.2-25.5,56.7-56.7,56.7h-62.6c-31.2,0-56.7-25.5-56.7-56.7v-87.5
			c0-31.2,25.5-56.7,56.7-56.7h62.6C396.7,219.4,422.3,244.9,422.3,276.1z"/>
	</g>
	<g>
		<path class="st0" d="M275.3,209.4H73.5V16.1h201.8V209.4z"/>
		<g>
			<rect x="68" y="9.5" class="st36" width="195.1" height="186.6"/>
			<polygon class="st37" points="183.9,135.3 114.6,98.5 69.4,119.7 68,196.1 176.8,184.8 			"/>
			<polygon class="st38" points="263.1,196.1 68,196.1 210.8,83 260.3,128.2 			"/>
			<path class="st39" d="M172.6,57.5c0,10.9-8.9,19.8-19.8,19.8c-10.9,0-19.8-8.9-19.8-19.8c0-10.9,8.9-19.8,19.8-19.8
				C163.7,37.7,172.6,46.6,172.6,57.5z"/>
			<path class="st40" d="M266.4,199.4H64.7V6.1h201.8V199.4z M71.3,192.7h188.4V12.8H71.3V192.7z"/>
		</g>
		<path class="st1" d="M253.1,19.5v166.6H78V19.5H253.1L253.1,19.5z M259.7,12.8H71.3v179.9h188.4V12.8L259.7,12.8z"/>
	</g>
	<g>
		<g>
			<defs>
				<path id="XMLID_68_" d="M258.5,361.5c0,0-19,35.9-35.1,26.2c-16.1-9.7,6.7-43.3,6.7-43.3s7,1.6,15.4,6.7
					C253.8,356.1,258.5,361.5,258.5,361.5z"/>
			</defs>
			<use xlink:href="#XMLID_68_"  style="overflow:visible;fill:#FCF1BB;"/>
			<clipPath id="XMLID_2_">
				<use xlink:href="#XMLID_68_"  style="overflow:visible;"/>
			</clipPath>
			<path class="st41" d="M223.9,345.1c0,0-4.2,6,2.5,7.3c3.3,0.6-2,8.4-2,8.4s0.7,5.4,18.9,8.8c18.2,3.4,17.9-26.1,17.9-26.1"/>
		</g>
		<path id="XMLID_67_" class="st42" d="M230.5,351.4c0,0,21.5,32.4,2.8,34.2c-25.9,2.6-37.4-42.1-37.4-42.1L230.5,351.4z"/>
		<path class="st1" d="M227.8,344.4c0,0,24.4-43.3,43.9-30.9c19.4,12.4-9.6,52.8-9.6,52.8s-8.5-2.2-18.6-8.7
			C233.3,351.1,227.8,344.4,227.8,344.4z"/>
		<path id="XMLID_66_" class="st42" d="M345.8,361.3c0,0,22.7,28.8,35.4,17.6c12.8-11.2-12.9-37.4-12.9-37.4s-5.9,2.6-12.6,8.4
			C349,355.8,345.8,361.3,345.8,361.3z"/>
		<path class="st1" d="M371,342.3c0,0-31.8-38.3-48.7-22.6c-16.9,15.7,18.9,50.3,18.9,50.3s7.9-3.7,16.8-11.9
			C366.7,349.9,371,342.3,371,342.3z"/>
		<path class="st43" d="M249.4,406.5c0,14.9,12.2,27.1,27.1,27.1h44.2c14.9,0,27.1-12.2,27.1-27.1v-65.8c0-14.9-12.2-27.1-27.1-27.1
			h-44.2c-14.9,0-27.1,12.2-27.1,27.1V406.5z"/>
		<g>
			<defs>
				<rect id="XMLID_65_" x="285.7" y="293.8" width="25.9" height="39.5"/>
			</defs>
			<use xlink:href="#XMLID_65_"  style="overflow:visible;fill:#F5B886;"/>
			<clipPath id="XMLID_3_">
				<use xlink:href="#XMLID_65_"  style="overflow:visible;"/>
			</clipPath>
			<path class="st44" d="M277.9,288.5c0,0-2.2,23.6,20.8,23.1c23.1-0.5,19.8-24,19.8-24s-8.4-1.1-20.4-0.8
				C286.2,287.1,277.9,288.5,277.9,288.5z"/>
			<path class="st45" d="M277.9,288.5c0,0-2.2,23.6,20.8,23.1c23.1-0.5,19.8-24,19.8-24s-8.4-1.1-20.4-0.8
				C286.2,287.1,277.9,288.5,277.9,288.5z"/>
		</g>
		<rect x="283.4" y="319.4" class="st43" width="30.5" height="30.5"/>
		<polygon class="st46" points="301.7,319.4 318.3,304.3 325.2,313.5 307.5,336.4 		"/>
		<polygon class="st47" points="301.4,319.4 280.8,304.3 272.2,313.5 294.2,336.4 		"/>
		<g>
			<path class="st48" d="M256.5,141.8c0,0-42.6-1.6-47.5,52c-4.2,46.1,15.6,135.1,38.2,132c0,0-14,28.7,28.4,26.7
				c0,0-6.3-6.6-1.2-11.6c7.1-7.1,3.6-15.3-2.4-19.3c-4.6-3.1,0.2-8.9,0.2-8.9s7.8-5.9-3.5-16.4"/>
			<path class="st49" d="M297.6,215.4c38-1,65.8,12,67.9,28c3.3-1.8,10.6-14.2,10.6-14.2s7.9-43.5-22.4-79.2
				c-27.5-32.5-86.3-31.7-110.8,3.8c-21.8-1.3-39.8,23.9-22.8,79.6c3.9-2.9,11.8,14.8,11.8,14.8S259.6,216.4,297.6,215.4z"/>
			<path id="XMLID_64_" class="st50" d="M352.7,232.6c0,0,2.3-16.7,17.2-10.2c18.6,8.1,0.3,45.2-13.8,35.7"/>
			<g>
				<defs>
					<path id="XMLID_63_" d="M235.9,235.9c0,0-3.3-16.5-17.8-9.1c-18.1,9.2,2.4,45.1,16,34.8"/>
				</defs>
				<use xlink:href="#XMLID_63_"  style="overflow:visible;fill:#FCF1BB;"/>
				<clipPath id="XMLID_4_">
					<use xlink:href="#XMLID_63_"  style="overflow:visible;"/>
				</clipPath>
				<path class="st51" d="M237.5,238.3c0,0-3-11.6-14.4-6.3c-14.3,6.6,2.9,31.7,13.5,24.4"/>
			</g>
			<path class="st52" d="M232.4,256.2c1,33.6,40,52.9,68.5,52.4c28.2-0.5,65.9-23.1,65.2-56.4l-1.3-43.2
				c-0.8-27.8-22.6-50-48.4-49.2l-40,1.2c-25.8,0.8-46.2,24.2-45.3,52L232.4,256.2z"/>
			<g>
				<path d="M330.6,235.5c0.1,4.4,3,7.8,6.4,7.7c3.4-0.1,6.1-3.7,6-8.1c-0.1-4.4-3-7.8-6.4-7.7C333.1,227.5,330.4,231.1,330.6,235.5
					z"/>
				<path class="st1" d="M337.2,231.3c0,1.2,1,2.1,2.2,2c1.2,0,2.1-1,2-2.2c0-1.2-1-2.1-2.2-2C338.1,229.2,337.2,230.1,337.2,231.3z
					"/>
			</g>
			<path class="st42" d="M351.4,245c4.4-0.1,7.8-3,7.7-6.5c-0.1-3.4-3.7-6.1-8.1-6c-4.4,0.1-7.8,3-7.7,6.5
				C343.4,242.5,347,245.2,351.4,245z"/>
			<path class="st53" d="M300.7,276.9c-0.1,3.6,2.2,6.6,5.1,6.7c2.9,0.1,5.2-2.9,5.3-6.5c0.1-3.7-2.2-6.6-5.1-6.7
				C303.1,270.3,300.7,273.2,300.7,276.9z"/>
			<path class="st42" d="M252.8,253.3c4.4-0.1,7.8-3,7.7-6.5c-0.1-3.4-3.7-6.1-8.1-6c-4.4,0.1-7.8,3-7.7,6.5
				C244.8,250.7,248.4,253.4,252.8,253.3z"/>
			<path class="st42" d="M306,296.5c2.9-0.1,5.1-2,5.1-4.2c-0.1-2.3-2.5-4-5.3-3.9c-2.9,0.1-5.1,2-5.1,4.2
				C300.7,294.9,303.1,296.6,306,296.5z"/>
			<g>
				<path d="M345.6,214.4c-0.1,0-0.2,0-0.3-0.1c-6.6-4.9-15.9-5.6-20.8-5.6c-2.2,0-3.6,0.1-3.7,0.2c0,0,0,0-0.1,0
					c-0.2,0-0.4-0.1-0.5-0.3c-0.1-0.2-0.1-0.4,0.1-0.6c2.7-3.3,5.9-5,9.3-5c8.5,0,16,10.2,16.3,10.6c0.2,0.2,0.1,0.5-0.1,0.7
					C345.8,214.3,345.7,214.4,345.6,214.4z"/>
				<path class="st42" d="M329.7,203.4c8.4,0,15.9,10.4,15.9,10.4c-6.7-4.9-16-5.7-21.1-5.7c-2.3,0-3.7,0.2-3.7,0.2
					C323.7,204.7,326.7,203.4,329.7,203.4 M329.7,202.4c-3.6,0-6.9,1.8-9.7,5.2c-0.3,0.3-0.3,0.8-0.1,1.2c0.2,0.3,0.6,0.6,0.9,0.6
					c0,0,0.1,0,0.1,0c0,0,1.4-0.1,3.6-0.1c4.8,0,13.9,0.7,20.4,5.5c0.2,0.1,0.4,0.2,0.6,0.2c0.3,0,0.5-0.1,0.8-0.3
					c0.4-0.4,0.4-1,0.1-1.4C346.1,212.8,338.5,202.4,329.7,202.4L329.7,202.4z"/>
			</g>
			<g>
				<path d="M253.6,220c-0.1,0-0.3,0-0.4-0.1c-0.2-0.2-0.2-0.5-0.1-0.7c0.3-0.5,7.5-11.6,16.3-11.6c3.2,0,6.2,1.5,9,4.5
					c0.1,0.2,0.2,0.4,0.1,0.6c-0.1,0.2-0.3,0.3-0.5,0.3c0,0,0,0,0,0c0,0-0.3,0-0.9,0c-3.5,0-15.4,0.5-23.1,6.9
					C253.8,219.9,253.7,220,253.6,220z"/>
				<path class="st42" d="M269.4,208.1c2.8,0,5.7,1.2,8.6,4.3c0,0-0.3,0-1,0c-3.5,0-15.6,0.5-23.4,7.1
					C253.6,219.4,260.8,208.1,269.4,208.1 M269.4,207C269.4,207,269.4,207,269.4,207c-9.1,0-16.4,11.4-16.7,11.9
					c-0.3,0.4-0.2,1,0.2,1.4c0.2,0.2,0.5,0.3,0.7,0.3c0.2,0,0.5-0.1,0.7-0.2c7.6-6.3,19.3-6.8,22.8-6.8c0.6,0,0.9,0,0.9,0
					c0,0,0,0,0,0c0.4,0,0.8-0.2,1-0.6c0.2-0.4,0.1-0.9-0.2-1.2C276,208.6,272.8,207,269.4,207L269.4,207z"/>
			</g>
			<g>
				<path class="st42" d="M307.3,260.6c0-0.7,0.2-1.3,0.3-1.9c0.2-0.6,0.3-1.2,0.5-1.8c0.4-1.1,0.9-2.2,1.5-3.3l0.1,1.4
					c-1.2-1.4-2.3-2.9-3.3-4.4l0.1,0.1c-0.2-0.2-0.3-0.3-0.4-0.5c-0.1-0.2-0.2-0.3-0.3-0.5c-0.2-0.3-0.3-0.7-0.4-1
					c-0.2-0.7-0.3-1.4-0.2-2.1c0-0.3,0.1-0.7,0.1-1c0-0.3,0.2-0.7,0.3-1c0.1-0.3,0.2-0.6,0.4-0.9c0.2-0.3,0.3-0.6,0.5-0.9
					c-0.1,0.7-0.2,1.3-0.2,1.9c0,0.3,0,0.6,0,0.9c0,0.3,0.1,0.6,0.1,0.9c0.1,0.6,0.3,1.2,0.5,1.7c0.1,0.3,0.3,0.5,0.4,0.7
					c0.1,0.1,0.2,0.2,0.2,0.3c0.1,0.1,0.2,0.2,0.2,0.2l0.1,0.1c1.3,1.3,2.6,2.6,3.8,4l0.5,0.6l-0.4,0.7c-0.6,1.1-1.2,2.1-1.9,3.1
					c-0.4,0.5-0.8,1-1.2,1.4C308.3,259.8,307.9,260.3,307.3,260.6z"/>
			</g>
			<g>
				<path class="st54" d="M346.7,235.9c-0.2-6.7-5.8-12-12.5-11.8c-3.9,0.1-7.3,2.1-9.5,5"/>
				<path d="M351.2,228.1c0,0-0.5,0.5-1,1.1c-0.3,0.3-0.6,0.6-0.9,0.9c-0.1,0.2-0.3,0.3-0.4,0.4c-0.2,0.1-0.3,0.2-0.4,0.3
					c-0.1,0.1-0.3,0.1-0.4,0.2c-0.1,0.1-0.3,0.1-0.5,0.2c-0.2,0-0.4,0-0.6,0.1c-0.2,0-0.4,0-0.6,0c-0.4,0-0.7,0-1,0
					c-0.3,0-0.4,0-0.4,0s0.1,0.2,0.2,0.4c0.2,0.2,0.4,0.6,0.8,0.9c0.2,0.1,0.4,0.3,0.7,0.4c0.3,0.1,0.6,0.2,0.9,0.3
					c0.3,0,0.7,0.1,1.1,0c0.2,0,0.4-0.1,0.6-0.1c0.2-0.1,0.4-0.2,0.5-0.3c0.4-0.2,0.6-0.5,0.9-0.7c0.2-0.3,0.4-0.6,0.5-0.8
					c0.3-0.6,0.4-1.1,0.4-1.6C351.5,228.8,351.2,228.1,351.2,228.1z"/>
				<path d="M351.9,232.5c0,0-0.5,0.3-1.1,0.6c-0.3,0.1-0.6,0.3-0.9,0.4c-0.1,0.1-0.3,0.1-0.4,0.1c-0.1,0-0.2,0.1-0.3,0.1
					c-0.1,0.1-0.2,0-0.3,0.1c-0.1,0-0.2,0-0.4,0c-0.1,0-0.3,0-0.5,0c-0.2,0-0.3,0-0.5-0.1c-0.3,0-0.6-0.1-0.9-0.1
					c-0.2,0-0.4,0-0.4,0s0,0.1,0.1,0.4c0.1,0.2,0.2,0.6,0.4,0.9c0.1,0.2,0.3,0.3,0.4,0.5c0.2,0.2,0.4,0.3,0.6,0.5
					c0.2,0.1,0.6,0.2,0.9,0.3c0.3,0,0.7,0.1,1,0c0.3-0.1,0.7-0.2,0.9-0.4c0.3-0.2,0.5-0.4,0.7-0.6c0.4-0.4,0.5-0.9,0.6-1.3
					C352.2,233.1,351.9,232.5,351.9,232.5z"/>
			</g>
			<g>
				<path d="M264.9,239.7c0.1,4.4,3,7.8,6.4,7.7c3.4-0.1,6.1-3.7,6-8.1c-0.1-4.4-3-7.8-6.4-7.7C267.5,231.7,264.8,235.3,264.9,239.7
					z"/>
				<path class="st1" d="M271.6,235.5c0,1.2,1,2.1,2.2,2c1.2,0,2.1-1,2-2.2c0-1.2-1-2.1-2.2-2C272.4,233.4,271.5,234.4,271.6,235.5z
					"/>
			</g>
			<g>
				<path class="st54" d="M255.1,241.8c-0.7-6.7,4.2-12.7,10.9-13.3c3.9-0.4,7.5,1.1,10,3.8"/>
				<path d="M249.7,234.7c0,0,0.6,0.4,1.2,0.9c0.3,0.2,0.7,0.5,1,0.8c0.2,0.1,0.3,0.2,0.5,0.3c0.2,0.1,0.3,0.2,0.5,0.2
					c0.1,0.1,0.3,0.1,0.4,0.1c0.1,0.1,0.3,0,0.5,0.1c0.2,0,0.4,0,0.6,0c0.2,0,0.4,0,0.6,0c0.4,0,0.7-0.1,1-0.1c0.3,0,0.4,0,0.4,0
					s0,0.2-0.2,0.4c-0.1,0.2-0.3,0.6-0.6,1c-0.2,0.2-0.4,0.4-0.6,0.5c-0.3,0.1-0.5,0.3-0.9,0.4c-0.3,0.1-0.7,0.2-1.1,0.1
					c-0.2,0-0.4,0-0.6-0.1c-0.2-0.1-0.4-0.1-0.6-0.2c-0.4-0.1-0.7-0.4-1-0.6c-0.3-0.2-0.5-0.5-0.7-0.8c-0.4-0.5-0.5-1.1-0.6-1.5
					C249.4,235.3,249.7,234.7,249.7,234.7z"/>
				<path d="M249.5,239.1c0,0,0.6,0.2,1.2,0.5c0.3,0.1,0.6,0.3,0.9,0.3c0.1,0,0.3,0.1,0.4,0.1c0.1,0,0.2,0,0.3,0c0.1,0,0.2,0,0.3,0
					c0.1,0,0.2,0,0.4,0c0.1,0,0.3,0,0.5-0.1c0.2-0.1,0.3-0.1,0.5-0.1c0.3-0.1,0.6-0.2,0.8-0.2c0.2,0,0.4-0.1,0.4-0.1s0,0.1,0,0.4
					c0,0.2-0.1,0.6-0.3,0.9c-0.1,0.2-0.2,0.4-0.3,0.6c-0.2,0.2-0.4,0.4-0.6,0.5c-0.2,0.2-0.5,0.3-0.8,0.4c-0.3,0.1-0.7,0.1-1,0.1
					c-0.4,0-0.7-0.1-1-0.3c-0.3-0.1-0.5-0.3-0.7-0.5c-0.4-0.4-0.6-0.8-0.8-1.2C249.3,239.7,249.5,239.1,249.5,239.1z"/>
			</g>
			<path class="st55" d="M348.7,155.6c0,0,7.3,27.1-87.4,43.7c-19.8,3.4-21,24.9-29.4,33.5c-8.4,8.5-18.9-27-13.7-50.6
				c0,0,3.9-42.2,73.3-39.7"/>
			<path class="st56" d="M272.1,314.8c0,0-15.9-12.2-30.5,10.8l2.7,2.6c0,0,14.2-17.3,27.7-9L272.1,314.8z"/>
			<path class="st57" d="M315.4,172.2c1,0,42.1-11.9,50,56.7c0,0,9.8-14.4,3.1-44.6c-4.5-20.3-29.6-31.4-29.6-31.4"/>
			<path class="st58" d="M342.3,171.4c0,0,2.5,21.1-31,21.9c0,0,13.7-6.8,14.3-16.2"/>
			<path d="M365,221.5c0,0,0.2,0,0.5,0c0.3,0,0.8,0.1,1.4,0.1c1.2,0.1,2.8,0.3,4.6,0.6c1.8,0.3,3.8,0.9,5.7,1.8
				c0.5,0.2,0.9,0.5,1.4,0.8c0.4,0.3,0.9,0.6,1.3,0.9c0.8,0.6,1.5,1.4,2.2,2.3c0.3,0.4,0.7,0.8,0.9,1.3c0.3,0.5,0.6,0.9,0.8,1.4
				c0.5,1,0.9,2,1.3,3.1c0.2,0.5,0.3,1.1,0.5,1.6c0.2,0.5,0.3,1,0.5,1.5c0.3,1,0.5,2,0.8,2.9c0.3,0.9,0.4,1.8,0.6,2.6
				c0.2,0.8,0.3,1.5,0.5,2c0.3,1.1,0.5,1.8,0.5,1.8s0.3-0.6,0.6-1.8c0.2-0.6,0.4-1.3,0.5-2.1c0.2-0.8,0.4-1.7,0.4-2.8
				c0-0.5,0.1-1,0.1-1.6c0-0.6,0-1.1,0-1.7c0-0.6,0-1.2-0.1-1.8c-0.1-0.6-0.1-1.3-0.3-1.9c-0.2-1.3-0.6-2.7-1.2-4
				c-0.3-0.7-0.6-1.4-1-2c-0.4-0.7-0.8-1.3-1.3-1.9c-1-1.2-2.1-2.3-3.3-3.1c-1.2-0.9-2.6-1.5-4-1.9c-1.3-0.4-2.7-0.6-3.9-0.7
				c-1.2-0.1-2.4,0-3.5,0.2c-2.1,0.3-3.7,0.9-4.8,1.4C365.5,221.1,365,221.5,365,221.5z"/>
			<path d="M365.5,218.7c0,0,0.1,0.1,0.4,0.4c0.3,0.3,0.7,0.7,1.1,1.2c1,1,7,8.1,9.3,18.4c2.3,10.3-1.5,23-1.5,23s0.6-0.5,1.6-1.5
				c0.5-0.5,1.1-1.2,1.7-1.9c0.3-0.4,0.7-0.8,1-1.3c0.3-0.5,0.6-1,1-1.5c0.4-0.5,0.7-1.1,1-1.7c0.3-0.6,0.7-1.2,0.9-1.9
				c0.3-0.7,0.6-1.4,0.8-2.1c0.2-0.7,0.5-1.5,0.6-2.3c0.3-1.6,0.6-3.3,0.6-5c0-0.9,0-1.7-0.1-2.6c-0.1-0.9-0.2-1.7-0.4-2.6
				c-0.2-0.9-0.5-1.7-0.7-2.5c-0.3-0.8-0.6-1.6-1-2.4c-0.7-1.6-1.6-3-2.6-4.3c-2-2.6-4.2-4.5-6.3-5.9c-1-0.7-2-1.3-2.9-1.7
				c-0.9-0.5-1.7-0.8-2.4-1.1C366.3,218.9,365.5,218.7,365.5,218.7z"/>
			<path d="M229.5,222.8c0,0,0,0.2,0,0.6c0,0.4,0,0.9,0,1.6c0,1.4-0.1,3.4-0.3,5.6c-0.2,2.2-0.5,4.6-1.1,6.9
				c-0.3,1.1-0.7,2.3-1.2,3.3c-0.5,1-1,2-1.7,2.8c-0.3,0.4-0.6,0.8-1,1.1c-0.3,0.4-0.7,0.7-1.1,1c-0.2,0.2-0.4,0.3-0.6,0.4
				c-0.2,0.1-0.4,0.3-0.6,0.4c-0.4,0.2-0.9,0.4-1.3,0.6c-0.4,0.2-0.9,0.3-1.3,0.5c-0.4,0.1-0.9,0.2-1.4,0.3
				c-0.4,0.1-0.9,0.1-1.4,0.2c-0.4,0.1-0.9,0.1-1.3,0.1c-0.9,0.1-1.6,0.1-2.4,0.1c-0.7,0-1.4,0.1-1.9,0c-1.1,0-1.7,0-1.7,0
				s0.7,0.5,1.9,1.2c0.6,0.4,1.3,0.7,2.2,1.1c0.4,0.2,0.9,0.4,1.3,0.6c0.5,0.2,1,0.3,1.5,0.5c0.5,0.2,1,0.3,1.6,0.4
				c0.5,0.1,1.1,0.3,1.7,0.3c0.6,0,1.2,0.1,1.7,0.1c0.6,0,1.2-0.1,1.8-0.1c1.2-0.2,2.3-0.6,3.3-1.2c0.5-0.3,1-0.6,1.5-1.1
				c0.5-0.4,0.9-0.9,1.3-1.4c0.4-0.5,0.7-1.1,1.1-1.7c0.3-0.6,0.6-1.3,0.8-1.9c0.5-1.3,0.8-2.8,1-4.3c0.4-3,0.2-6.1-0.2-8.8
				c-0.2-1.3-0.5-2.6-0.7-3.7c-0.2-1.1-0.5-2.1-0.8-2.9C229.8,223.8,229.5,222.8,229.5,222.8z"/>
			<path class="st59" d="M276.4,336.5c0,0-2.4,8.4,1.4,11.4c-5.7,1.1-9.3-2.3-10.3-4.6"/>
		</g>
		<g>
			
				<rect x="211" y="292.9" transform="matrix(0.9667 -0.2557 0.2557 0.9667 -76.7118 66.4515)" class="st60" width="12.3" height="70.7"/>
			<polygon class="st61" points="232.2,360.8 220.5,363.9 226,369.4 229,372.5 230.1,368.3 			"/>
			<polygon class="st62" points="230.1,368.3 226,369.4 229,372.5 			"/>
		</g>
		<path class="st52" d="M208.9,359c-2.4-0.6-10.6-3.1-12.9-13.9c-2.3-10.7-8.9-26.4,13-30.3c21.9-3.9,15.6,7.4,15.6,7.4
			s8.3,4.6,3.7,10.8c0,0,8.5,6.4,2.7,10.5c0,0,5.5,5.1-0.6,10.4C224.4,359.2,214.5,360.5,208.9,359z"/>
		<path class="st52" d="M384.7,368.2c0,0-7.5-22.7-63.8-3.8c0,0-16.5-13.1-29.7,7.2c0,0-10.5,13.1,12.1,8.2
			c8.4-1.8,21.8-1.5,21.8-1.5S393.4,396.8,384.7,368.2z"/>
		<g>
			<path class="st63" d="M293.5,383.1c0,0,46.5-13,81-9.5l-0.5,3l2.5,0.4v8.6H209.3l1.4-3.3l-1.4-2.9l2.8-1.3v-1.7
				C212.2,376.3,264.3,365.8,293.5,383.1z"/>
			<rect x="205.1" y="385.6" class="st64" width="174.8" height="3.5"/>
		</g>
	</g>
	<g>
		<line class="st65" x1="83.4" y1="358.6" x2="83.4" y2="371"/>
		<polyline class="st66" points="22.3,234.7 91.4,358.6 76.5,358.3 4.7,229 		"/>
		<path class="st67" d="M112.2,374.8c1,0,1.8-0.8,1.8-1.8v-11.7c0-1-0.8-1.8-1.8-1.8h-7.9c-1,0-1.8,0.8-1.8,1.8v11.7
			c0,1,0.8,1.8,1.8,1.8H112.2z"/>
		<path class="st60" d="M134.1,387.9H41.5c0,0-1.2-8.8,4.2-14.6c2.7-2.9,6.9-5.1,13.8-5.1h56.8c6.6,0,10.8,2.2,13.5,5.1
			C134.9,379.1,134.1,387.9,134.1,387.9z"/>
		<path class="st68" d="M86.5,372.5h-40c-6.2,5.8-5,15.4-5,15.4h40C81.5,387.9,80.2,378.3,86.5,372.5z"/>
		<g>
			<line class="st65" x1="161.6" y1="117.8" x2="142" y2="126.5"/>
			<line class="st66" x1="142.2" y1="128.7" x2="20.6" y2="234.7"/>
			<line class="st69" x1="131.2" y1="120.9" x2="4.7" y2="229"/>
			<path class="st70" d="M3.6,234.5c1.2,6.2,7.3,10.2,13.7,8.9c6.3-1.2,10.5-7.3,9.2-13.4c-1.2-6.2-7.3-10.2-13.7-8.9
				C6.6,222.3,2.4,228.3,3.6,234.5z"/>
			<path class="st70" d="M120.4,132.2c1.2,6.2,7.3,10.2,13.7,8.9c6.3-1.2,10.5-7.3,9.2-13.5c-1.2-6.2-7.3-10.2-13.7-8.9
				C123.3,120,119.1,126,120.4,132.2z"/>
		</g>
		<g>
			<path class="st60" d="M161.1,124.8l-2.9,47.1c-0.1,1.9,1.3,2.9,3.1,2.2l56.8-22.3c1.8-0.7,2.1-2.3,0.6-3.6l-36.1-31.9
				L161.1,124.8z"/>
			<path class="st71" d="M155.3,111.6c-2.5-6,0.4-12.7,6.4-15.1c6-2.4,12.9,0.6,15.4,6.5l5.6,13.5L161,125L155.3,111.6z"/>
		</g>
		<line class="st72" x1="195.2" y1="140" x2="179.1" y2="122.8"/>
		<line class="st72" x1="205" y1="150.5" x2="200.2" y2="145.3"/>
		<line class="st73" x1="160.2" y1="174.6" x2="219.2" y2="151.5"/>
	</g>
	<g>
		<path class="st74" d="M498.5,221.8c-77.8,4.7-71.2,120.7-71.2,120.7v91.4h151.9v-91.4C579.3,342.5,588.3,216.3,498.5,221.8z"/>
		<polygon class="st75" points="541.6,272.8 541.6,366.8 548.5,366.8 		"/>
		<polygon class="st75" points="455,271.4 455,365.5 448.1,365.5 		"/>
		<g>
			<defs>
				<rect id="XMLID_71_" x="488.2" y="206.8" width="28.6" height="43.5"/>
			</defs>
			<use xlink:href="#XMLID_71_"  style="overflow:visible;fill:#F5B886;"/>
			<clipPath id="XMLID_5_">
				<use xlink:href="#XMLID_71_"  style="overflow:visible;"/>
			</clipPath>
			<path class="st76" d="M525.4,201c0,0,2.4,26-23,25.5c-25.4-0.5-21.9-26.4-21.9-26.4s9.2-1.2,22.5-0.9
				C516.2,199.4,525.4,201,525.4,201z"/>
			<path class="st77" d="M525.4,201c0,0,2.4,26-23,25.5c-25.4-0.5-21.9-26.4-21.9-26.4s9.2-1.2,22.5-0.9
				C516.2,199.4,525.4,201,525.4,201z"/>
		</g>
		<rect x="485.6" y="235" class="st74" width="33.7" height="33.7"/>
		<path class="st78" d="M499.4,235c0,0-4.5-0.8-8.4-4.5c-4.3-4.1-3.2-9.7-3.2-9.7s-21.1,9.4-10.8,20.9c3.9,4.3,11.2,8.6,11.2,8.6
			L499.4,235z"/>
		<path class="st79" d="M499.4,235c0,0,7.8-0.1,13.5-6.1c4.4-4.6,3.9-8.9,3.9-8.9s21,4.5,6.5,21.9c-5.8,6.9-15.3,10-15.3,10
			L499.4,235z"/>
		<g>
			<path class="st80" d="M530.8,41.7c0,0,33.1-39,54.3,4.9c21.2,44,1.3,131.7,31.2,109.7c0,0-17.5,53.6-51.2,21.3
				c-16.7-16-31.4-103.5-31.4-103.5"/>
			<path class="st80" d="M492.9,118.4c-41.8,3.5-70.7,21.1-71,38.9c-3.9-1.6-13.3-14.3-13.3-14.3s-13.9-46.7,15-89.5
				c26.2-38.9,90.8-45.2,121.9-9.2c23.8-4.1,46.5,21.4,34.7,84.5c-4.7-2.7-11.1,17.6-11.1,17.6S534.7,114.9,492.9,118.4z"/>
			<path id="XMLID_70_" class="st50" d="M434.6,143.9c0,0-4.6-18-20.1-9.1c-19.4,11.1,5.1,49.6,19.5,37.5"/>
			<g>
				<defs>
					<path id="XMLID_69_" d="M563,133.4c0,0,1.6-18.5,18.4-12.2c20.9,7.9,2.8,49.7-13.3,40.1"/>
				</defs>
				<use xlink:href="#XMLID_69_"  style="overflow:visible;fill:#FCF1BB;"/>
				<clipPath id="XMLID_6_">
					<use xlink:href="#XMLID_69_"  style="overflow:visible;"/>
				</clipPath>
				<path class="st81" d="M561.6,136.2c0,0,1.9-13,15-8.7c16.4,5.5,0.7,35.1-11.9,28.3"/>
			</g>
			<path class="st52" d="M569.3,155.2c3,36.9-37.5,62.8-68.7,65.7c-31,2.8-75.1-17.3-78.3-53.9l-3.8-47.5
				c-2.4-30.6,18.7-57.5,47.1-59.8l44-3.5c28.3-2.3,53.5,20.9,56,51.5L569.3,155.2z"/>
			<g>
				<path d="M459.4,145.5c0.4,4.8-2.4,8.9-6.1,9.2c-3.8,0.3-7.1-3.3-7.5-8.1c-0.4-4.8,2.4-8.9,6.1-9.2
					C455.6,137,459,140.7,459.4,145.5z"/>
				<path class="st1" d="M451.6,141.7c0.1,1.3-0.8,2.4-2.1,2.5c-1.3,0.1-2.4-0.8-2.5-2.1c-0.1-1.3,0.8-2.4,2.1-2.5
					C450.4,139.5,451.5,140.4,451.6,141.7z"/>
			</g>
			<path class="st42" d="M437.6,157.4c-4.8,0.4-9-2.4-9.3-6.1c-0.3-3.8,3.4-7.2,8.2-7.5c4.8-0.4,9,2.4,9.3,6.1
				C446.1,153.6,442.4,157,437.6,157.4z"/>
			<path class="st42" d="M546.7,154.5c-4.8,0.4-9-2.4-9.3-6.1c-0.3-3.8,3.4-7.2,8.2-7.5c4.8-0.4,9,2.4,9.3,6.1
				C555.1,150.7,551.5,154.1,546.7,154.5z"/>
			<path class="st42" d="M492.5,203.3c-3.2,0.3-5.9-1.6-6.1-4c-0.2-2.5,2.2-4.7,5.4-4.9c3.2-0.3,5.9,1.6,6.1,4
				C498,200.8,495.6,203.1,492.5,203.3z"/>
			<g>
				<path d="M440.2,123.1c-0.1,0-0.3,0-0.4-0.1c-0.2-0.2-0.3-0.5-0.1-0.8c0.3-0.6,7.9-13.7,17.9-13.7c3.3,0,6.6,1.5,9.6,4.5
					c0.2,0.2,0.2,0.4,0.1,0.6c-0.1,0.2-0.3,0.4-0.5,0.4c-0.2,0-16.6,0.2-26.1,8.9C440.5,123,440.3,123.1,440.2,123.1z"/>
				<path class="st42" d="M457.5,109.1c2.9,0,6,1.2,9.2,4.3c0,0-16.7,0.1-26.5,9.1C440.2,122.5,447.8,109.1,457.5,109.1
					 M457.5,107.9C457.5,107.9,457.5,107.9,457.5,107.9c-10.3,0-18.1,13.4-18.4,14c-0.3,0.5-0.2,1.1,0.3,1.5
					c0.2,0.2,0.5,0.3,0.7,0.3c0.3,0,0.6-0.1,0.8-0.3c9.4-8.6,25.5-8.8,25.7-8.8c0.5,0,0.9-0.3,1.1-0.7s0.1-1-0.3-1.3
					C464.4,109.5,461,107.9,457.5,107.9L457.5,107.9z"/>
			</g>
			<g>
				<path d="M541.7,118.1c-0.1,0-0.2,0-0.3-0.1c-6.4-4.2-14.6-5.1-20.4-5.1c-4,0-6.8,0.4-6.8,0.4c0,0-0.1,0-0.1,0
					c-0.2,0-0.4-0.1-0.5-0.3c-0.1-0.2-0.1-0.5,0-0.7c3-4,6.5-6.1,10.6-6.1c9.2,0,17.6,10.4,18,10.8c0.2,0.2,0.2,0.6,0,0.8
					C542,118,541.8,118.1,541.7,118.1z"/>
				<path class="st42" d="M524.2,106.9c9,0,17.5,10.6,17.5,10.6c-6.5-4.3-14.9-5.2-20.7-5.2c-4.1,0-6.9,0.4-6.9,0.4
					C517.2,108.4,520.7,106.9,524.2,106.9 M524.2,105.7c-4.3,0-8,2.1-11.1,6.3c-0.3,0.4-0.3,0.9-0.1,1.3c0.2,0.4,0.6,0.6,1,0.6
					c0.1,0,0.1,0,0.2,0c0,0,2.8-0.4,6.7-0.4c5.7,0,13.8,0.9,20.1,5c0.2,0.1,0.4,0.2,0.7,0.2c0.3,0,0.6-0.1,0.9-0.4
					c0.4-0.4,0.4-1.1,0-1.5C542.2,116.3,533.6,105.7,524.2,105.7L524.2,105.7z"/>
			</g>
			<g>
				<path class="st42" d="M487.8,169.1c-0.6-0.4-1.2-0.8-1.7-1.2c-0.5-0.5-1-0.9-1.5-1.4c-0.9-1-1.7-2-2.5-3.1l-0.5-0.8l0.5-0.7
					c1.1-1.7,2.3-3.3,3.6-4.9l0.1-0.1c0,0,0.2-0.2,0.2-0.3c0.1-0.1,0.2-0.2,0.2-0.4c0.2-0.3,0.3-0.5,0.4-0.8
					c0.1-0.3,0.2-0.6,0.2-0.9c0-0.2,0.1-0.3,0.1-0.5c0-0.2,0.1-0.3,0.1-0.5c0-0.3,0-0.7,0-1c0-0.3-0.1-0.7-0.1-1
					c0-0.3-0.1-0.7-0.2-1l-0.3-1c0.2,0.3,0.4,0.6,0.6,0.9c0.2,0.3,0.4,0.6,0.5,1c0.1,0.3,0.3,0.7,0.4,1.1c0.1,0.4,0.2,0.7,0.3,1.1
					c0,0.2,0,0.4,0.1,0.6c0,0.2,0,0.4,0,0.6c0,0.4,0,0.8-0.1,1.2c-0.1,0.4-0.2,0.8-0.3,1.2c-0.1,0.2-0.2,0.4-0.3,0.6
					c-0.1,0.2-0.2,0.4-0.4,0.6l0.1-0.1c-0.9,1.8-1.9,3.6-3,5.3l0-1.5c0.8,1.1,1.4,2.2,2,3.4c0.3,0.6,0.5,1.2,0.8,1.9
					C487.4,167.8,487.7,168.4,487.8,169.1z"/>
			</g>
			<g>
				<path class="st82" d="M441.7,146.8c-0.6-7.4,4.9-13.9,12.3-14.5c4.3-0.3,8.3,1.4,11,4.3"/>
				<path d="M435.8,138.8c0,0,0.6,0.5,1.3,1c0.4,0.3,0.7,0.6,1.1,0.9c0.2,0.2,0.4,0.2,0.5,0.4c0.2,0.1,0.3,0.2,0.5,0.2
					c0.1,0.1,0.3,0.1,0.5,0.2c0.2,0.1,0.3,0,0.5,0.1c0.2,0,0.4,0,0.6,0c0.2,0,0.4,0,0.6,0c0.4,0,0.8-0.1,1.1-0.1c0.3,0,0.5,0,0.5,0
					s-0.1,0.2-0.2,0.5c-0.2,0.3-0.3,0.7-0.7,1c-0.2,0.2-0.4,0.4-0.7,0.6c-0.3,0.1-0.6,0.3-1,0.4c-0.4,0.1-0.8,0.2-1.2,0.1
					c-0.2,0-0.4,0-0.6-0.1c-0.2-0.1-0.4-0.1-0.6-0.2c-0.4-0.2-0.7-0.4-1-0.7c-0.3-0.3-0.5-0.6-0.7-0.9c-0.4-0.6-0.6-1.2-0.6-1.7
					C435.5,139.5,435.8,138.8,435.8,138.8z"/>
				<path d="M435.5,143.7c0,0,0.6,0.3,1.3,0.5c0.3,0.1,0.7,0.3,1,0.4c0.2,0.1,0.3,0.1,0.4,0.1c0.1,0,0.2,0,0.3,0c0.1,0,0.2,0,0.3,0
					c0.1,0,0.3,0,0.4,0c0.2,0,0.3,0,0.5-0.1c0.2-0.1,0.4-0.1,0.5-0.1c0.4-0.1,0.7-0.2,0.9-0.2c0.3,0,0.4-0.1,0.4-0.1s0,0.2,0,0.4
					c-0.1,0.3-0.1,0.7-0.3,1c-0.1,0.2-0.2,0.4-0.4,0.6c-0.2,0.2-0.4,0.4-0.6,0.6c-0.2,0.2-0.6,0.3-0.9,0.4c-0.4,0.1-0.7,0.1-1.1,0.1
					c-0.4,0-0.8-0.1-1.1-0.3c-0.3-0.2-0.6-0.4-0.8-0.6c-0.5-0.4-0.7-0.9-0.8-1.4C435.3,144.3,435.5,143.7,435.5,143.7z"/>
			</g>
			<g>
				<path d="M531.8,142.1c0.4,4.8-2.4,8.9-6.1,9.2c-3.8,0.3-7.1-3.3-7.5-8.1c-0.4-4.8,2.4-8.9,6.1-9.2
					C528.1,133.7,531.5,137.3,531.8,142.1z"/>
				<path class="st1" d="M524.1,138.4c0.1,1.3-0.8,2.4-2.1,2.5c-1.3,0.1-2.4-0.8-2.5-2.1c-0.1-1.3,0.9-2.4,2.1-2.5
					C522.8,136.2,524,137.1,524.1,138.4z"/>
			</g>
			<g>
				<path class="st82" d="M542.7,142.2c-0.1-7.4-6.2-13.4-13.6-13.3c-4.3,0.1-8.1,2.1-10.6,5.3"/>
				<path d="M547.8,133.7c0,0-0.6,0.5-1.2,1.1c-0.3,0.3-0.6,0.7-1,1c-0.2,0.2-0.3,0.3-0.5,0.4c-0.2,0.1-0.3,0.2-0.5,0.3
					c-0.1,0.1-0.3,0.2-0.5,0.2c-0.1,0.1-0.3,0.1-0.5,0.2c-0.2,0-0.4,0-0.6,0.1c-0.2,0-0.4,0-0.6,0c-0.4,0-0.8,0-1.1,0
					c-0.3,0-0.5,0-0.5,0s0.1,0.2,0.2,0.4c0.2,0.2,0.4,0.7,0.8,1c0.2,0.2,0.4,0.4,0.7,0.5c0.3,0.1,0.6,0.3,1,0.3c0.4,0,0.8,0.1,1.2,0
					c0.2,0,0.4-0.1,0.6-0.1c0.2-0.1,0.4-0.2,0.6-0.3c0.4-0.2,0.7-0.5,1-0.8c0.2-0.3,0.5-0.6,0.6-0.9c0.3-0.6,0.4-1.2,0.5-1.8
					C548.2,134.4,547.8,133.7,547.8,133.7z"/>
				<path d="M548.6,138.5c0,0-0.6,0.3-1.2,0.7c-0.3,0.2-0.6,0.4-0.9,0.5c-0.1,0.1-0.3,0.1-0.4,0.1c-0.1,0-0.2,0.1-0.3,0.1
					c-0.1,0.1-0.2,0-0.3,0.1c-0.1,0-0.3,0-0.4,0c-0.2,0-0.3,0-0.5,0c-0.2,0-0.4-0.1-0.5-0.1c-0.4,0-0.7-0.1-1-0.1
					c-0.3,0-0.4,0-0.4,0s0,0.2,0.1,0.4c0.1,0.3,0.2,0.6,0.4,1c0.1,0.2,0.3,0.4,0.4,0.6c0.2,0.2,0.4,0.3,0.7,0.5
					c0.3,0.2,0.6,0.3,0.9,0.3c0.4,0,0.7,0.1,1.1,0c0.4-0.1,0.7-0.2,1-0.4c0.3-0.2,0.6-0.4,0.8-0.7c0.4-0.5,0.6-1,0.7-1.4
					C548.8,139.1,548.6,138.5,548.6,138.5z"/>
			</g>
			<path class="st83" d="M429.8,59c0,0-4.7,30.6,101.1,37.3c22.1,1.4,26.1,24.8,36.3,33.1c10.2,8.4,17.5-31.9,8.9-57.1
				c0,0-9.4-45.8-85.1-34.6"/>
			<path class="st84" d="M468.2,73.1c-1.1,0.2-47.6-8-48,68.2c0,0-12.5-14.6-8.8-48.5c2.5-22.8,28.6-38,28.6-38"/>
			<path class="st85" d="M438.6,75.6c0,0-0.2,23.5,36.6,20.2c0,0-15.9-5.8-17.6-16"/>
			<path d="M419.9,133.2c0,0-0.2,0-0.5,0.1c-0.3,0.1-0.8,0.2-1.5,0.3c-1.2,0.3-3,0.6-4.9,1.2c-1.9,0.6-4.1,1.5-6,2.7
				c-0.5,0.3-0.9,0.7-1.4,1c-0.4,0.4-0.9,0.7-1.3,1.2c-0.8,0.8-1.5,1.7-2.1,2.7c-0.3,0.5-0.6,1-0.9,1.6c-0.3,0.5-0.5,1.1-0.7,1.7
				c-0.4,1.1-0.8,2.3-1.1,3.5c-0.2,0.6-0.2,1.2-0.4,1.8c-0.1,0.6-0.2,1.2-0.3,1.8c-0.2,1.2-0.3,2.3-0.5,3.3c-0.2,1-0.2,2-0.3,2.9
				c-0.1,0.9-0.2,1.6-0.3,2.3c-0.1,1.3-0.3,2-0.3,2s-0.4-0.7-0.9-1.9c-0.3-0.6-0.6-1.3-0.8-2.2c-0.3-0.9-0.6-1.9-0.8-3
				c-0.1-0.6-0.2-1.1-0.3-1.7c-0.1-0.6-0.1-1.2-0.2-1.9c-0.1-0.7-0.1-1.3-0.1-2c0-0.7,0-1.4,0.1-2.2c0.1-1.5,0.3-3,0.8-4.5
				c0.2-0.8,0.5-1.6,0.8-2.3c0.3-0.8,0.7-1.5,1.2-2.2c0.9-1.4,2-2.8,3.3-3.9c1.3-1.1,2.7-2,4.1-2.6c1.4-0.6,2.9-1,4.2-1.2
				c1.4-0.2,2.6-0.3,3.8-0.2c2.3,0.1,4.2,0.6,5.4,1C419.2,132.9,419.9,133.2,419.9,133.2z"/>
			<path d="M418.9,130.2c0,0-0.1,0.2-0.4,0.5c-0.3,0.3-0.6,0.8-1.1,1.4c-0.9,1.2-6.7,9.7-8,21.3c-1.2,11.6,4.5,25,4.5,25
				s-0.7-0.5-2-1.5c-0.6-0.5-1.3-1.1-2.1-1.9c-0.4-0.4-0.8-0.8-1.2-1.3c-0.4-0.5-0.8-1-1.3-1.5c-0.5-0.5-0.9-1.1-1.3-1.7
				c-0.4-0.6-0.9-1.3-1.2-2c-0.4-0.7-0.8-1.4-1.1-2.2c-0.3-0.8-0.7-1.6-1-2.4c-0.6-1.7-1-3.5-1.2-5.4c-0.1-0.9-0.2-1.9-0.2-2.9
				c0-1,0.1-1.9,0.1-2.9c0.1-1,0.3-1.9,0.5-2.9c0.2-0.9,0.5-1.9,0.8-2.8c0.6-1.8,1.4-3.5,2.3-5c1.8-3,4-5.5,6.1-7.2
				c1-0.9,2.1-1.6,3-2.2c0.9-0.6,1.8-1.1,2.5-1.5C418.1,130.5,418.9,130.2,418.9,130.2z"/>
			<path d="M568.6,118.3c0,0,0,0.2,0.1,0.7c0,0.4,0.1,1,0.2,1.8c0.2,1.5,0.5,3.7,1,6.1c0.5,2.4,1.1,5,2.1,7.5c0.5,1.2,1,2.4,1.7,3.5
				c0.6,1.1,1.3,2,2.1,2.9c0.4,0.4,0.8,0.8,1.3,1.1c0.4,0.4,0.9,0.7,1.3,0.9c0.2,0.2,0.5,0.3,0.7,0.4c0.2,0.1,0.5,0.2,0.7,0.3
				c0.5,0.2,1,0.3,1.5,0.5c0.5,0.1,1,0.2,1.5,0.3c0.5,0.1,1,0.1,1.5,0.2c0.5,0.1,1,0,1.5,0.1c0.5,0,1,0,1.4,0c0.9,0,1.8-0.1,2.6-0.2
				c0.8-0.1,1.5-0.1,2.1-0.2c1.2-0.2,1.9-0.2,1.9-0.2s-0.7,0.6-1.9,1.5c-0.6,0.5-1.4,1-2.3,1.5c-0.4,0.3-0.9,0.6-1.4,0.8
				c-0.5,0.2-1,0.5-1.6,0.7c-0.5,0.3-1.1,0.5-1.7,0.7c-0.6,0.2-1.2,0.4-1.8,0.5c-0.6,0.1-1.3,0.3-1.9,0.3c-0.6,0-1.3,0.1-1.9,0
				c-1.3-0.1-2.6-0.3-3.8-0.9c-0.6-0.3-1.2-0.6-1.8-1c-0.6-0.4-1.1-0.9-1.6-1.4c-0.5-0.5-0.9-1.1-1.4-1.7c-0.4-0.7-0.8-1.3-1.2-2
				c-0.7-1.4-1.2-3-1.6-4.6c-0.8-3.3-1-6.7-0.8-9.7c0-1.5,0.2-2.9,0.3-4.2c0.1-1.2,0.3-2.4,0.5-3.3
				C568.2,119.3,568.6,118.3,568.6,118.3z"/>
			<path class="st86" d="M472.5,183.5c0,0,1.4,3.9,17.3,3.2c14.4-0.6,18.4-4.8,18.4-4.8"/>
		</g>
		<g>
			<polygon class="st87" points="512.6,413.9 431.1,418 426.3,416.3 424.9,318.1 503.2,311.7 507.2,313.7 			"/>
			
				<rect x="423.6" y="313.9" transform="matrix(0.9986 -5.379136e-02 5.379136e-02 0.9986 -18.9076 25.5261)" class="st88" width="82.4" height="100.3"/>
			<path class="st89" d="M434.4,323.2c0.1,2.6-1.9,4.8-4.5,5c-2.6,0.1-4.8-1.9-5-4.5c-0.1-2.6,1.9-4.8,4.5-5
				C432,318.6,434.2,320.6,434.4,323.2z"/>
		</g>
		<path class="st52" d="M414.1,383.1c-2.3-0.9-10.2-4.2-11.3-15.1c-1.1-10.9-6-27.2,16.2-28.8c22.2-1.6,14.7,9,14.7,9
			s7.7,5.4,2.5,11.1c0,0,7.7,7.3,1.6,10.7c0,0,5,5.6-1.7,10.3C429.5,384.9,419.5,385.2,414.1,383.1z"/>
		<path class="st52" d="M518.4,401.6c2.2-1.1,9.7-5.4,9.6-16.3c-0.1-11,3-27.7-19.3-26.8c-22.3,0.9-13.6,10.6-13.6,10.6
			s-7.1,6.3-1.3,11.3c0,0-6.9,8.1-0.4,10.8c0,0-4.3,6.1,2.8,10C503.3,405.1,513.3,404.2,518.4,401.6z"/>
	</g>
	<g>
		<g>
			<g>
				<path class="st90" d="M652.7,326.4c-7.5,7.2-21.1,5-21.1,5s-1.6-13.7,5.9-20.9c7.5-7.2,21.1-5,21.1-5S660.2,319.2,652.7,326.4z"
					/>
				<path class="st90" d="M603.9,328.2c6.7,5.6,18,3,18,3s0.5-11.6-6.1-17.2c-6.7-5.6-18-3-18-3S597.2,322.6,603.9,328.2z"/>
				<path class="st90" d="M617.2,306.9c2.5,5.4,10.3,7.1,10.3,7.1s3.7-7,1.2-12.4c-2.5-5.4-10.3-7.1-10.3-7.1
					S614.7,301.5,617.2,306.9z"/>
				<g>
					<path class="st91" d="M626.7,337.5c0,0,12.1-17.5,19.7-18.9"/>
					<path class="st91" d="M626.7,337.5c0,0-3.5-8.1-15.6-16.4"/>
					<line class="st92" x1="626.5" y1="349.8" x2="626.7" y2="337.5"/>
				</g>
				<line class="st93" x1="626.5" y1="349.8" x2="627.2" y2="314.6"/>
				<path class="st93" d="M623.6,305.3c2.4,3.6,3.8,5.6,3.7,10.2"/>
			</g>
			<polygon class="st94" points="647.7,348.8 646.6,354.4 640.3,388.3 611.1,387.7 606.1,354.6 605.3,349 			"/>
			<polygon class="st95" points="626.7,349.4 626.7,355 626.7,388 615.7,387.8 611.5,354.7 610.8,349.1 			"/>
			<polygon class="st96" points="647.7,348.8 646.6,354.4 606.1,354.6 605.3,349 			"/>
		</g>
		<g>
			<path class="st97" d="M605.3,351.5c-1.4,0-2.5-1.2-2.5-2.5c0-1.4,1.1-2.6,2.5-2.6l42.3-0.1c1.4,0,2.6,1.1,2.6,2.5
				c0,1.4-1.1,2.6-2.5,2.6L605.3,351.5C605.3,351.5,605.3,351.5,605.3,351.5z"/>
		</g>
		<g>
			<path class="st96" d="M641.4,390.8l-31.6-0.6c-1.4,0-2.5-1.2-2.5-2.6c0-1.4,1.2-2.5,2.6-2.5l31.6,0.6c1.4,0,2.5,1.2,2.5,2.6
				C644,389.8,642.8,390.9,641.4,390.8z"/>
		</g>
	</g>
	<rect x="40" y="397.8" class="st98" width="616.2" height="39"/>
	<rect x="581" y="416.4" class="st99" width="75.2" height="20.6"/>
	<rect x="40" y="396.8" class="st100" width="541.9" height="19.6"/>
	<rect x="14.1" y="387.7" class="st98" width="580.6" height="20.6"/>
	<rect x="591.9" y="387.7" class="st99" width="96.5" height="20.6"/>
	<path class="st101" d="M229.4,357.3c-0.1,0.2-0.2,0.2-0.2,0.2C229.2,357.5,229.3,357.4,229.4,357.3z"/>
	<g>
		<polygon class="st102" points="628,360.3 628,388.1 493.6,388.1 493.6,381.8 497.3,381.8 497.3,366.5 493.6,366.5 493.6,360.3 		
			"/>
		<polygon class="st103" points="557.6,360.3 557.6,388.1 493.6,388.1 493.6,381.8 497.3,381.8 497.3,366.5 493.6,366.5 
			493.6,360.3 		"/>
		<rect x="496.2" y="366.5" class="st104" width="54.5" height="15.3"/>
	</g>
	<path class="st105" d="M108.9,382.9c-0.4-2.8-1.2-6.4-3.2-9.7h10.5c4.4,0,7.6,1.1,9.7,3.5c1.7,1.8,2.5,4.2,2.9,6.3H108.9z"/>
	<g>
		<g>
			
				<rect x="161.4" y="325.9" transform="matrix(0.9557 0.2943 -0.2943 0.9557 111.7109 -33.2746)" class="st106" width="10" height="57.3"/>
			<polygon class="st107" points="179.6,328.5 170.3,325.7 174.9,321.4 177.4,319 178.2,322.4 			"/>
			<polygon class="st106" points="178.2,322.4 174.9,321.4 177.4,319 			"/>
		</g>
		<g>
			
				<rect x="149.2" y="320.6" transform="matrix(0.9934 -0.1145 0.1145 0.9934 -38.9753 19.9512)" class="st108" width="10" height="57.3"/>
			<polygon class="st107" points="155.8,320.1 146.1,321.2 148.6,315.5 150,312.3 152.1,315.1 			"/>
			<polygon class="st108" points="152.1,315.1 148.6,315.5 150,312.3 			"/>
		</g>
		<g>
			
				<rect x="143.6" y="323.8" transform="matrix(0.9452 -0.3265 0.3265 0.9452 -106.9368 67.842)" class="st109" width="10" height="57.3"/>
			<polygon class="st107" points="143.9,323.7 134.7,326.9 135.9,320.7 136.5,317.3 139.2,319.5 			"/>
			<polygon class="st109" points="139.2,319.5 135.9,320.7 136.5,317.3 			"/>
		</g>
		<polygon class="st110" points="172.4,387.9 145.2,387.9 139.7,344.8 177.9,344.8 		"/>
	</g>
</g>
</svg>
