<?xml version="1.0" encoding="utf-8"?>
<!-- Generator: Adobe Illustrator 22.0.0, SVG Export Plug-In . SVG Version: 6.00 Build 0)  -->
<svg version="1.1" id="Layer_1" xmlns="http://www.w3.org/2000/svg" xmlns:xlink="http://www.w3.org/1999/xlink" x="0px" y="0px"
	 viewBox="0 0 721.8 681.6" style="enable-background:new 0 0 721.8 681.6;" xml:space="preserve">
<style type="text/css">
	.st0{opacity:0.3;}
	.st1{fill:#301E1F;}
	.st2{fill:#171112;}
	.st3{fill:#B70F0C;}
	.st4{fill:#F92324;}
	.st5{fill:none;stroke:#301E1F;stroke-width:10.9876;stroke-linecap:round;stroke-linejoin:round;stroke-miterlimit:10;}
	.st6{fill:#422E44;}
	.st7{fill:#C4CCBE;}
	.st8{fill:#747783;}
	.st9{fill:none;stroke:#422E44;stroke-width:10.9876;stroke-linecap:round;stroke-linejoin:round;stroke-miterlimit:10;}
	.st10{fill:#1D1516;}
	.st11{opacity:0.4;fill:#632540;}
	.st12{fill:#C9EAE8;}
	.st13{fill:#235761;}
	.st14{fill:#6DB05B;}
	.st15{fill:#FADB2A;}
	.st16{fill:#8B2B46;}
	.st17{fill:#FFFFFF;}
	.st18{clip-path:url(#XMLID_2_);fill:#F5B886;}
	.st19{fill:#F5B886;}
	.st20{clip-path:url(#XMLID_3_);fill:#F5B886;}
	.st21{fill:#F9ED13;}
	.st22{fill:#FDF4BE;}
	.st23{fill:#0F1A27;}
	.st24{clip-path:url(#XMLID_4_);fill:#EA404F;}
	.st25{clip-path:url(#XMLID_4_);fill:#EE7D63;}
	.st26{fill:#FFFFFF;stroke:#333333;stroke-width:1.1595;stroke-linecap:round;stroke-linejoin:round;stroke-miterlimit:10;}
	.st27{fill:#FFFFFF;stroke:#333333;stroke-width:1.296;stroke-linecap:round;stroke-linejoin:round;stroke-miterlimit:10;}
	.st28{stroke:#000000;stroke-width:3.4075;stroke-linecap:round;stroke-linejoin:round;stroke-miterlimit:10;}
	.st29{stroke:#000000;stroke-width:3.5859;stroke-linecap:round;stroke-linejoin:round;stroke-miterlimit:10;}
	.st30{fill:#EE7D63;}
	.st31{clip-path:url(#XMLID_5_);fill:#EE7D63;}
	.st32{fill:#FCF1BB;}
	.st33{fill:none;stroke:#000000;stroke-width:2.4664;stroke-linecap:round;stroke-linejoin:round;stroke-miterlimit:10;}
	.st34{stroke:#000000;stroke-width:3.6996;stroke-linecap:round;stroke-linejoin:round;stroke-miterlimit:10;}
	.st35{fill:#DF2D69;stroke:#DF2D69;stroke-width:1.1718;stroke-linecap:round;stroke-linejoin:round;stroke-miterlimit:10;}
	.st36{stroke:#000000;stroke-width:2.4664;stroke-linecap:round;stroke-linejoin:round;stroke-miterlimit:10;}
	.st37{stroke:#000000;stroke-width:1.2332;stroke-linecap:round;stroke-linejoin:round;stroke-miterlimit:10;}
	.st38{stroke:#000000;stroke-width:3.4588;stroke-linecap:round;stroke-linejoin:round;stroke-miterlimit:10;}
	.st39{fill:none;stroke:#F5B886;stroke-width:2.4664;stroke-linecap:round;stroke-linejoin:round;stroke-miterlimit:10;}
	.st40{fill:#92D0DC;}
	.st41{fill:#0B0F1F;}
	.st42{clip-path:url(#XMLID_6_);fill:#FDF4BE;}
	.st43{fill:#F6306E;}
	.st44{fill:#F7FC84;}
	.st45{fill:#521A17;}
	.st46{fill:none;stroke:#5A415C;stroke-width:7.6228;stroke-linecap:round;stroke-linejoin:round;stroke-miterlimit:10;}
	.st47{fill:none;stroke:#B2D3D1;stroke-width:7.6228;stroke-linecap:round;stroke-linejoin:round;stroke-miterlimit:10;}
	.st48{fill:#DA285A;}
	.st49{fill:none;stroke:#C8EAE9;stroke-width:7.6228;stroke-linecap:round;stroke-linejoin:round;stroke-miterlimit:10;}
	.st50{fill:#2F2030;stroke:#5A415C;stroke-width:6.1701;stroke-linecap:round;stroke-linejoin:round;stroke-miterlimit:10;}
	.st51{fill:#F13363;}
	.st52{fill:none;stroke:#FFFFFF;stroke-width:4.636;stroke-linecap:round;stroke-miterlimit:10;}
	.st53{fill:none;stroke:#BC1200;stroke-width:4.636;stroke-linecap:round;stroke-miterlimit:10;}
	.st54{fill:#122950;}
	.st55{fill:#F9FCE8;}
	.st56{clip-path:url(#XMLID_7_);fill:#F5B886;}
	.st57{clip-path:url(#XMLID_7_);fill:#F9FCE8;}
	.st58{fill:#FFB922;}
	.st59{fill:#0F1A27;stroke:#0F1A27;stroke-width:1.1684;stroke-linecap:round;stroke-linejoin:round;stroke-miterlimit:10;}
	.st60{fill:none;stroke:#0F1A27;stroke-width:1.1891;stroke-linecap:round;stroke-linejoin:round;stroke-miterlimit:10;}
	.st61{fill:none;stroke:#0F1A27;stroke-width:2.3368;stroke-linecap:round;stroke-linejoin:round;stroke-miterlimit:10;}
	.st62{clip-path:url(#XMLID_8_);fill:#F5B886;}
	.st63{clip-path:url(#XMLID_8_);fill:#F9FCE8;}
	.st64{clip-path:url(#XMLID_9_);fill:#1A366B;}
	.st65{fill:#882615;}
	.st66{fill:#D84F33;}
	.st67{fill:#9BCB2F;}
	.st68{fill:none;stroke:#4B771B;stroke-width:2.8799;stroke-linecap:round;stroke-linejoin:round;stroke-miterlimit:10;}
	.st69{fill:none;stroke:#070606;stroke-width:2.8799;stroke-linecap:round;stroke-linejoin:round;stroke-miterlimit:10;}
	.st70{fill:#9DC7DF;stroke:#4B771B;stroke-width:2.8799;stroke-linecap:round;stroke-linejoin:round;stroke-miterlimit:10;}
	.st71{fill:#851A14;}
	.st72{fill:#A82621;}
	.st73{fill:#580F13;}
	.st74{fill:#BA4136;}
	.st75{fill:#E0A681;}
	.st76{fill:#FEE9C8;}
	.st77{fill:#8A5940;}
	.st78{fill:#FAEE16;}
	.st79{fill:#B94E0E;}
	.st80{fill:#C52512;}
	.st81{fill:#F63E7C;}
	.st82{fill:#F97010;}
	.st83{fill:#F74071;}
	.st84{fill:#D6D9EA;}
	.st85{fill:#EEF2F8;}
	.st86{fill:#E2DED9;}
	.st87{fill:#3D3E50;}
	.st88{fill:#C0C9C6;}
	.st89{fill:#FC2827;}
	.st90{fill:#F3181B;}
	.st91{fill:#D4E2DF;}
	.st92{fill:#F87AA4;}
	.st93{fill:#45303D;}
	.st94{opacity:0.7;fill:#806B8B;}
	.st95{fill:#FA373C;}
	.st96{fill:#FCF280;}
	.st97{opacity:0.4;fill:#8A8DB8;}
	.st98{fill:#F9BE11;}
	.st99{fill:#DD7203;}
	.st100{fill:#2F2030;}
	.st101{fill:#429E5D;}
	.st102{fill:#56B275;}
	.st103{fill:#CDECE7;}
	.st104{fill:#F6EED4;}
	.st105{fill:#F93627;}
	.st106{opacity:0.6;fill:#516C15;}
	.st107{fill:#ABCF12;}
	.st108{fill:#362337;}
	.st109{fill:#FFC310;}
	.st110{fill:#43484B;}
	.st111{fill:#D2E5DE;}
	.st112{fill:#A13A20;}
	.st113{fill:#C54933;}
	.st114{fill:#493748;}
	.st115{fill:#EB6754;}
	.st116{fill:#4369AE;}
	.st117{fill:none;stroke:#FA373C;stroke-width:2.2323;stroke-linecap:round;stroke-linejoin:round;stroke-miterlimit:10;}
	.st118{fill:none;stroke:#362337;stroke-width:2.2323;stroke-linecap:round;stroke-linejoin:round;stroke-miterlimit:10;}
	.st119{fill:none;stroke:#362337;stroke-width:4.0182;stroke-linecap:round;stroke-linejoin:round;stroke-miterlimit:10;}
	.st120{fill:none;stroke:#2F2030;stroke-width:3.1253;stroke-linecap:round;stroke-linejoin:round;stroke-miterlimit:10;}
	.st121{opacity:0.7;}
	.st122{fill:none;stroke:#2F2030;stroke-width:2.3561;stroke-linecap:round;stroke-linejoin:round;stroke-miterlimit:10;}
	.st123{opacity:0.85;fill:#806B8B;}
	.st124{fill:#379184;}
	.st125{fill:#33127D;}
	.st126{fill:#C5934A;}
	.st127{fill:#F8DC33;}
	.st128{fill:#264852;}
	.st129{fill:#F42D2E;}
</style>
<g>
	<g class="st0">
		<path d="M710.1,677.1c0-3-2.9-5.5-6.4-5.5H30.9c-3.5,0-6.4,2.5-6.4,5.5c0,3,2.9,5.5,6.4,5.5h672.8
			C707.2,682.6,710.1,680.1,710.1,677.1z"/>
	</g>
	<g>
		<rect x="324.5" y="353.4" class="st1" width="20.2" height="182.7"/>
		<rect x="324.5" y="256.6" class="st2" width="20.2" height="182.7"/>
		<path class="st3" d="M247.3,283.9c0-31.2,25.5-56.7,56.7-56.7h62.6c31.2,0,56.7,25.5,56.7,56.7v87.5c0,31.2-25.5,56.7-56.7,56.7
			H304c-31.2,0-56.7-25.5-56.7-56.7V283.9z"/>
		<path class="st4" d="M423.3,274.6v87.5c0,31.2-25.5,56.7-56.7,56.7H304c-31.2,0-56.7-25.5-56.7-56.7v-87.5
			c0-31.2,25.5-56.7,56.7-56.7h62.6C397.8,217.9,423.3,243.4,423.3,274.6z"/>
		<g>
			<g>
				<path class="st5" d="M280.7,508.6h-27.6c-13,0-23.6-10.6-23.6-23.6v-53.3"/>
				<path class="st5" d="M388.4,508.6H417c13,0,23.6-10.6,23.6-23.6v-53.3"/>
				<path class="st6" d="M360.5,664.9c0,6.2,5,11.2,11.2,11.2c6.2,0,11.2-5,11.2-11.2H360.5z"/>
				<path class="st6" d="M284,664.9c0,6.2,5,11.2,11.2,11.2c6.2,0,11.2-5,11.2-11.2H284z"/>
				<path class="st6" d="M222.8,664.9c0,6.2,5,11.2,11.2,11.2c6.2,0,11.2-5,11.2-11.2H222.8z"/>
				<rect x="324.5" y="532.9" class="st7" width="20.2" height="88.4"/>
				<polygon class="st8" points="344.7,533.2 344.7,561.6 324.5,555.4 324.5,533.2 				"/>
				<polygon class="st6" points="357.1,633.6 357.1,639.8 312.1,639.8 312.1,628.8 				"/>
				<path class="st2" d="M304.8,524.8c0-6,4.9-11,11-11h35.8c6,0,11,4.9,11,11v13c0,6-4.9,11-11,11h-35.8c-6,0-11-4.9-11-11V524.8z"
					/>
				<path class="st2" d="M271.2,505.6c0-6,4.9-11,11-11H387c6,0,11,4.9,11,11v16.6c0,6-4.9,11-11,11H282.2c-6,0-11-4.9-11-11V505.6z
					"/>
				<polyline class="st9" points="433.7,643.5 334.6,625.2 234,643.5 				"/>
				<polyline class="st9" points="371.7,643.5 334.6,625.2 296,643.5 				"/>
				<path class="st6" d="M422.4,664.9c0,6.2,5,11.2,11.2,11.2c6.2,0,11.2-5,11.2-11.2H422.4z"/>
				<g>
					<path class="st6" d="M422.4,665.5c-0.9,0-1.6-0.7-1.6-1.6c0-7.1,5.8-12.9,12.9-12.9c7.1,0,12.9,5.8,12.9,12.9
						c0,0.9-0.7,1.6-1.6,1.6H422.4z"/>
					<g>
						<path class="st6" d="M433.6,652.6c6.2,0,11.2,5,11.2,11.2h-22.5C422.4,657.6,427.4,652.6,433.6,652.6L433.6,652.6z
							 M433.6,649.3c-8,0-14.5,6.5-14.5,14.5c0,1.8,1.5,3.3,3.3,3.3h22.5c1.8,0,3.3-1.5,3.3-3.3
							C448.1,655.8,441.6,649.3,433.6,649.3L433.6,649.3z"/>
					</g>
				</g>
				<g>
					<path class="st6" d="M360.5,665.5c-0.9,0-1.6-0.7-1.6-1.6c0-7.1,5.8-12.9,12.9-12.9c7.1,0,12.9,5.8,12.9,12.9
						c0,0.9-0.7,1.6-1.6,1.6H360.5z"/>
					<g>
						<path class="st6" d="M371.7,652.6c6.2,0,11.2,5,11.2,11.2h-22.5C360.5,657.6,365.5,652.6,371.7,652.6L371.7,652.6z
							 M371.7,649.3c-8,0-14.5,6.5-14.5,14.5c0,1.8,1.5,3.3,3.3,3.3H383c1.8,0,3.3-1.5,3.3-3.3C386.3,655.8,379.7,649.3,371.7,649.3
							L371.7,649.3z"/>
					</g>
				</g>
				<g>
					<path class="st6" d="M284,665.5c-0.9,0-1.6-0.7-1.6-1.6c0-7.1,5.8-12.9,12.9-12.9c7.1,0,12.9,5.8,12.9,12.9
						c0,0.9-0.7,1.6-1.6,1.6H284z"/>
					<g>
						<path class="st6" d="M295.2,652.6c6.2,0,11.2,5,11.2,11.2H284C284,657.6,289,652.6,295.2,652.6L295.2,652.6z M295.2,649.3
							c-8,0-14.5,6.5-14.5,14.5c0,1.8,1.5,3.3,3.3,3.3h22.5c1.8,0,3.3-1.5,3.3-3.3C309.8,655.8,303.3,649.3,295.2,649.3L295.2,649.3
							z"/>
					</g>
				</g>
				<g>
					<path class="st6" d="M222.8,665.5c-0.9,0-1.6-0.7-1.6-1.6c0-7.1,5.8-12.9,12.9-12.9c7.1,0,12.9,5.8,12.9,12.9
						c0,0.9-0.7,1.6-1.6,1.6H222.8z"/>
					<g>
						<path class="st6" d="M234,652.6c6.2,0,11.2,5,11.2,11.2h-22.5C222.8,657.6,227.8,652.6,234,652.6L234,652.6z M234,649.3
							c-8,0-14.5,6.5-14.5,14.5c0,1.8,1.5,3.3,3.3,3.3h22.5c1.8,0,3.3-1.5,3.3-3.3C248.6,655.8,242.1,649.3,234,649.3L234,649.3z"/>
					</g>
				</g>
				<path class="st6" d="M320.7,622.4v-25.8c0-3,2.5-5.5,5.5-5.5h16.7c3,0,5.5,2.5,5.5,5.5v25.8H320.7z"/>
				<line class="st9" x1="433.6" y1="656.2" x2="433.6" y2="644.3"/>
				<line class="st9" x1="371.7" y1="656.2" x2="371.7" y2="644.3"/>
				<line class="st9" x1="295.2" y1="656.2" x2="295.2" y2="644.3"/>
				<line class="st9" x1="234" y1="656.2" x2="234" y2="644.3"/>
				<g>
					<path class="st10" d="M237.2,507.4c0,9.7,7.9,17.6,17.6,17.6h158.8c9.7,0,17.6-7.9,17.6-17.6H237.2z"/>
					<path class="st3" d="M239,492.9v6.9v7.1h190.9v-7.1v-6.9c0-13.5-11-24.5-24.5-24.5H263.5C250,468.4,239,479.4,239,492.9z"/>
				</g>
				<path class="st11" d="M333,480.5l0.9,0C333.6,480.5,333.3,480.5,333,480.5z"/>
				<path class="st3" d="M214.8,437.2c0-5.2,4.3-9.5,9.5-9.5h10.6c5.2,0,9.5,4.3,9.5,9.5v13.2c0,5.2-4.3,9.5-9.5,9.5h-10.6
					c-5.2,0-9.5-4.3-9.5-9.5V437.2z"/>
				<path class="st4" d="M214.8,427.5c0-5.2,4.3-9.5,9.5-9.5h10.6c5.2,0,9.5,4.3,9.5,9.5v6.6c0,5.2-4.3,9.5-9.5,9.5h-10.6
					c-5.2,0-9.5-4.3-9.5-9.5V427.5z"/>
				<path class="st3" d="M425.9,437.2c0-5.2,4.3-9.5,9.5-9.5h10.6c5.2,0,9.5,4.3,9.5,9.5v13.2c0,5.2-4.3,9.5-9.5,9.5h-10.6
					c-5.2,0-9.5-4.3-9.5-9.5V437.2z"/>
				<path class="st4" d="M425.9,427.5c0-5.2,4.3-9.5,9.5-9.5h10.6c5.2,0,9.5,4.3,9.5,9.5v6.6c0,5.2-4.3,9.5-9.5,9.5h-10.6
					c-5.2,0-9.5-4.3-9.5-9.5V427.5z"/>
			</g>
			<path class="st4" d="M405.3,468.4H263.5c-13.5,0-24.5,11-24.5,24.5v6.9h2.7c4.1-8,12.3-13.5,21.9-13.5h141.8
				c9.5,0,17.8,5.5,21.9,13.5h2.7v-6.9C429.8,479.4,418.8,468.4,405.3,468.4z"/>
			<path class="st11" d="M282.6,366.4c-0.3,0.3-0.5,0.5-0.6,0.5C282.1,366.7,282.3,366.6,282.6,366.4z"/>
		</g>
	</g>
	<g>
		<path class="st0" d="M276.3,207.9H74.6V14.6h201.8V207.9z"/>
		<g>
			<rect x="69" y="7.9" class="st12" width="195.1" height="186.6"/>
			<polygon class="st13" points="184.9,133.8 115.7,97 70.4,118.2 69,194.5 177.9,183.2 			"/>
			<polygon class="st14" points="264.1,194.5 69,194.5 211.8,81.5 261.3,126.7 			"/>
			<path class="st15" d="M173.6,56c0,10.9-8.9,19.8-19.8,19.8c-10.9,0-19.8-8.9-19.8-19.8c0-10.9,8.9-19.8,19.8-19.8
				C164.8,36.2,173.6,45.1,173.6,56z"/>
			<path class="st16" d="M267.5,197.9H65.7V4.6h201.8V197.9z M72.4,191.2h188.4V11.3H72.4V191.2z"/>
		</g>
		<path class="st17" d="M254.1,18v166.6H79V18H254.1L254.1,18z M260.8,11.3H72.4v179.9h188.4V11.3L260.8,11.3z"/>
	</g>
	<g>
		<g>
			<defs>
				<path id="XMLID_34_" d="M372.2,359.9c0,0,19,35.9,35.1,26.2c16.1-9.7-6.7-43.3-6.7-43.3s-7,1.6-15.4,6.7
					C376.9,354.6,372.2,359.9,372.2,359.9z"/>
			</defs>
			<use xlink:href="#XMLID_34_"  style="overflow:visible;fill:#FCF1BB;"/>
			<clipPath id="XMLID_2_">
				<use xlink:href="#XMLID_34_"  style="overflow:visible;"/>
			</clipPath>
			<path class="st18" d="M406.8,343.6c0,0,4.2,6-2.5,7.3c-3.3,0.6,2,8.4,2,8.4s-0.7,5.4-18.9,8.8c-18.2,3.4-17.9-26.1-17.9-26.1"/>
		</g>
		<path id="XMLID_39_" class="st19" d="M400.2,349.8c0,0-21.5,32.4-2.8,34.2c25.9,2.6,37.4-42.1,37.4-42.1L400.2,349.8z"/>
		<path class="st17" d="M402.9,342.8c0,0-24.4-43.3-43.9-30.9c-19.4,12.4,9.6,52.8,9.6,52.8s8.5-2.2,18.6-8.7
			C397.3,349.6,402.9,342.8,402.9,342.8z"/>
		<g>
			<defs>
				<path id="XMLID_35_" d="M286.6,359.8c0,0-22.7,28.8-35.4,17.6c-12.8-11.2,12.9-37.4,12.9-37.4s5.9,2.6,12.6,8.4
					C283.3,354.2,286.6,359.8,286.6,359.8z"/>
			</defs>
			<use xlink:href="#XMLID_35_"  style="overflow:visible;fill:#FCF1BB;"/>
			<clipPath id="XMLID_3_">
				<use xlink:href="#XMLID_35_"  style="overflow:visible;"/>
			</clipPath>
			<path class="st20" d="M258.5,339.7c0,0,3,10.2-3.2,19.7c-5.6,8.6,5.2,12.1,12.2,15.4c11.8,5.5,28.9-26.6,28.9-26.6"/>
		</g>
		<path class="st17" d="M259.7,340.8c0,0,31.8-38.3,48.7-22.6c16.9,15.7-18.9,50.3-18.9,50.3s-7.9-3.7-16.8-11.9
			C264,348.4,259.7,340.8,259.7,340.8z"/>
		<path class="st21" d="M381.2,415c0,14.9-12.2,27.1-27.1,27.1h-44.2c-14.9,0-27.1-12.2-27.1-27.1v-75.8c0-14.9,12.2-27.1,27.1-27.1
			h44.2c14.9,0,27.1,12.2,27.1,27.1V415z"/>
		<g>
			<path class="st22" d="M338.1,381.6c0,0-46.5-13-81-9.5l0.5,3l-2.5,0.4v8.6h167.2l-1.4-3.3l1.4-2.9l-2.8-1.3v-1.7
				C419.5,374.7,367.4,364.3,338.1,381.6z"/>
			<rect x="251.8" y="384" class="st23" width="174.8" height="3.5"/>
		</g>
		<g>
			<defs>
				<rect id="XMLID_22_" x="319.1" y="292.3" width="25.9" height="39.5"/>
			</defs>
			<use xlink:href="#XMLID_22_"  style="overflow:visible;fill:#F5B886;"/>
			<clipPath id="XMLID_4_">
				<use xlink:href="#XMLID_22_"  style="overflow:visible;"/>
			</clipPath>
			<path class="st24" d="M352.8,287c0,0,2.2,23.6-20.8,23.1c-23.1-0.5-19.8-24-19.8-24s8.4-1.1,20.4-0.8
				C344.5,285.6,352.8,287,352.8,287z"/>
			<path class="st25" d="M352.8,287c0,0,2.2,23.6-20.8,23.1c-23.1-0.5-19.8-24-19.8-24s8.4-1.1,20.4-0.8
				C344.5,285.6,352.8,287,352.8,287z"/>
		</g>
		<rect x="316.7" y="317.9" class="st21" width="30.5" height="30.5"/>
		<polygon class="st26" points="328.9,317.9 312.4,302.8 305.5,312 323.2,334.8 		"/>
		<polygon class="st27" points="329.2,317.9 349.9,302.8 358.5,312 336.5,334.8 		"/>
		<g>
			<path class="st28" d="M360.4,134.2c0,0,42.2-6.3,52.9,46.4c9.3,45.3-0.6,136-23.4,135.4c0,0,17.1,26.9-25.3,29.7
				c0,0,5.5-7.3-0.1-11.7c-7.9-6.3-5.3-14.9,0.3-19.5c4.3-3.6-1.2-8.9-1.2-8.9s-8.4-5,1.7-16.7"/>
			<path class="st29" d="M327.6,211.8c-37.9,3.2-64.1,19.1-64.4,35.3c-3.5-1.5-12.1-13-12.1-13s-12.6-42.4,13.6-81.2
				c23.8-35.3,82.3-41,110.5-8.4c21.6-3.7,42.2,19.4,31.4,76.6c-4.2-2.4-10.1,16-10.1,16S365.4,208.7,327.6,211.8z"/>
			<path id="XMLID_21_" class="st30" d="M274.7,235c0,0-4.1-16.3-18.2-8.2c-17.6,10.1,4.6,44.9,17.7,34"/>
			<g>
				<defs>
					<path id="XMLID_20_" d="M391.1,225.4c0,0,1.5-16.8,16.7-11c19,7.2,2.6,45.1-12.1,36.4"/>
				</defs>
				<use xlink:href="#XMLID_20_"  style="overflow:visible;fill:#FCF1BB;"/>
				<clipPath id="XMLID_5_">
					<use xlink:href="#XMLID_20_"  style="overflow:visible;"/>
				</clipPath>
				<path class="st31" d="M389.8,228c0,0,1.7-11.8,13.6-7.9c14.9,5,0.6,31.8-10.8,25.7"/>
			</g>
			<path class="st32" d="M396.8,245.2c2.7,33.5-34,57-62.3,59.6c-28.1,2.6-68.1-15.7-71-48.9l-3.4-43.1c-2.2-27.8,17-52.1,42.7-54.2
				l39.9-3.2c25.7-2.1,48.5,19,50.7,46.7L396.8,245.2z"/>
			<g>
				<path d="M297.1,236.4c0.3,4.4-2.1,8.1-5.6,8.4c-3.4,0.3-6.5-3-6.8-7.4c-0.3-4.4,2.1-8.1,5.6-8.4
					C293.7,228.7,296.8,232,297.1,236.4z"/>
				<path class="st17" d="M290,233c0.1,1.2-0.8,2.2-1.9,2.3c-1.2,0.1-2.2-0.8-2.3-1.9c-0.1-1.2,0.8-2.2,1.9-2.3
					C288.9,231,290,231.8,290,233z"/>
			</g>
			<path class="st19" d="M277.4,247.2c-4.4,0.3-8.1-2.1-8.4-5.6c-0.3-3.4,3-6.5,7.4-6.8c4.4-0.3,8.1,2.1,8.4,5.6
				C285.1,243.8,281.8,246.9,277.4,247.2z"/>
			<path class="st19" d="M376.3,244.6c-4.4,0.3-8.1-2.1-8.4-5.6c-0.3-3.4,3-6.5,7.4-6.8c4.4-0.4,8.1,2.1,8.4,5.6
				C384,241.2,380.7,244.2,376.3,244.6z"/>
			<path class="st19" d="M327.1,288.9c-2.9,0.2-5.3-1.4-5.5-3.7c-0.2-2.2,2-4.3,4.9-4.5c2.9-0.2,5.3,1.4,5.5,3.7
				C332.2,286.6,330,288.6,327.1,288.9z"/>
			<g>
				<path d="M279.7,216.1c-0.1,0-0.2,0-0.3-0.1c-0.2-0.2-0.3-0.5-0.1-0.7c0.3-0.5,7.2-12.4,16.2-12.4c3,0,6,1.4,8.7,4
					c0.2,0.2,0.2,0.4,0.1,0.6c-0.1,0.2-0.3,0.3-0.5,0.3c-0.1,0-15,0.2-23.7,8.1C280,216,279.9,216.1,279.7,216.1z"/>
				<path class="st19" d="M295.5,203.4c2.6,0,5.4,1.1,8.3,3.9c0,0-15.1,0.1-24,8.2C279.7,215.5,286.6,203.4,295.5,203.4
					 M295.5,202.3C295.5,202.3,295.5,202.3,295.5,202.3c-9.4,0-16.4,12.2-16.7,12.7c-0.3,0.5-0.1,1,0.3,1.4c0.2,0.2,0.4,0.2,0.7,0.2
					c0.3,0,0.5-0.1,0.7-0.3c8.5-7.8,23.2-8,23.3-8c0.4,0,0.8-0.3,1-0.7c0.2-0.4,0.1-0.9-0.2-1.2
					C301.7,203.7,298.6,202.3,295.5,202.3L295.5,202.3z"/>
			</g>
			<g>
				<path d="M371.8,211.5c-0.1,0-0.2,0-0.3-0.1c-5.8-3.8-13.3-4.6-18.5-4.6c-3.6,0-6.2,0.4-6.2,0.4c0,0-0.1,0-0.1,0
					c-0.2,0-0.4-0.1-0.5-0.3c-0.1-0.2-0.1-0.4,0-0.6c2.7-3.7,5.9-5.5,9.6-5.5c8.3,0,16,9.4,16.3,9.8c0.2,0.2,0.2,0.5,0,0.7
					C372,211.5,371.9,211.5,371.8,211.5z"/>
				<path class="st19" d="M355.9,201.4c8.2,0,15.9,9.6,15.9,9.6c-5.9-3.9-13.5-4.7-18.8-4.7c-3.7,0-6.3,0.4-6.3,0.4
					C349.6,202.8,352.8,201.4,355.9,201.4 M355.9,200.3c-3.9,0-7.2,1.9-10,5.7c-0.3,0.3-0.3,0.8-0.1,1.2c0.2,0.3,0.5,0.5,0.9,0.5
					c0.1,0,0.1,0,0.2,0c0,0,2.5-0.4,6.1-0.4c5.2,0,12.5,0.8,18.2,4.5c0.2,0.1,0.4,0.2,0.6,0.2c0.3,0,0.6-0.1,0.8-0.3
					c0.4-0.4,0.4-1,0-1.4C372.3,209.9,364.5,200.3,355.9,200.3L355.9,200.3z"/>
			</g>
			<g>
				<path class="st19" d="M322.9,257.9c-0.6-0.3-1-0.7-1.5-1.1c-0.5-0.4-0.9-0.8-1.3-1.3c-0.8-0.9-1.6-1.8-2.2-2.8l-0.5-0.7l0.5-0.7
					c1-1.5,2.1-3,3.3-4.4l0.1-0.1c0,0,0.1-0.1,0.2-0.2c0.1-0.1,0.1-0.2,0.2-0.3c0.1-0.2,0.3-0.5,0.3-0.8c0.1-0.3,0.2-0.5,0.2-0.8
					c0-0.1,0.1-0.3,0.1-0.4c0-0.1,0-0.3,0-0.4c0-0.3,0-0.6,0-0.9c0-0.3-0.1-0.6-0.1-0.9c-0.1-0.6-0.3-1.3-0.4-1.9
					c0.2,0.3,0.4,0.5,0.6,0.8c0.2,0.3,0.3,0.6,0.5,0.9c0.1,0.3,0.3,0.6,0.4,1c0.1,0.3,0.2,0.7,0.2,1c0.1,0.7,0.1,1.4,0,2.1
					c-0.1,0.4-0.1,0.7-0.3,1.1c-0.1,0.2-0.1,0.4-0.2,0.5c-0.1,0.2-0.2,0.3-0.3,0.6l0.1-0.1c-0.8,1.6-1.8,3.2-2.8,4.8l0-1.4
					c0.7,1,1.3,2,1.8,3.1c0.3,0.5,0.5,1.1,0.7,1.7C322.6,256.6,322.8,257.2,322.9,257.9z"/>
			</g>
			<g>
				<path class="st33" d="M281.1,237.6c-0.5-6.7,4.5-12.6,11.2-13.1c3.9-0.3,7.5,1.3,10,3.9"/>
				<path d="M275.8,230.4c0,0,0.5,0.4,1.1,0.9c0.3,0.2,0.6,0.5,1,0.8c0.2,0.1,0.3,0.2,0.5,0.3c0.2,0.1,0.3,0.2,0.4,0.2
					c0.1,0.1,0.3,0.1,0.4,0.2c0.1,0.1,0.3,0,0.5,0.1c0.2,0,0.4,0,0.6,0c0.2,0,0.4,0,0.6,0c0.4,0,0.7-0.1,1-0.1c0.3,0,0.5,0,0.5,0
					s0,0.2-0.2,0.4c-0.1,0.2-0.3,0.6-0.7,0.9c-0.2,0.2-0.4,0.4-0.6,0.5c-0.3,0.1-0.5,0.3-0.9,0.4c-0.3,0.1-0.7,0.2-1.1,0.1
					c-0.2,0-0.4,0-0.6-0.1c-0.2-0.1-0.4-0.1-0.5-0.2c-0.4-0.1-0.7-0.4-0.9-0.6c-0.2-0.3-0.5-0.5-0.6-0.8c-0.3-0.5-0.5-1.1-0.6-1.6
					C275.5,231,275.8,230.4,275.8,230.4z"/>
				<path d="M275.5,234.8c0,0,0.6,0.2,1.1,0.5c0.3,0.1,0.6,0.3,0.9,0.3c0.1,0,0.3,0.1,0.4,0.1c0.1,0,0.2,0,0.3,0c0.1,0,0.2,0,0.3,0
					c0.1,0,0.2,0,0.4,0c0.1,0,0.3,0,0.5-0.1c0.2,0,0.3-0.1,0.5-0.1c0.3-0.1,0.6-0.2,0.9-0.2c0.2,0,0.4-0.1,0.4-0.1s0,0.1,0,0.4
					c0,0.2-0.1,0.6-0.3,0.9c-0.1,0.2-0.2,0.4-0.4,0.6c-0.2,0.2-0.4,0.4-0.6,0.5c-0.2,0.2-0.5,0.3-0.8,0.4c-0.3,0.1-0.7,0.1-1,0.1
					c-0.4,0-0.7-0.1-1-0.3c-0.3-0.1-0.5-0.3-0.7-0.5c-0.4-0.4-0.6-0.8-0.7-1.2C275.3,235.4,275.5,234.8,275.5,234.8z"/>
			</g>
			<g>
				<path d="M362.8,233.4c0.3,4.4-2.1,8.1-5.6,8.4c-3.4,0.3-6.5-3-6.8-7.4c-0.3-4.4,2.1-8.1,5.6-8.4
					C359.4,225.7,362.5,229,362.8,233.4z"/>
				<path class="st17" d="M355.8,230c0.1,1.2-0.8,2.2-1.9,2.3c-1.2,0.1-2.2-0.8-2.3-1.9c-0.1-1.2,0.8-2.2,1.9-2.3
					C354.7,228,355.7,228.8,355.8,230z"/>
			</g>
			<g>
				<path class="st33" d="M372.7,233.4c-0.1-6.7-5.6-12.1-12.3-12c-3.9,0-7.4,1.9-9.6,4.8"/>
				<path d="M377.3,225.7c0,0-0.5,0.5-1,1c-0.3,0.3-0.6,0.6-0.9,0.9c-0.1,0.2-0.3,0.2-0.4,0.4c-0.2,0.1-0.3,0.2-0.4,0.3
					c-0.1,0.1-0.3,0.1-0.4,0.2c-0.1,0.1-0.3,0.1-0.5,0.1c-0.2,0-0.4,0-0.6,0.1c-0.2,0-0.4,0-0.6,0c-0.4,0-0.7,0-1,0
					c-0.3,0-0.4,0-0.4,0s0.1,0.2,0.2,0.4c0.2,0.2,0.3,0.6,0.7,0.9c0.2,0.1,0.4,0.3,0.7,0.5c0.3,0.1,0.6,0.2,0.9,0.3
					c0.3,0,0.7,0.1,1.1,0c0.2,0,0.4-0.1,0.6-0.1c0.2-0.1,0.4-0.2,0.5-0.3c0.4-0.2,0.6-0.4,0.9-0.7c0.2-0.3,0.4-0.5,0.6-0.8
					c0.3-0.6,0.4-1.1,0.4-1.6C377.7,226.4,377.3,225.7,377.3,225.7z"/>
				<path d="M378,230.1c0,0-0.5,0.3-1.1,0.6c-0.3,0.1-0.6,0.3-0.9,0.4c-0.1,0.1-0.3,0.1-0.4,0.1c-0.1,0-0.2,0.1-0.3,0.1
					c-0.1,0.1-0.2,0-0.3,0.1c-0.1,0-0.2,0-0.4,0c-0.1,0-0.3,0-0.5,0c-0.2,0-0.3,0-0.5-0.1c-0.3,0-0.6-0.1-0.9-0.1
					c-0.2,0-0.4,0-0.4,0s0,0.1,0.1,0.4c0.1,0.2,0.1,0.6,0.4,0.9c0.1,0.2,0.2,0.4,0.4,0.5c0.2,0.2,0.4,0.3,0.6,0.5
					c0.2,0.1,0.6,0.2,0.9,0.3c0.3,0,0.7,0.1,1,0c0.3-0.1,0.7-0.2,0.9-0.4c0.3-0.2,0.5-0.4,0.7-0.6c0.4-0.4,0.5-0.9,0.6-1.3
					C378.3,230.7,378,230.1,378,230.1z"/>
			</g>
			<path class="st34" d="M270.3,158c0,0-4.3,27.8,91.6,33.8c20,1.3,23.7,22.5,32.9,30c9.3,7.6,15.8-28.9,8-51.8
				c0,0-8.5-41.6-77.2-31.4"/>
			<path class="st35" d="M363.9,307.8c0,0,14.5-13.9,31.5,7.4l-2.4,2.8c0,0-16-15.6-28.5-6L363.9,307.8z"/>
			<path class="st36" d="M305.1,170.8c-1,0.1-43.2-7.2-43.5,61.8c0,0-11.3-13.3-8-44c2.2-20.7,25.9-34.5,25.9-34.5"/>
			<path class="st37" d="M278.3,173.1c0,0-0.1,21.3,33.2,18.3c0,0-14.4-5.3-16-14.5"/>
			<path d="M261.3,225.3c0,0-0.2,0-0.5,0.1c-0.3,0.1-0.8,0.1-1.3,0.2c-1.1,0.2-2.7,0.6-4.5,1.1c-1.8,0.5-3.7,1.3-5.4,2.5
				c-0.4,0.3-0.8,0.6-1.3,0.9c-0.4,0.4-0.8,0.7-1.1,1.1c-0.7,0.7-1.4,1.6-1.9,2.5c-0.3,0.5-0.6,0.9-0.8,1.4c-0.2,0.5-0.5,1-0.7,1.5
				c-0.4,1-0.7,2.1-1,3.2c-0.2,0.5-0.2,1.1-0.3,1.6c-0.1,0.5-0.2,1.1-0.3,1.6c-0.2,1-0.3,2.1-0.4,3c-0.2,0.9-0.2,1.8-0.3,2.6
				c-0.1,0.8-0.2,1.5-0.2,2.1c-0.1,1.2-0.3,1.8-0.3,1.8s-0.3-0.6-0.8-1.7c-0.2-0.5-0.5-1.2-0.8-2c-0.2-0.8-0.6-1.7-0.7-2.7
				c-0.1-0.5-0.2-1-0.3-1.6c-0.1-0.6-0.1-1.1-0.2-1.7c-0.1-0.6-0.1-1.2-0.1-1.8c0-0.6,0-1.3,0.1-2c0.1-1.3,0.3-2.7,0.7-4.1
				c0.2-0.7,0.4-1.4,0.8-2.1c0.3-0.7,0.7-1.4,1-2c0.8-1.3,1.8-2.5,3-3.5c1.1-1,2.4-1.8,3.7-2.3c1.3-0.6,2.6-0.9,3.8-1.1
				c1.2-0.2,2.4-0.2,3.5-0.2c2.1,0.1,3.8,0.5,4.9,0.9C260.7,225,261.3,225.3,261.3,225.3z"/>
			<path d="M260.4,222.6c0,0-0.1,0.2-0.4,0.5c-0.2,0.3-0.6,0.7-1,1.3c-0.8,1.1-6.1,8.8-7.2,19.4c-1.1,10.5,4,22.7,4,22.7
				s-0.7-0.5-1.8-1.4c-0.6-0.4-1.2-1-1.9-1.7c-0.4-0.4-0.7-0.7-1.1-1.1c-0.4-0.4-0.7-0.9-1.1-1.4c-0.4-0.5-0.8-1-1.2-1.6
				c-0.4-0.6-0.8-1.1-1.1-1.8c-0.3-0.6-0.7-1.3-1-2c-0.3-0.7-0.6-1.4-0.9-2.2c-0.5-1.5-0.9-3.2-1.1-4.9c-0.1-0.9-0.2-1.7-0.2-2.6
				c0-0.9,0-1.8,0.1-2.6c0.1-0.9,0.3-1.7,0.4-2.6c0.2-0.8,0.4-1.7,0.7-2.5c0.5-1.6,1.3-3.1,2.1-4.5c1.7-2.8,3.7-5,5.6-6.6
				c0.9-0.8,1.9-1.5,2.7-2c0.8-0.6,1.6-1,2.2-1.3C259.7,222.8,260.4,222.6,260.4,222.6z"/>
			<path d="M396.1,211.8c0,0,0,0.2,0.1,0.6c0,0.4,0.1,0.9,0.2,1.6c0.2,1.4,0.4,3.3,0.9,5.5c0.4,2.2,1,4.6,1.9,6.8
				c0.4,1.1,0.9,2.2,1.5,3.1c0.6,1,1.2,1.8,1.9,2.6c0.4,0.4,0.7,0.7,1.1,1c0.4,0.3,0.8,0.6,1.2,0.8c0.2,0.1,0.4,0.3,0.6,0.3
				c0.2,0.1,0.4,0.2,0.7,0.3c0.4,0.2,0.9,0.3,1.4,0.5c0.5,0.1,0.9,0.2,1.4,0.3c0.5,0.1,0.9,0.1,1.4,0.2c0.4,0.1,0.9,0,1.4,0.1
				c0.4,0,0.9,0,1.3,0c0.9,0,1.7-0.1,2.4-0.2c0.7-0.1,1.4-0.1,1.9-0.2c1.1-0.2,1.7-0.2,1.7-0.2s-0.6,0.5-1.8,1.4
				c-0.6,0.4-1.3,0.9-2.1,1.4c-0.4,0.2-0.8,0.5-1.3,0.7c-0.4,0.2-0.9,0.4-1.4,0.7c-0.5,0.2-1,0.4-1.5,0.6c-0.5,0.2-1.1,0.4-1.6,0.5
				c-0.6,0.1-1.1,0.2-1.7,0.3c-0.6,0-1.2,0.1-1.8,0c-1.2-0.1-2.4-0.3-3.5-0.8c-0.5-0.3-1.1-0.5-1.6-0.9c-0.5-0.3-1-0.8-1.5-1.2
				c-0.5-0.5-0.9-1-1.3-1.6c-0.4-0.6-0.7-1.2-1-1.8c-0.7-1.3-1.1-2.7-1.5-4.2c-0.7-3-0.9-6.1-0.8-8.8c0-1.4,0.2-2.7,0.3-3.8
				c0.1-1.1,0.3-2.1,0.4-3C395.8,212.7,396.1,211.8,396.1,211.8z"/>
			<path class="st38" d="M362,329.9c0,0,3.3,8-0.2,11.4c5.8,0.4,9-3.3,9.7-5.7"/>
			<path class="st39" d="M309.1,270.9c0,0,1.3,3.5,15.7,2.9c13-0.6,16.7-4.4,16.7-4.4"/>
		</g>
		<g>
			
				<rect x="228.3" y="329.4" transform="matrix(0.9902 -0.1396 0.1396 0.9902 -48.0993 38.1545)" class="st40" width="39.2" height="64.8"/>
			<path class="st41" d="M236,336.9c0.3,2.1-1.2,4-3.3,4.3c-2.1,0.3-4-1.2-4.3-3.3c-0.3-2.1,1.2-4,3.3-4.3
				C233.7,333.4,235.7,334.8,236,336.9z"/>
		</g>
		<g>
			<defs>
				<path id="XMLID_38_" d="M231.9,389.2c13.1-8.6,3-8.6,3-8.6c12.9-11.5-0.6-8.2-0.6-8.2c11.7-11.5-1.2-10.2-1.2-10.2
					c11.1-9.8-5.5-6.2-5.5-6.2l-1.3-6.2c-15.5,1.8-13.7,18.6-11.9,24.6C220.8,395.4,231.9,389.2,231.9,389.2z"/>
			</defs>
			<use xlink:href="#XMLID_38_"  style="overflow:visible;fill:#F5B886;"/>
			<clipPath id="XMLID_6_">
				<use xlink:href="#XMLID_38_"  style="overflow:visible;"/>
			</clipPath>
			<path class="st42" d="M229.9,389.2c13.1-8.6,3-8.6,3-8.6c12.9-11.5-0.6-8.2-0.6-8.2c11.7-11.5-1.2-10.2-1.2-10.2
				c11.1-9.8-5.5-6.2-5.5-6.2l-1.3-6.2c-15.5,1.8-13.7,18.6-11.9,24.6C218.8,395.4,229.9,389.2,229.9,389.2z"/>
		</g>
		<g>
			
				<rect x="407.3" y="291.3" transform="matrix(-0.9667 -0.2558 0.2558 -0.9667 729.7316 748.2054)" class="st43" width="12.3" height="70.7"/>
			<polygon class="st44" points="398.5,359.3 410.2,362.4 404.7,367.9 401.7,370.9 400.6,366.8 			"/>
			<polygon class="st45" points="400.6,366.8 404.7,367.9 401.7,370.9 			"/>
		</g>
		<path class="st32" d="M421.8,357.5c2.4-0.6,10.6-3.1,12.9-13.9c2.3-10.7,8.9-26.4-13-30.3c-21.9-3.9-15.6,7.4-15.6,7.4
			s-8.3,4.6-3.7,10.8c0,0-8.5,6.4-2.7,10.5c0,0-5.5,5.1,0.6,10.4C406.3,357.7,416.2,359,421.8,357.5z"/>
	</g>
	<g>
		<line class="st46" x1="84.4" y1="357.1" x2="84.4" y2="369.4"/>
		<polyline class="st47" points="23.4,233.2 92.5,357.1 77.6,356.8 5.8,227.5 		"/>
		<path class="st6" d="M113.2,373.3c1,0,1.8-0.8,1.8-1.8v-11.7c0-1-0.8-1.8-1.8-1.8h-7.9c-1,0-1.8,0.8-1.8,1.8v11.7
			c0,1,0.8,1.8,1.8,1.8H113.2z"/>
		<path class="st43" d="M135.2,386.4H42.5c0,0-1.2-8.8,4.2-14.6c2.7-2.9,6.9-5.1,13.8-5.1h56.8c6.6,0,10.8,2.2,13.5,5.1
			C136,377.6,135.2,386.4,135.2,386.4z"/>
		<path class="st48" d="M87.5,370.9h-40c-6.2,5.8-5,15.4-5,15.4h40C82.5,386.4,81.3,376.7,87.5,370.9z"/>
		<g>
			<line class="st46" x1="162.7" y1="116.2" x2="143" y2="124.9"/>
			<line class="st47" x1="143.2" y1="127.2" x2="21.6" y2="233.2"/>
			<line class="st49" x1="132.3" y1="119.4" x2="5.8" y2="227.5"/>
			<path class="st50" d="M4.7,232.9c1.2,6.2,7.3,10.2,13.7,8.9c6.3-1.2,10.5-7.3,9.2-13.4c-1.2-6.2-7.3-10.2-13.7-8.9
				C7.6,220.7,3.5,226.8,4.7,232.9z"/>
			<path class="st50" d="M121.4,130.7c1.2,6.2,7.3,10.2,13.7,8.9c6.3-1.2,10.5-7.3,9.2-13.5c-1.2-6.2-7.3-10.2-13.7-8.9
				C124.3,118.5,120.2,124.5,121.4,130.7z"/>
		</g>
		<g>
			<path class="st43" d="M162.1,123.3l-2.9,47.1c-0.1,1.9,1.3,2.9,3.1,2.2l56.8-22.3c1.8-0.7,2.1-2.3,0.6-3.6l-36.1-31.9
				L162.1,123.3z"/>
			<path class="st51" d="M156.4,110c-2.5-6,0.4-12.7,6.4-15.1c6-2.4,12.9,0.6,15.4,6.5l5.6,13.5l-21.8,8.6L156.4,110z"/>
		</g>
		<line class="st52" x1="196.2" y1="138.5" x2="180.2" y2="121.3"/>
		<line class="st52" x1="206.1" y1="149" x2="201.2" y2="143.8"/>
		<line class="st53" x1="161.2" y1="173.1" x2="220.3" y2="149.9"/>
	</g>
	<g>
		<path class="st54" d="M275.2,429.4c0,0-45.8,82.2,55.8,82.2c101.6,0,59.3-82.2,59.3-82.2s-6.1-18.1-58.4-18.1
			S275.2,429.4,275.2,429.4z"/>
		<g>
			<path class="st55" d="M303.2,605.7c-0.6,0-1.2,0-1.8-0.1c-10.9-1.1-18.9-11.3-18-22.9l2.8-32.2c1-11.6,10.6-20.1,21.5-19.1
				c10.9,1.1,18.9,11.3,18,22.9l-2.8,32.2C322,597.5,313.3,605.7,303.2,605.7z"/>
			<g>
				<defs>
					<path id="XMLID_17_" d="M305.5,574.8c-9,0-16.4-7.3-16.4-16.4v-91.5c0-9,7.3-16.4,16.4-16.4c9,0,16.4,7.3,16.4,16.4v91.5
						C321.8,567.4,314.5,574.8,305.5,574.8z"/>
				</defs>
				<use xlink:href="#XMLID_17_"  style="overflow:visible;fill:#FCF1BB;"/>
				<clipPath id="XMLID_7_">
					<use xlink:href="#XMLID_17_"  style="overflow:visible;"/>
				</clipPath>
				<path id="XMLID_18_" class="st56" d="M305.5,481.2c-9,0-16.4-3.2-16.4-7.1v-39.8c0-3.9,7.3-7.1,16.4-7.1c9,0,16.4,3.2,16.4,7.1
					v39.8C321.8,478,314.5,481.2,305.5,481.2z"/>
				<rect x="285.7" y="527.2" class="st57" width="40" height="61.7"/>
			</g>
			<line class="st58" x1="305.5" y1="554.8" x2="302.8" y2="584.3"/>
			<path class="st59" d="M316.5,548.3c0,0,0.4,22.6-15.7,20.9c-14.8-1.6-9.3-23.7-9.3-23.7c1.8-6.3-1.2-7.2-2.3-6.7
				c-2,1-2.7,7.2-2.8,8.7l-2.7,29.5c-1,10.6,6.9,20,17.5,20.9c0.6,0.1,1.2,0.1,1.8,0.1c9.9,0,18.3-7.5,19.2-17.5l2.7-29.5
				c0.2-2.5,1.1-10.9-2.8-12.2C316.1,538.7,316.5,548.3,316.5,548.3z"/>
			<g>
				<path class="st23" d="M316.4,541.9c-0.1,1.3-1.2,2.3-2.5,2.2l-18.7-1c-1.3-0.1-2.3-1.2-2.2-2.5l0.4-8.4c0.1-1.3,1.2-2.3,2.5-2.2
					l18.7,1c1.3,0.1,2.3,1.2,2.2,2.5L316.4,541.9z"/>
				<path class="st60" d="M316.4,541.9c-0.1,1.3-1.2,2.3-2.5,2.2l-18.7-1c-1.3-0.1-2.3-1.2-2.2-2.5l0.4-8.4c0.1-1.3,1.2-2.3,2.5-2.2
					l18.7,1c1.3,0.1,2.3,1.2,2.2,2.5L316.4,541.9z"/>
			</g>
			<path class="st61" d="M291.4,541.2c0,0,11.3,12.3,27.7,13.6"/>
			<path class="st61" d="M320.4,543.2c0,0-16.2,8-31.1,9.5"/>
			<line class="st61" x1="317" y1="554.1" x2="289.3" y2="564.5"/>
			<line class="st61" x1="289.3" y1="552.8" x2="313.4" y2="567.4"/>
		</g>
		<g>
			<path class="st55" d="M359.9,605.7c0.6,0,1.2,0,1.8-0.1c10.9-1.1,18.9-11.3,18-22.9l-2.8-32.2c-1-11.6-10.6-20.1-21.5-19.1
				c-10.9,1.1-18.9,11.3-18,22.9l2.8,32.2C341.1,597.5,349.8,605.7,359.9,605.7z"/>
			<g>
				<defs>
					<path id="XMLID_19_" d="M357.6,574.8c9,0,16.4-7.3,16.4-16.4v-91.5c0-9-7.3-16.4-16.4-16.4c-9,0-16.4,7.3-16.4,16.4v91.5
						C341.3,567.4,348.6,574.8,357.6,574.8z"/>
				</defs>
				<use xlink:href="#XMLID_19_"  style="overflow:visible;fill:#FCF1BB;"/>
				<clipPath id="XMLID_8_">
					<use xlink:href="#XMLID_19_"  style="overflow:visible;"/>
				</clipPath>
				<path id="XMLID_36_" class="st62" d="M357.6,481.2c9,0,16.4-4.1,16.4-9.1v-50.7c0-5-7.3-9.1-16.4-9.1c-9,0-16.4,4.1-16.4,9.1
					v50.7C341.3,477.2,348.6,481.2,357.6,481.2z"/>
				<rect x="337.4" y="527.2" class="st63" width="40" height="61.7"/>
			</g>
			<line class="st58" x1="357.6" y1="554.8" x2="360.3" y2="584.3"/>
			<path class="st59" d="M346.6,548.3c0,0-0.4,22.6,15.7,20.9c14.8-1.6,9.3-23.7,9.3-23.7c-1.8-6.3,1.2-7.2,2.3-6.7
				c2,1,2.7,7.2,2.8,8.7l2.7,29.5c1,10.6-6.9,20-17.5,20.9c-0.6,0.1-1.2,0.1-1.8,0.1c-9.9,0-18.3-7.5-19.2-17.5l-2.7-29.5
				c-0.2-2.5-1.1-10.9,2.8-12.2C347,538.7,346.6,548.3,346.6,548.3z"/>
			<g>
				<path class="st23" d="M346.7,541.9c0.1,1.3,1.2,2.3,2.5,2.2l18.7-1c1.3-0.1,2.3-1.2,2.2-2.5l-0.4-8.4c-0.1-1.3-1.2-2.3-2.5-2.2
					l-18.7,1c-1.3,0.1-2.3,1.2-2.2,2.5L346.7,541.9z"/>
				<path class="st60" d="M346.7,541.9c0.1,1.3,1.2,2.3,2.5,2.2l18.7-1c1.3-0.1,2.3-1.2,2.2-2.5l-0.4-8.4c-0.1-1.3-1.2-2.3-2.5-2.2
					l-18.7,1c-1.3,0.1-2.3,1.2-2.2,2.5L346.7,541.9z"/>
			</g>
			<path class="st61" d="M371.6,541.2c0,0-11.3,12.3-27.7,13.6"/>
			<path class="st61" d="M342.7,543.2c0,0,16.2,8,31.1,9.5"/>
			<line class="st61" x1="346.1" y1="554.1" x2="373.8" y2="564.5"/>
			<line class="st61" x1="373.8" y1="552.8" x2="349.7" y2="567.4"/>
		</g>
		<g>
			<defs>
				<path id="XMLID_37_" d="M275.2,429.4c0,0-24.8,44.6,2.7,68.1c5.3,4.6-2.3-23.2,8.2-29.1c15.4-8.6,23.9,4.5,46,4.5
					c24.4,0,28.3-13.2,42.5-4.5c13.3,8.1,5.8,33,11.3,28.2c26.9-23.7,4.6-67.3,4.6-67.3s-6.1-18.1-58.4-18.1
					S275.2,429.4,275.2,429.4z"/>
			</defs>
			<use xlink:href="#XMLID_37_"  style="overflow:visible;fill:#3558A6;"/>
			<clipPath id="XMLID_9_">
				<use xlink:href="#XMLID_37_"  style="overflow:visible;"/>
			</clipPath>
			<path class="st64" d="M255.7,495.3c0,0,4-44.6,43.6-44.6c14.1,0,18.6,6.8,34.4,6.8c13.1,0,16.1-6.8,33-6.8
				c42.9,0,41.3,42.6,41.3,42.6s27.9-90-74-90C232.1,403.4,255.7,495.3,255.7,495.3z"/>
		</g>
	</g>
	<rect x="636.3" y="396.2" class="st65" width="20.4" height="280"/>
	<rect x="646.8" y="396.2" class="st66" width="9.9" height="280"/>
	<rect x="563" y="396.2" class="st65" width="20.4" height="280"/>
	<rect x="573.7" y="396.2" class="st66" width="9.7" height="280"/>
	<path class="st65" d="M583.5,612.9v63.2H563V557.9c0-25.8,13.2-24.7,13.2-24.7l4,67.5L583.5,612.9z"/>
	<g>
		<g>
			<g>
				<path class="st67" d="M653.8,324.8c-7.5,7.2-21.1,5-21.1,5s-1.6-13.7,5.9-20.9c7.5-7.2,21.1-5,21.1-5S661.2,317.7,653.8,324.8z"
					/>
				<path class="st67" d="M604.9,326.6c6.7,5.6,18,3,18,3s0.5-11.6-6.1-17.2c-6.7-5.6-18-3-18-3S598.3,321.1,604.9,326.6z"/>
				<path class="st67" d="M618.3,305.4c2.5,5.4,10.3,7.1,10.3,7.1s3.7-7,1.2-12.4c-2.5-5.4-10.3-7.1-10.3-7.1S615.8,300,618.3,305.4
					z"/>
				<g>
					<path class="st68" d="M627.8,336c0,0,12.1-17.5,19.7-18.9"/>
					<path class="st68" d="M627.8,336c0,0-3.5-8.1-15.6-16.4"/>
					<line class="st69" x1="627.5" y1="348.3" x2="627.8" y2="336"/>
				</g>
				<line class="st70" x1="627.5" y1="348.3" x2="628.2" y2="313"/>
				<path class="st70" d="M624.6,303.8c2.4,3.6,3.8,5.6,3.7,10.2"/>
			</g>
			<polygon class="st71" points="648.7,347.3 647.7,352.9 641.3,386.7 612.2,386.2 607.2,353 606.4,347.4 			"/>
			<polygon class="st72" points="627.8,347.8 627.8,353.4 627.7,386.5 616.7,386.2 612.5,353.1 611.8,347.5 			"/>
			<polygon class="st73" points="648.7,347.3 647.7,352.9 607.2,353 606.4,347.4 			"/>
		</g>
		<g>
			<path class="st74" d="M606.3,350c-1.4,0-2.5-1.2-2.5-2.5c0-1.4,1.1-2.6,2.5-2.6l42.3-0.1c1.4,0,2.6,1.1,2.6,2.5
				c0,1.4-1.1,2.6-2.5,2.6L606.3,350C606.3,350,606.3,350,606.3,350z"/>
		</g>
		<g>
			<path class="st73" d="M642.4,389.3l-31.6-0.6c-1.4,0-2.5-1.2-2.5-2.6c0-1.4,1.2-2.5,2.6-2.5l31.6,0.6c1.4,0,2.5,1.2,2.5,2.6
				C645,388.2,643.9,389.3,642.4,389.3z"/>
		</g>
	</g>
	<rect x="114.3" y="396.2" class="st65" width="20.4" height="280"/>
	<rect x="42.1" y="396.2" class="st65" width="20.4" height="280"/>
	<rect x="41" y="396.3" class="st75" width="616.2" height="39"/>
	<rect x="582" y="414.8" class="st76" width="75.2" height="20.6"/>
	<rect x="41" y="395.2" class="st77" width="541.9" height="19.6"/>
	<rect x="15.2" y="386.2" class="st75" width="580.6" height="20.6"/>
	<rect x="592.9" y="386.2" class="st76" width="96.5" height="20.6"/>
	<g>
		<g>
			<g>
				<g>
					<path class="st78" d="M598.1,676.5h92.2c10,0,13.8-6.5,13.8-16.5v-99.8c0-3.1-2.9-5.6-6.4-5.6h-77.4c-3.5,0-6.4,2.5-6.4,5.6
						l-1.9,27.1l-5.7,79.7C606.3,670.2,594.6,676.5,598.1,676.5z"/>
					<path class="st79" d="M617.4,580.7h81c3.2,0,5.7-2.6,5.7-5.7v-21.4c0-3.1-2.9-5.6-6.4-5.6h-77.4c-3.5,0-6.4,2.5-6.4,5.6v23.6
						C613.9,579.1,615.5,580.7,617.4,580.7z"/>
					<path class="st79" d="M650.7,575.2c0,0,0,3.7,0,8.3c0,4.6,3.7,8.3,8.3,8.3c4.6,0,8.3-3.7,8.3-8.3c0-4.6,0-8.3,0-8.3H650.7z"/>
					<polygon class="st79" points="622.2,615.8 609.9,631.5 598.1,676.5 623.7,676.5 630.3,645.7 					"/>
					<path class="st43" d="M578.2,535.5v34.5c0,3.1,2.9,5.6,6.4,5.6h119.3c3.5,0,6.4-2.5,6.4-5.6v-15.3c0-0.7,0-1.4-0.1-2.1
						c-2-24.5-38.1-22.7-38.1-22.7h-87.5C581,529.9,578.2,532.4,578.2,535.5z"/>
					<path class="st80" d="M620.3,572.7h83.6c3.5,0,6.4-2.5,6.4-5.6v2.9c0,3.1-2.9,5.6-6.4,5.6h-83.6c-3.5,0-6.4-2.5-6.4-5.6v-2.9
						C613.9,570.2,616.7,572.7,620.3,572.7z"/>
					<path class="st81" d="M578.2,535.6v16.9h132c-0.7-8.3-5.3-13.6-11-16.9H578.2z"/>
					<path class="st79" d="M622.9,575.6c-5.5,0-8.9-2.3-8.9-9.3c0-6.9-13.7,10.5-13.7,10.5l13.2,1.9l8.6-0.7L622.9,575.6z"/>
					<path class="st82" d="M613.9,554.7v105.2c0,7.7-2,16.6-14.4,16.6h-11.3c-0.5,0-1,0-1.5-0.1c-9.7-0.8-11.1-9.5-11.1-15.9V535.6
						c0-3.1,2.8-5.6,6.2-5.6c0.2,0,0.5,0,0.7,0c10.4,0.8,28.9,4.7,31.1,21.4C613.8,552.5,613.9,553.6,613.9,554.7z"/>
					<path class="st79" d="M598.7,676.4h-11.9c-9.7-0.8-11.1-9.5-11.1-15.9v-31.5c6.7-1.1,15.2-0.1,15.5-0.1
						c0.7,0,16.9,16.8,16.9,16.8C608.1,659.3,609.3,676.4,598.7,676.4z"/>
				</g>
				<g>
					<path class="st78" d="M714.8,632.7v32.3c0,1.2-0.1,2.5-0.3,3.7c-0.7,4.1-3,7.8-9.6,7.8h-76.8l-0.7-7.8l-2.8-32.5l-1.8-20.5
						h70.5C700.9,616.4,714.8,619.3,714.8,632.7z"/>
					<path class="st79" d="M714.5,668.8c-0.7,4.1-3,7.8-9.6,7.8h-76.8l-0.7-7.8H714.5z"/>
					<path class="st83" d="M623,618.5l12.1,20.1c0.1,1.4,1.2,2.4,2.6,2.4H717c1.4,0,2.6-1.2,2.6-2.6v-5.7c0-13.3-13.8-16.3-21.4-17
						c-0.1,0-0.2,0-0.2,0h-75.2C621.3,615.7,622.9,617,623,618.5z"/>
					<path class="st82" d="M643.8,632.7v32.3c0,5.3-1.4,11.4-9.9,11.4h-21c8.5,0,9.3-9.9,9.4-14.9c0.1-3.2,0.1-21.5,0-34
						c0-6.8,0-11.9,0-11.9c6.5,0.5,17.7,2.8,20.8,11.9C643.5,629.1,643.8,630.8,643.8,632.7z"/>
				</g>
			</g>
			<path class="st78" d="M652.9,641c-6.6,0-9.1-1.4-9.1-6.7v20L652.9,641z"/>
			<path class="st82" d="M608.4,628.1v29.3c0,5.5-1.4,11.9-10.3,11.9h-13.5c-7.9,0-9-6.6-9-11.5v-29.8H608.4z"/>
			<path class="st78" d="M608.4,627.8v23.2c0,4.2-1.1,9.2-7.9,9.2h-2c-6.1,0-6.9-5.1-6.9-8.8v-23.6H608.4z"/>
			<polygon class="st82" points="575.5,627.9 608.5,627.9 608.5,637.6 575.5,643.9 			"/>
			
				<rect x="575.5" y="625.8" transform="matrix(-1 -1.224647e-16 1.224647e-16 -1 1184.0656 1261.254)" class="st84" width="33" height="9.6"/>
			
				<rect x="591.6" y="625.8" transform="matrix(-1 1.181223e-04 -1.181223e-04 -1 1200.1753 1261.2339)" class="st85" width="16.9" height="9.7"/>
			<path class="st82" d="M653.4,575.5c0,0,0,3,0,7.1c0,3.8,3.4,7,7.6,7.3c0.2,0,0.5,0,0.7,0c0.3,0,0.7,0,1-0.1
				c4.1-0.5,7.3-3.6,7.3-7.3v-5.4c0-1.1,0-1.7,0-1.7H653.4z"/>
			<path class="st86" d="M661,589.5c-3.3-1-5.6-3.7-5.6-6.9c0-4,0-7.1,0-7.1H670c0,0,0,0.6,0,1.7v5.4c0,0.2,0,0.5,0,0.7
				c0,0.2-0.1,0.5-0.1,0.7c0,0.2-0.1,0.4-0.2,0.6c-0.1,0.2-0.1,0.4-0.2,0.6c0,0.1-0.1,0.2-0.1,0.3c0,0,0,0,0,0
				c-0.1,0.1-0.1,0.3-0.2,0.4c-0.1,0.2-0.2,0.4-0.3,0.5c-0.1,0.2-0.3,0.4-0.5,0.6c-0.1,0.1-0.2,0.3-0.4,0.4
				c-0.1,0.2-0.3,0.3-0.4,0.4c-0.2,0.1-0.3,0.3-0.5,0.4c0,0,0,0-0.1,0.1c-0.2,0.1-0.3,0.3-0.5,0.4c0,0-0.1,0-0.1,0.1
				c-0.2,0.1-0.4,0.2-0.6,0.3c-0.1,0-0.2,0.1-0.3,0.1c-0.1,0.1-0.3,0.1-0.5,0.2c-0.4,0.1-0.8,0.3-1.2,0.4c-0.3,0.1-0.6,0.1-1,0.2
				L661,589.5z"/>
			<path class="st85" d="M661,589.5c0.2-9,5.1-11.6,9-12.3v5.4c0,0.2,0,0.5,0,0.7c0,0.1,0,0.1,0,0.2c0,0.2,0,0.3-0.1,0.5
				c0,0.2-0.1,0.4-0.1,0.5c-0.1,0.3-0.2,0.6-0.4,0.9c-0.1,0.1-0.1,0.3-0.2,0.4c-0.2,0.4-0.5,0.8-0.8,1.1c-0.1,0.1-0.2,0.3-0.4,0.4
				c-0.8,0.8-1.7,1.4-2.8,1.9c-0.1,0-0.2,0.1-0.2,0.1c-0.2,0.1-0.4,0.1-0.6,0.2c-0.2,0.1-0.3,0.1-0.5,0.1c-0.2,0-0.3,0.1-0.5,0.1
				c-0.2,0-0.4,0.1-0.6,0.1L661,589.5z"/>
		</g>
		<path class="st80" d="M613.7,551.5h-38v-15.8c0-3.1,2.8-5.6,6.2-5.6c0.2,0,0.5,0,0.7,0C593,531,611.6,534.8,613.7,551.5z"/>
		<path class="st87" d="M643,627.6h-20.7c0-6.8,0-11.9,0-11.9C628.7,616.3,639.9,618.5,643,627.6z"/>
	</g>
	<polygon class="st65" points="583.6,435.2 562.8,435.2 562.8,448.9 573.2,442 583.6,442 	"/>
	<polygon class="st65" points="656.7,435.2 656.7,442 646.3,442 636.3,449.2 636.3,435.2 	"/>
	<path class="st88" d="M230.5,355.8c-0.1,0.2-0.2,0.2-0.2,0.2C230.3,355.9,230.3,355.9,230.5,355.8z"/>
	<path class="st87" d="M609.3,551.5h-29.7v-12.3c0-2.4,2.2-4.4,4.9-4.4c0.2,0,0.4,0,0.6,0C593.2,535.4,607.7,538.4,609.3,551.5z"/>
	<g>
		<polygon class="st89" points="629,358.7 629,386.6 494.7,386.6 494.7,380.3 498.3,380.3 498.3,365 494.7,365 494.7,358.7 		"/>
		<polygon class="st90" points="558.7,358.7 558.7,386.6 494.7,386.6 494.7,380.3 498.3,380.3 498.3,365 494.7,365 494.7,358.7 		
			"/>
		<rect x="497.2" y="365" class="st91" width="54.5" height="15.3"/>
	</g>
	<g>
		<path class="st79" d="M655.3,641.1c0,0,0,2.7,0,5.9s2.7,5.9,5.9,5.9s5.9-2.7,5.9-5.9s0-5.9,0-5.9H655.3z"/>
		<path class="st82" d="M657.2,641.1c0,0,0,2.4,0,5.2c0,2.7,2.4,5,5.4,5.2c0.2,0,0.3,0,0.5,0c0.2,0,0.5,0,0.7,0
			c2.9-0.3,5.2-2.5,5.2-5.2v-3.8c0-0.8,0-1.4,0-1.4H657.2z"/>
		<path class="st86" d="M662.6,651.2c-2.3-0.7-4-2.7-4-4.9c0-2.9,0-5.2,0-5.2H669c0,0,0,0.6,0,1.4v3.8c0,0.2,0,0.3,0,0.5
			c0,0.2,0,0.3-0.1,0.5c0,0.1-0.1,0.3-0.1,0.4c0,0.1-0.1,0.3-0.1,0.4c0,0.1-0.1,0.1-0.1,0.2c0,0,0,0,0,0c0,0.1-0.1,0.2-0.2,0.3
			c-0.1,0.1-0.2,0.3-0.2,0.4c-0.1,0.1-0.2,0.3-0.3,0.4c-0.1,0.1-0.2,0.2-0.3,0.3c-0.1,0.1-0.2,0.2-0.3,0.3c-0.1,0.1-0.2,0.2-0.3,0.3
			c0,0,0,0-0.1,0c-0.1,0.1-0.3,0.2-0.4,0.3c0,0,0,0-0.1,0c-0.1,0.1-0.3,0.2-0.4,0.2c-0.1,0-0.2,0.1-0.2,0.1c-0.1,0-0.2,0.1-0.3,0.1
			c-0.3,0.1-0.6,0.2-0.9,0.3c-0.2,0-0.5,0.1-0.7,0.1L662.6,651.2z"/>
		<path class="st85" d="M662.6,651.2c0.1-6.4,3.7-8.2,6.4-8.8v3.8c0,0.2,0,0.3,0,0.5c0,0,0,0.1,0,0.2c0,0.1,0,0.2-0.1,0.3
			c0,0.1-0.1,0.3-0.1,0.4c-0.1,0.2-0.2,0.5-0.3,0.7c0,0.1-0.1,0.2-0.2,0.3c-0.2,0.3-0.4,0.6-0.6,0.8c-0.1,0.1-0.2,0.2-0.3,0.3
			c-0.6,0.6-1.2,1-2,1.3c-0.1,0-0.1,0-0.2,0.1c-0.1,0.1-0.3,0.1-0.4,0.1c-0.1,0-0.2,0.1-0.3,0.1c-0.1,0-0.2,0.1-0.4,0.1
			c-0.1,0-0.3,0-0.4,0.1L662.6,651.2z"/>
	</g>
	<path class="st79" d="M622.1,654.8c0,10.5-0.9,21.6,12.8,21.6h-23.3l7.6-11.1L622.1,654.8z"/>
	<path class="st92" d="M110,381.4c-0.4-2.8-1.2-6.4-3.2-9.7h10.5c4.4,0,7.6,1.1,9.7,3.5c1.7,1.8,2.5,4.2,2.9,6.3H110z"/>
	<g>
		<g class="st0">
			<path d="M496.4,161.9c-2.4,0.1-4,2-3.5,4.4l6.2,31.8c0.5,2.4,2.8,4.3,5.2,4.3h204.6c2.4,0,3.9-1.9,3.4-4.3l-8.1-36.3
				c-0.5-2.4-2.9-4.2-5.3-4.2L496.4,161.9z"/>
		</g>
		<g>
			<path class="st93" d="M693,171.4c0,0.8-0.6,1.4-1.4,1.4h-5.4c-0.8,0-1.4-0.6-1.4-1.4v-4.5c0-0.8,0.6-1.4,1.4-1.4h5.4
				c0.8,0,1.4,0.6,1.4,1.4V171.4z"/>
		</g>
		<g>
			<path class="st93" d="M507.6,171.4c0,0.8-0.6,1.4-1.4,1.4h-5.4c-0.8,0-1.4-0.6-1.4-1.4v-4.5c0-0.8,0.6-1.4,1.4-1.4h5.4
				c0.8,0,1.4,0.6,1.4,1.4V171.4z"/>
		</g>
		<polygon class="st94" points="621.7,111.9 614.3,161 697.8,158.8 692.3,128.2 691.5,131.3 683,90.8 678.6,111.9 		"/>
		<polygon class="st94" points="536.4,87.4 537,159.9 613,159.4 590.3,74.6 575.6,90.8 561.1,85.5 552.7,89.9 		"/>
		<polygon class="st94" points="520.2,159.9 528.1,159.4 539.4,128.3 524.9,74.6 510.2,90.8 		"/>
		<g>
			<g>
				<rect x="612.3" y="87" class="st95" width="70.7" height="19.6"/>
				<rect x="673.9" y="86.9" class="st96" width="3.9" height="19.7"/>
				<rect x="619.8" y="86.9" class="st96" width="3.9" height="19.7"/>
				<rect x="612.3" y="100.7" class="st97" width="70.7" height="5.9"/>
			</g>
			<rect x="611.2" y="145.8" class="st98" width="75" height="11.7"/>
			<rect x="611.2" y="145.8" class="st99" width="75" height="2.7"/>
			<rect x="614.8" y="106.7" class="st100" width="65.7" height="18.5"/>
			<g>
				<rect x="611.2" y="125.2" class="st101" width="75" height="20.6"/>
				<rect x="611.2" y="125.2" class="st102" width="75" height="3.7"/>
			</g>
			<g>
				<path class="st103" d="M658.5,114.3c0.4,0,0.8,0.4,0.8,0.8v1.7c0,0.4-0.4,0.8-0.8,0.8H622c-0.4,0-0.8-0.4-0.8-0.8v-1.7
					c0-0.4,0.4-0.8,0.8-0.8H658.5z"/>
			</g>
			<g>
				<path class="st103" d="M671.1,113.6c0.6,0,1.1,0.5,1.1,1.1v2.4c0,0.6-0.5,1.1-1.1,1.1h-2.8c-0.6,0-1.1-0.5-1.1-1.1v-2.4
					c0-0.6,0.5-1.1,1.1-1.1H671.1z"/>
			</g>
			<g>
				<path class="st104" d="M617.4,127.2c0.7,0,1.2,0.6,1.2,1.2v14.2c0,0.7-0.6,1.2-1.2,1.2h-0.6c-0.7,0-1.2-0.6-1.2-1.2v-14.2
					c0-0.7,0.6-1.2,1.2-1.2H617.4z"/>
			</g>
			<g>
				<path class="st104" d="M622,127.2c0.7,0,1.2,0.6,1.2,1.2v14.2c0,0.7-0.6,1.2-1.2,1.2h-0.6c-0.7,0-1.2-0.6-1.2-1.2v-14.2
					c0-0.7,0.6-1.2,1.2-1.2H622z"/>
			</g>
		</g>
		<g>
			<g>
				<g>
					<g>
						<rect x="568.8" y="74.6" class="st105" width="21.5" height="83.1"/>
						<polygon class="st106" points="580.3,157.7 568.9,74.6 568.9,74.6 568.9,157.7 						"/>
						<rect x="506.3" y="74.6" class="st107" width="19.2" height="83.1"/>
					</g>
					<path class="st108" d="M579.2,134.2c-2,0-3.6,1.6-3.6,3.6s1.6,3.6,3.6,3.6s3.6-1.6,3.6-3.6S581.1,134.2,579.2,134.2z"/>
					<rect x="547.4" y="74.6" class="st109" width="21.5" height="83.1"/>
					<path class="st108" d="M557.8,134c-2,0-3.6,1.6-3.6,3.6c0,2,1.6,3.6,3.6,3.6s3.6-1.6,3.6-3.6C561.4,135.6,559.8,134,557.8,134z
						"/>
					<g>
						<rect x="511.1" y="86.1" class="st17" width="9.5" height="36.8"/>
						<rect x="511.1" y="120.1" class="st108" width="9.5" height="4.1"/>
						<rect x="511.1" y="85.6" class="st108" width="9.5" height="4.1"/>
					</g>
					<g>
						<rect x="553.4" y="86.1" class="st17" width="9.5" height="36.8"/>
						<rect x="553.4" y="120.1" class="st108" width="9.5" height="4.1"/>
						<rect x="553.4" y="85.6" class="st108" width="9.5" height="4.1"/>
					</g>
					<g>
						<rect x="574.8" y="86.1" class="st17" width="9.5" height="36.8"/>
						<rect x="574.8" y="120.1" class="st108" width="9.5" height="4.1"/>
						<rect x="574.8" y="85.6" class="st108" width="9.5" height="4.1"/>
					</g>
					<path class="st108" d="M516.6,132.7c-2,0-3.6,1.6-3.6,3.6c0,2,1.6,3.6,3.6,3.6c2,0,3.6-1.6,3.6-3.6
						C520.2,134.3,518.6,132.7,516.6,132.7z"/>
				</g>
				<g>
					<polygon class="st110" points="525.8,156.3 539.5,157.8 547,85.5 544,85.2 544,85.2 536.4,84.3 536.4,84.3 533.4,84 					"/>
					<polygon class="st104" points="544,85.1 536.5,157.5 528.9,156.6 536.4,84.3 					"/>
				</g>
				<polygon class="st111" points="540,157.7 540,157.7 529.4,157.7 529.4,157.7 				"/>
			</g>
		</g>
		<rect x="685.7" y="127.8" class="st112" width="6.4" height="31"/>
		<rect x="500.3" y="127.8" class="st113" width="6.4" height="31"/>
		<rect x="487.2" y="157.5" class="st113" width="216.1" height="9.3"/>
		<rect x="614.8" y="106.7" class="st114" width="65.7" height="3.2"/>
		<polygon class="st94" points="692.1,127.8 692.1,148.5 685.7,148.5 685.7,145.8 685.7,127.8 		"/>
		<polygon class="st115" points="524.2,157.5 526.7,166.4 648.3,166.4 645.8,157.5 		"/>
	</g>
	<g>
		<g class="st0">
			<path d="M453.1,86.5c0,7.2-5.9,13.1-13.1,13.1h-63.5c-7.2,0-13.1-5.9-13.1-13.1V25.2c0-7.2,5.9-13.1,13.1-13.1H440
				c7.2,0,13.1,5.9,13.1,13.1V86.5z"/>
		</g>
		<g>
			<path class="st17" d="M369.9,90.8c-6,0-10.9-4.9-10.9-10.9V18.6c0-6,4.9-10.9,10.9-10.9h63.5c6,0,10.9,4.9,10.9,10.9v61.3
				c0,6-4.9,10.9-10.9,10.9H369.9z"/>
			<g>
				<path class="st17" d="M433.2,7.7h-63.5c-6,0-10.9,4.9-10.9,10.9v61.3c0,6,4.9,10.9,10.9,10.9h63.5c6,0,10.9-4.9,10.9-10.9V18.6
					C444.1,12.6,439.2,7.7,433.2,7.7L433.2,7.7z"/>
			</g>
			<path class="st116" d="M433.4,11.2c4.1,0,7.4,3.3,7.4,7.4v61.3c0,4.1-3.3,7.4-7.4,7.4h-63.5c-4.1,0-7.4-3.3-7.4-7.4V18.6
				c0-4.1,3.3-7.4,7.4-7.4H433.4 M433.4,5.5h-63.5c-7.2,0-13.1,5.9-13.1,13.1v61.3c0,7.2,5.9,13.1,13.1,13.1h63.5
				c7.2,0,13.1-5.9,13.1-13.1V18.6C446.6,11.4,440.6,5.5,433.4,5.5L433.4,5.5z"/>
		</g>
		<line class="st117" x1="401.4" y1="49.1" x2="396.2" y2="70.7"/>
		<path class="st100" d="M398.8,49.1c0-1.4,1.2-2.6,2.6-2.6c1.4,0,2.6,1.2,2.6,2.6c0,1.4-1.2,2.6-2.6,2.6
			C400,51.7,398.8,50.5,398.8,49.1z"/>
		<line class="st118" x1="401.4" y1="49.1" x2="418" y2="34.4"/>
		<line class="st119" x1="401.6" y1="49.1" x2="393.6" y2="38.2"/>
		<g>
			<line class="st120" x1="401.3" y1="22.9" x2="402.2" y2="22.9"/>
			<line class="st120" x1="385.9" y1="22.9" x2="386.9" y2="22.9"/>
			<line class="st120" x1="374.1" y1="34.3" x2="374.1" y2="33.4"/>
			<line class="st120" x1="374.1" y1="50.1" x2="374.1" y2="49.2"/>
			<line class="st120" x1="374.1" y1="65.1" x2="374.1" y2="64.2"/>
			<line class="st120" x1="387.1" y1="75.2" x2="386.2" y2="75.2"/>
			<line class="st120" x1="401.8" y1="75.2" x2="400.9" y2="75.2"/>
			<line class="st120" x1="416.5" y1="75.2" x2="415.6" y2="75.2"/>
			<line class="st120" x1="428.7" y1="64.7" x2="428.7" y2="65.7"/>
			<line class="st120" x1="428.7" y1="48.8" x2="428.7" y2="49.7"/>
			<line class="st120" x1="428.7" y1="33.3" x2="428.7" y2="34.2"/>
			<line class="st120" x1="415.3" y1="22.9" x2="416.3" y2="22.9"/>
		</g>
		<g class="st121">
			<path class="st122" d="M369.6,82.8c-1.6,0-2.9-1.3-2.9-2.9V18.6c0-1.6,1.3-2.9,2.9-2.9h63.5c1.6,0,2.9,1.3,2.9,2.9v61.3
				c0,1.6-1.3,2.9-2.9,2.9H369.6z"/>
		</g>
		<path class="st123" d="M433.2,7.7h-63.5c-6,0-10.9,4.9-10.9,10.9v61.3c0,6,4.9,10.9,10.9,10.9h63.5c6,0,10.9-4.9,10.9-10.9V18.6
			C444.1,12.6,439.2,7.7,433.2,7.7z M441,85.3c0,1.6-1.3,2.9-2.9,2.9h-64c-1.6,0-2.9-1.3-2.9-2.9V23.1c0-1.6,1.3-2.9,2.9-2.9h67.1
			c1.6,0,2.9,1.3,2.9,2.9L441,85.3z"/>
		<path class="st124" d="M433.4,4.6h-63.5c-7.7,0-14,6.3-14,14v61.3c0,7.7,6.3,14,14,14h63.5c7.7,0,14-6.3,14-14V18.6
			C447.4,10.9,441.2,4.6,433.4,4.6z M440,79.9c0,3.6-2.9,6.5-6.5,6.5h-63.5c-3.6,0-6.5-2.9-6.5-6.5V18.6c0-3.6,2.9-6.6,6.5-6.6h63.5
			c3.6,0,6.5,2.9,6.5,6.6V79.9z"/>
	</g>
	<g>
		<g>
			
				<rect x="162.4" y="324.3" transform="matrix(0.9557 0.2943 -0.2943 0.9557 111.3074 -33.648)" class="st125" width="10" height="57.3"/>
			<polygon class="st126" points="180.7,327 171.3,324.1 175.9,319.8 178.5,317.5 179.2,320.9 			"/>
			<polygon class="st125" points="179.2,320.9 175.9,319.8 178.5,317.5 			"/>
		</g>
		<g>
			
				<rect x="150.2" y="319" transform="matrix(0.9934 -0.1145 0.1145 0.9934 -38.7931 20.06)" class="st127" width="10" height="57.3"/>
			<polygon class="st126" points="156.9,318.6 147.1,319.7 149.6,313.9 151,310.8 153.1,313.5 			"/>
			<polygon class="st127" points="153.1,313.5 149.6,313.9 151,310.8 			"/>
		</g>
		<g>
			
				<rect x="144.6" y="322.2" transform="matrix(0.9452 -0.3265 0.3265 0.9452 -106.379 68.0961)" class="st128" width="10" height="57.3"/>
			<polygon class="st126" points="145,322.1 135.7,325.3 136.9,319.1 137.6,315.7 140.2,318 			"/>
			<polygon class="st128" points="140.2,318 136.9,319.1 137.6,315.7 			"/>
		</g>
		<polygon class="st129" points="173.5,386.4 146.2,386.4 140.7,343.3 178.9,343.3 		"/>
	</g>
</g>
</svg>
