<?xml version="1.0" encoding="utf-8"?>
<!-- Generator: Adobe Illustrator 22.0.0, SVG Export Plug-In . SVG Version: 6.00 Build 0)  -->
<svg version="1.1" id="Layer_1" xmlns="http://www.w3.org/2000/svg" xmlns:xlink="http://www.w3.org/1999/xlink" x="0px" y="0px"
	 viewBox="0 0 266 509.1" style="enable-background:new 0 0 266 509.1;" xml:space="preserve">
<style type="text/css">
	.st0{fill:#FCF1BB;}
	.st1{fill:#322C91;}
	.st2{fill:#0C0B57;}
	.st3{fill:#3558A6;}
	.st4{fill:#FFFFFF;}
	.st5{fill:#EBEAE6;}
	.st6{fill:#0B0F1F;}
	.st7{opacity:0.3;}
	.st8{clip-path:url(#XMLID_2_);fill:#EA404F;}
	.st9{clip-path:url(#XMLID_2_);fill:#EE7D63;}
	.st10{fill:#FFFFFF;stroke:#333333;stroke-width:1.1595;stroke-linecap:round;stroke-linejoin:round;stroke-miterlimit:10;}
	.st11{fill:#FFFFFF;stroke:#333333;stroke-width:1.296;stroke-linecap:round;stroke-linejoin:round;stroke-miterlimit:10;}
	.st12{stroke:#000000;stroke-width:1.2192;stroke-linecap:round;stroke-linejoin:round;stroke-miterlimit:10;}
	.st13{stroke:#000000;stroke-width:3.6576;stroke-linecap:round;stroke-linejoin:round;stroke-miterlimit:10;}
	.st14{clip-path:url(#XMLID_3_);fill:#EE7D63;}
	.st15{clip-path:url(#XMLID_4_);fill:#EE7D63;}
	.st16{fill:#F5B886;}
	.st17{fill:none;stroke:#000000;stroke-width:2.4384;stroke-linecap:round;stroke-linejoin:round;stroke-miterlimit:10;}
	.st18{fill:#190A0C;stroke:#F5B886;stroke-width:1.2192;stroke-linecap:round;stroke-linejoin:round;stroke-miterlimit:10;}
	.st19{fill:#FDF4BE;}
	.st20{fill:none;stroke:#F5B886;stroke-linecap:round;stroke-linejoin:round;stroke-miterlimit:10;}
	.st21{fill:#3C1716;}
	.st22{fill:#581E1C;}
</style>
<g>
	<g>
		<path class="st0" d="M54,230.6c-15.9,0-34.8-3.7-44.7-18.9c-15.8-24.1-2-63.2,43.4-122.9c4.3-5.7,12.5-6.8,18.2-2.5
			c5.7,4.3,6.8,12.5,2.5,18.2c-51.5,67.7-45.4,88.2-42.4,92.9c6.2,9.4,31.6,7.7,43.9,4.7c7-1.7,14,2.6,15.7,9.5
			c1.7,7-2.6,14-9.5,15.7C78.6,228,67.3,230.6,54,230.6z"/>
	</g>
	<g>
		<path class="st0" d="M206.3,276.8c-23.4,0-44.4-24.7-46.9-27.7c-4.6-5.5-3.7-13.7,1.8-18.3c5.5-4.6,13.7-3.7,18.3,1.8
			c7.1,8.6,20.9,19.7,28.1,18.1c4.3-1,8.6-8.4,11.6-19.9c1.8-6.9,8.9-11.1,15.9-9.3c6.9,1.8,11.1,8.9,9.3,15.9
			c-5.8,22.5-16.3,35.5-31.2,38.8C210.8,276.6,208.6,276.8,206.3,276.8z"/>
	</g>
	<g>
		<g>
			<path class="st1" d="M173.6,319.4c0,10.8-11.1,19.7-24.6,19.7H88.2c-13.5,0-24.6-8.8-24.6-19.7v-94c0-10.8,11.1-19.7,24.6-19.7
				H149c13.5,0,24.6,8.8,24.6,19.7V319.4z"/>
		</g>
		<g>
			<path class="st2" d="M173.6,332.1c0,10.8-11.1,19.7-24.6,19.7H88.2c-13.5,0-24.6-8.8-24.6-19.7V233c0-10.8,11.1-19.7,24.6-19.7
				H149c13.5,0,24.6,8.8,24.6,19.7V332.1z"/>
		</g>
	</g>
	<g>
		
			<rect x="85.8" y="330.9" transform="matrix(-1 -1.224647e-16 1.224647e-16 -1 232.6488 685.5281)" class="st3" width="61.1" height="23.8"/>
		<g>
			<path class="st4" d="M203.7,505.4l-75.3,0.1c-1.1,0-1.9-0.9-1.9-1.9l0-4.5c0-1.1,0.9-1.9,1.9-1.9l75.3-0.1c1.1,0,1.9,0.9,1.9,1.9
				l0,4.5C205.6,504.5,204.8,505.4,203.7,505.4z"/>
			<g>
				<path class="st5" d="M207.2,505.4l-17.9,0c-0.5,0-1-0.4-1-1l0-6.4c0-0.5,0.4-1,1-1l17.9,0c0.5,0,1,0.4,1,1l0,6.4
					C208.2,504.9,207.7,505.4,207.2,505.4z"/>
			</g>
			<g>
				<path d="M206.9,498.6l-75.3,0.2c-7.6,0-7.2-9.1-6.7-29c0,0,17.2-0.7,28.4-0.7c5.6,0,9.6,0.2,9.4,0.7c6.6,6,13.8,11.6,20.1,13
					c0.7,0.2,1.4,0.3,2.1,0.3c10.1,0.6,15.9,1.2,15.9,1.2C209.3,484.5,210.4,496.1,206.9,498.6z"/>
			</g>
			<g>
				<path class="st6" d="M182.9,482.7c-3.3,0.7-7,0.9-10.8,0.3c-10.3-1.5-18.1-7.6-18.6-14c5.6,0,9.6,0.2,9.4,0.7
					C169.4,475.6,176.6,481.3,182.9,482.7z"/>
			</g>
			<g>
				<path class="st5" d="M169.8,482.7c-0.1,0-0.3,0-0.4-0.1c-0.3-0.2-0.3-0.6-0.1-0.9c1.3-1.7,4-3.2,6.9-2.2
					c0.3,0.1,0.5,0.5,0.4,0.8c-0.1,0.3-0.5,0.5-0.8,0.4c-2.3-0.8-4.4,0.4-5.5,1.8C170.2,482.6,170,482.7,169.8,482.7z"/>
			</g>
			<g>
				<path class="st5" d="M163.6,481c-0.2,0-0.4-0.1-0.5-0.2c-0.4-0.3-0.5-0.8-0.2-1.2c1.9-2.5,5.7-4.5,9.7-3.1
					c0.5,0.2,0.7,0.7,0.5,1.1c-0.2,0.5-0.7,0.7-1.1,0.5c-3.2-1.1-6.3,0.5-7.8,2.5C164.1,480.9,163.8,481,163.6,481z"/>
			</g>
			<g>
				<path class="st5" d="M158.4,477.7c-0.2,0-0.4-0.1-0.6-0.2c-0.4-0.3-0.5-0.9-0.2-1.3c2-2.6,6-4.7,10.2-3.2
					c0.5,0.2,0.7,0.7,0.6,1.2c-0.2,0.5-0.7,0.7-1.2,0.6c-3.3-1.1-6.6,0.6-8.1,2.6C159,477.6,158.7,477.7,158.4,477.7z"/>
			</g>
		</g>
		<g>
			<path class="st4" d="M31.7,506.9l75.3-0.2c1.1,0,1.9-0.9,1.9-1.9l0-4.5c0-1.1-0.9-1.9-1.9-1.9l-75.3,0.2c-1.1,0-1.9,0.9-1.9,1.9
				l0,4.5C29.8,506.1,30.6,506.9,31.7,506.9z"/>
			<g>
				<path class="st5" d="M28.2,506.9l17.9,0c0.5,0,1-0.4,1-1l0-6.4c0-0.5-0.4-1-1-1l-17.9,0c-0.5,0-1,0.4-1,1l0,6.4
					C27.3,506.5,27.7,506.9,28.2,506.9z"/>
			</g>
			<g>
				<path d="M28.5,500.1l75.3-0.1c7.6,0,7.2-9.1,6.5-29c0,0-17.2-0.7-28.4-0.6c-5.6,0-9.6,0.2-9.4,0.7c-6.6,6-13.8,11.7-20,13.1
					c-0.7,0.2-1.4,0.3-2.1,0.3c-10.1,0.6-15.9,1.3-15.9,1.3C26.1,486,25,497.7,28.5,500.1z"/>
			</g>
			<g>
				<path class="st6" d="M52.5,484.1c3.3,0.7,7,0.8,10.8,0.3c10.3-1.6,18.1-7.6,18.5-14c-5.6,0-9.6,0.2-9.4,0.7
					C66,477,58.7,482.8,52.5,484.1z"/>
			</g>
			<g>
				<path class="st5" d="M65.5,484.1c-0.2,0-0.4-0.1-0.5-0.2c-1.1-1.4-3.2-2.5-5.5-1.7c-0.3,0.1-0.7-0.1-0.8-0.4
					c-0.1-0.3,0.1-0.7,0.4-0.8c2.8-1,5.6,0.4,6.9,2.2c0.2,0.3,0.2,0.7-0.1,0.9C65.8,484.1,65.6,484.1,65.5,484.1z"/>
			</g>
			<g>
				<path class="st5" d="M71.8,482.4c-0.3,0-0.5-0.1-0.7-0.3c-1.5-2-4.6-3.6-7.8-2.5c-0.5,0.2-1-0.1-1.1-0.5c-0.2-0.5,0.1-1,0.5-1.1
					c4-1.4,7.8,0.6,9.7,3.1c0.3,0.4,0.2,0.9-0.2,1.2C72.2,482.3,72,482.4,71.8,482.4z"/>
			</g>
			<g>
				<path class="st5" d="M76.9,479.1c-0.3,0-0.5-0.1-0.7-0.4c-1.6-2.1-4.8-3.7-8.2-2.6c-0.5,0.2-1-0.1-1.2-0.6
					c-0.2-0.5,0.1-1,0.6-1.2c4.2-1.5,8.2,0.6,10.2,3.2c0.3,0.4,0.2,1-0.2,1.3C77.3,479,77.1,479.1,76.9,479.1z"/>
			</g>
		</g>
		
			<rect x="124.1" y="330.8" transform="matrix(-1 -1.224647e-16 1.224647e-16 -1 291.1713 804.7625)" class="st3" width="42.9" height="143.2"/>
		
			<rect x="69.6" y="330.8" transform="matrix(-1 -3.191479e-04 3.191479e-04 -1 182.0352 803.7813)" class="st3" width="42.9" height="142.1"/>
		
			<rect x="69.4" y="330.9" transform="matrix(-1 -1.224647e-16 1.224647e-16 -1 236.4661 671.1619)" class="st7" width="97.8" height="9.4"/>
	</g>
	<path class="st4" d="M46.1,200.7c0,0,49.2-7.1,51.3,15.9c2,23-47.7,24.6-47.7,24.6s-3.4-8.1-4.5-20
		C44.2,209.2,46.1,200.7,46.1,200.7z"/>
	<path class="st4" d="M190.2,241.1c0,0-31.8-38.3-48.7-22.6c-16.9,15.7,18.9,50.3,18.9,50.3s7.9-3.7,16.8-11.9
		C186,248.8,190.2,241.1,190.2,241.1z"/>
	<path class="st4" d="M68.7,306.4c0,14.9,12.2,26.1,27.1,26.1H140c14.9,0,27.1-11.2,27.1-26.1v-66.8c0-14.9-12.2-27.1-27.1-27.1
		H95.8c-14.9,0-27.1,12.2-27.1,27.1V306.4z"/>
	<g>
		<defs>
			<rect id="XMLID_84_" x="106" y="191.7" width="25.9" height="39.5"/>
		</defs>
		<use xlink:href="#XMLID_84_"  style="overflow:visible;fill:#F5B886;"/>
		<clipPath id="XMLID_2_">
			<use xlink:href="#XMLID_84_"  style="overflow:visible;"/>
		</clipPath>
		<path class="st8" d="M98.2,186.4c0,0-2.2,23.6,20.8,23.1c23.1-0.5,19.8-24,19.8-24s-8.4-1.1-20.4-0.8
			C106.5,184.9,98.2,186.4,98.2,186.4z"/>
		<path class="st9" d="M98.2,186.4c0,0-2.2,23.6,20.8,23.1c23.1-0.5,19.8-24,19.8-24s-8.4-1.1-20.4-0.8
			C106.5,184.9,98.2,186.4,98.2,186.4z"/>
	</g>
	<rect x="102.7" y="218.3" class="st4" width="30.5" height="30.5"/>
	<polygon class="st10" points="116.9,218.3 100.3,203.2 90.6,206.7 111.1,235.2 	"/>
	<polygon class="st11" points="117.2,218.3 137.8,203.2 146.4,212.4 124.4,235.2 	"/>
	<g>
		<path class="st12" d="M192.6,108.1c0,0,7.3,1.2,11.8-4.3c4.8-5.8,4.8,18.1-12.3,19"/>
		<path class="st13" d="M118.1,101.6c-37.6,0-64.6,14.4-66.1,31.4c-3.3-1.8-10.9-14.7-10.9-14.7S-0.6,7.9,107.3,3.3
			c0,0-10.1,11-1.2,19.5c8.8,8.5,51.1-16.2,59.6,18c4.3-2.4,43.1,7.6,29.7,77.6c-4-2.9-11.1,15.9-11.1,15.9S155.7,101.6,118.1,101.6
			z"/>
		<g>
			<defs>
				<path id="XMLID_72_" d="M56.2,128.8c0,0-2.8-16.4-17.3-9.6c-18.1,8.6,1,44.7,14.7,34.9"/>
			</defs>
			<use xlink:href="#XMLID_72_"  style="overflow:visible;fill:#FCF1BB;"/>
			<clipPath id="XMLID_3_">
				<use xlink:href="#XMLID_72_"  style="overflow:visible;"/>
			</clipPath>
			<path class="st14" d="M57.7,131.2c0,0-2.6-11.5-14.1-6.7c-14.3,6.1,1.9,31.4,12.6,24.5"/>
		</g>
		<g>
			<defs>
				<path id="XMLID_61_" d="M180.2,128.8c0,0,2.8-16.4,17.3-9.6c18.1,8.6-1,44.7-14.8,34.9"/>
			</defs>
			<use xlink:href="#XMLID_61_"  style="overflow:visible;fill:#FCF1BB;"/>
			<clipPath id="XMLID_4_">
				<use xlink:href="#XMLID_61_"  style="overflow:visible;"/>
			</clipPath>
			<path class="st15" d="M178.8,131.2c0,0,2.6-11.5,14.1-6.7c14.3,6.1-1.9,31.4-12.6,24.5"/>
		</g>
		<path class="st0" d="M184.3,148.8c0,27.5-26.7,53.8-66.1,53.8c-36.8,0-66.1-26.3-66.1-53.8v-42.8c0-27.5,20.8-50,46.3-50h39.6
			c25.5,0,46.3,22.5,46.3,50V148.8z"/>
		<g>
			<path d="M95.2,125.2c0,4.3-2.7,7.8-6.1,7.8c-3.4,0-6.1-3.5-6.1-7.8c0-4.3,2.7-7.8,6.1-7.8C92.4,117.4,95.2,120.9,95.2,125.2z"/>
			<circle class="st4" cx="86.4" cy="121.3" r="2.1"/>
		</g>
		<path class="st16" d="M70.8,131.1c-2.8,0-5.1-1.8-5.1-4c0-2.2,2.3-4,5.1-4c2.8,0,5.1,1.8,5.1,4C76,129.3,73.7,131.1,70.8,131.1z"
			/>
		<path class="st16" d="M165.7,131.1c-2.8,0-5.1-1.8-5.1-4c0-2.2,2.3-4,5.1-4c2.8,0,5.1,1.8,5.1,4
			C170.8,129.3,168.5,131.1,165.7,131.1z"/>
		<path class="st16" d="M119,191.3c-2.8,0-5.1-1.8-5.1-4c0-2.2,2.3-4,5.1-4c2.8,0,5.1,1.8,5.1,4C124.2,189.5,121.9,191.3,119,191.3z
			"/>
		<g>
			<path d="M153.7,125.2c0,4.3-2.7,7.8-6.1,7.8c-3.4,0-6.1-3.5-6.1-7.8c0-4.3,2.7-7.8,6.1-7.8C151,117.4,153.7,120.9,153.7,125.2z"
				/>
			<path class="st4" d="M147,121.3c0,1.1-0.9,2.1-2.1,2.1c-1.1,0-2.1-0.9-2.1-2.1s0.9-2.1,2.1-2.1C146.1,119.2,147,120.1,147,121.3z
				"/>
		</g>
		<path class="st17" d="M73.2,124.9c0-6.6,5.4-12,12-12c3.9,0,7.3,1.8,9.5,4.7"/>
		<path class="st17" d="M163.4,124.9c0-6.6-5.4-12-12-12c-3.9,0-7.3,1.8-9.5,4.7"/>
		<g>
			<path d="M87.6,104.1c-3.4,0-7.7-1-12.6-2.9c-0.2-0.1-0.4-0.3-0.4-0.6c0-0.3,0.2-0.5,0.4-0.6c0.1,0,11.3-3.2,22.3-8.9
				c0.1,0,0.2-0.1,0.3-0.1c0.1,0,0.2,0,0.3,0.1c0.2,0.1,0.3,0.3,0.3,0.4c0,0.2,0.8,5.6-2.3,9.2C94.1,103,91.3,104.1,87.6,104.1z"/>
			<path class="st16" d="M97.6,91.7c0,0,1.9,11.8-10,11.8c-3.1,0-7.2-0.8-12.4-2.8C75.2,100.6,86.4,97.5,97.6,91.7 M97.6,90.5
				c-0.2,0-0.4,0-0.6,0.1c-11,5.7-22.1,8.8-22.2,8.8c-0.5,0.1-0.9,0.6-0.9,1.1c0,0.5,0.3,1,0.8,1.2c5,1.9,9.3,2.9,12.9,2.9
				c3.9,0,6.8-1.2,8.8-3.5c3.3-3.9,2.5-9.5,2.4-9.7c-0.1-0.4-0.3-0.7-0.7-0.9C98,90.5,97.8,90.5,97.6,90.5L97.6,90.5z"/>
		</g>
		<g>
			<path d="M146.4,104.1c-3.7,0-6.5-1.1-8.4-3.3c-3.1-3.7-2.3-9-2.3-9.2c0-0.2,0.2-0.4,0.3-0.4c0.1,0,0.2-0.1,0.3-0.1
				c0.1,0,0.2,0,0.3,0.1c11,5.7,22.2,8.9,22.3,8.9c0.3,0.1,0.4,0.3,0.4,0.6c0,0.3-0.1,0.5-0.4,0.6
				C154.1,103.1,149.9,104.1,146.4,104.1C146.4,104.1,146.4,104.1,146.4,104.1z"/>
			<path class="st16" d="M136.4,91.7c11.2,5.8,22.5,8.9,22.5,8.9c-5.3,2-9.3,2.8-12.4,2.8C134.5,103.5,136.4,91.7,136.4,91.7
				 M136.4,90.5c-0.2,0-0.4,0-0.6,0.1c-0.3,0.2-0.6,0.5-0.7,0.9c0,0.2-0.9,5.8,2.4,9.7c2,2.3,4.9,3.5,8.8,3.5c3.5,0,7.8-1,12.9-2.9
				c0.5-0.2,0.8-0.7,0.8-1.2c0-0.5-0.4-1-0.9-1.1c-0.1,0-11.2-3.2-22.2-8.8C136.8,90.5,136.6,90.5,136.4,90.5L136.4,90.5z"/>
		</g>
		<g>
			<path class="st16" d="M119.1,144.8c1.6,0.3,3.1,0.5,4.6,0.3c1.5-0.2,2.6-0.9,3.2-2.1c0.7-1.1,1-2.6,1-4c0.1-0.7,0.1-1.5,0-2.2
				c0-0.4,0-0.7-0.1-1.1l-0.1-1.1l1.2,1c-1.5,0-3,0-4.5-0.1c-1.5,0-3-0.1-4.5-0.2l-0.5,0l-0.2-0.3c-0.2-0.2-0.2-0.4-0.3-0.5
				c-0.1-0.2-0.2-0.3-0.2-0.5c-0.1-0.4-0.2-0.7-0.3-1.1c-0.1-0.7-0.1-1.4,0-2.1c0.1-0.3,0.1-0.7,0.2-1c0.1-0.3,0.2-0.6,0.3-0.9
				c0.1-0.3,0.3-0.6,0.4-0.9l0.5-0.8c-0.2,0.6-0.3,1.3-0.4,1.9c0,0.3-0.1,0.6-0.1,0.9c0,0.3,0,0.6,0,0.9c0.1,0.6,0.2,1.2,0.4,1.7
				c0.1,0.3,0.2,0.5,0.4,0.7c0.1,0.1,0.1,0.2,0.2,0.3c0.1,0.1,0.2,0.2,0.2,0.2l-0.7-0.3c1.5-0.1,3-0.2,4.5-0.2
				c1.5-0.1,3-0.1,4.5-0.1l1,0l0.2,1c0.1,0.5,0.1,0.8,0.2,1.3c0,0.4,0.1,0.8,0.1,1.2c0,0.8,0,1.7-0.1,2.5c-0.1,0.8-0.3,1.7-0.5,2.5
				c-0.3,0.8-0.6,1.7-1.2,2.4c-0.6,0.7-1.3,1.4-2.2,1.7c-0.9,0.4-1.8,0.5-2.6,0.5c-0.9,0-1.7-0.2-2.4-0.5
				C120.5,145.5,119.8,145.2,119.1,144.8z"/>
		</g>
		<path class="st13" d="M84.3,53.7c0,0-9.2,9.1,0,23.6c4.7-10.8,10.8-11,10.8-11s-4.6,16.7,2.5,18.9c7,2.2,35.8-15,40.3-21.9
			c0,0,2.2,9.1-8.8,16.1c0,0,28.7-2.8,36.4-19.1c0,0,3.5-15.8-39.2-16.1"/>
		<path d="M41.1,116.3c0,0,0.2,5.4,3.1,10.2c1.5,2.5,7.7,7.4,7.9,1.6c0-0.7,0.2-4.6-0.1-16.8"/>
		<path d="M195.3,116.3c0,0-0.2,5.4-3.1,10.2c-1.5,2.5-7.7,7.4-7.9,1.6c0-0.7-0.2-4.6,0.1-16.8"/>
		<path class="st18" d="M103.8,178.6c0,0,9.3-1.1,15.3-1.1c6,0,15.3,1.1,15.3,1.1S118.9,158.1,103.8,178.6z"/>
	</g>
	<rect x="68.7" y="298.7" class="st4" width="98.4" height="33.8"/>
	<path class="st19" d="M221.9,234c0,0-5.5-13.2,4.8-17.4c0,0-0.3-16.6,8.7-13.1c0,0,5.8,1.8,0.5,14c0,0,1.7,7.8,13.3,5.9
		c9.5-1.5,14.4-1.7,14.3,2.2c0,0.8-0.8,3.4-2.3,3.4c0,0,1.8,0.6,1.7,3.7c-0.1,1.3-0.8,2.6-2.8,3c0,0,3.9,4.3-2,6.3c0,0,1.6,4.7-7,3
		c-4.3-0.8-12.5-2.1-17.2,2.5"/>
	<line class="st20" x1="260.2" y1="229" x2="247.9" y2="229"/>
	<line class="st20" x1="258.4" y1="235.2" x2="247" y2="233.6"/>
	<path class="st20" d="M256.1,241.2l-9.4-1.5c0,0-3.6-6.3-11.9-6.7c-8.3-0.3-10.5,4.1-10.5,4.1"/>
	<g>
		<g>
			<path class="st21" d="M167.9,260.2c0-0.7,0-10.5-1.8-21c-1.5-9.4-4.3-19.5-9.5-24.6l12.2,2.3c3.6,6.9,5.2,14.6,5.5,22.2
				c0.9,20-6.4,39.2-6.4,40.1V260.2z"/>
		</g>
		<g>
			<path class="st21" d="M76.3,225.3c-4.2,9.9-5.9,16.9-6,17.6l-1.9,21c0.2-1-5.6-21.4,0-40.5c2.1-7.3,7.6-15.9,12.8-21.8l10.2,4.1
				C85.1,209.5,80,216.6,76.3,225.3z"/>
		</g>
		<path class="st22" d="M81.1,201.7c0,0,2.4-0.5,5.7,0s4.5,4.1,4.5,4.1c-6.2,3.7-11.4,10.8-15,19.6l-8-1.9
			C70.4,216.1,75.9,207.5,81.1,201.7z"/>
		<path class="st22" d="M174.3,239.1h-8.2c-1.5-9.4-4.3-19.5-9.5-24.6l12.2,2.3C172.4,223.8,173.9,231.5,174.3,239.1z"/>
	</g>
</g>
</svg>
