<?xml version="1.0" encoding="utf-8"?>
<!-- Generator: Adobe Illustrator 22.0.0, SVG Export Plug-In . SVG Version: 6.00 Build 0)  -->
<svg version="1.1" id="Layer_1" xmlns="http://www.w3.org/2000/svg" xmlns:xlink="http://www.w3.org/1999/xlink" x="0px" y="0px"
	 viewBox="0 0 691 370.6" style="enable-background:new 0 0 691 370.6;" xml:space="preserve">
<style type="text/css">
	.st0{fill:#FA373C;}
	.st1{fill:#FCF280;}
	.st2{opacity:0.4;fill:#8A8DB8;}
	.st3{fill:#F9BE11;}
	.st4{fill:#DD7203;}
	.st5{fill:#2F2030;}
	.st6{fill:#429E5D;}
	.st7{fill:#56B275;}
	.st8{fill:#CDECE7;}
	.st9{fill:#F6EED4;}
	.st10{fill:#A13A20;}
	.st11{opacity:0.7;fill:#806B8B;}
	.st12{fill:#B70F0C;}
	.st13{fill:#F92324;}
	.st14{fill:#F5B886;}
	.st15{fill:#FFFFFF;}
	.st16{clip-path:url(#XMLID_2_);fill:#F5B886;}
	.st17{fill:#FDF4BE;}
	.st18{fill:#0F1A27;}
	.st19{clip-path:url(#XMLID_3_);fill:#EA404F;}
	.st20{clip-path:url(#XMLID_3_);fill:#EE7D63;}
	.st21{fill:#FFFFFF;stroke:#333333;stroke-width:1.1595;stroke-linecap:round;stroke-linejoin:round;stroke-miterlimit:10;}
	.st22{fill:#FFFFFF;stroke:#333333;stroke-width:1.296;stroke-linecap:round;stroke-linejoin:round;stroke-miterlimit:10;}
	.st23{fill:#0B0F1F;}
	.st24{clip-path:url(#XMLID_4_);fill:#FDF4BE;}
	.st25{fill:#EE7D63;}
	.st26{stroke:#000000;stroke-width:1.2297;stroke-linecap:round;stroke-linejoin:round;stroke-miterlimit:10;}
	.st27{stroke:#000000;stroke-width:3.689;stroke-linecap:round;stroke-linejoin:round;stroke-miterlimit:10;}
	.st28{clip-path:url(#XMLID_5_);fill:#EE7D63;}
	.st29{fill:#FCF1BB;}
	.st30{fill:none;stroke:#000000;stroke-width:2.4594;stroke-linecap:round;stroke-linejoin:round;stroke-miterlimit:10;}
	.st31{clip-path:url(#XMLID_6_);fill:#10090B;}
	.st32{clip-path:url(#XMLID_6_);fill:#FFFFFF;}
	.st33{clip-path:url(#XMLID_6_);fill:#BE0008;}
	.st34{fill:none;stroke:#5A415C;stroke-width:7.6228;stroke-linecap:round;stroke-linejoin:round;stroke-miterlimit:10;}
	.st35{fill:none;stroke:#B2D3D1;stroke-width:7.6228;stroke-linecap:round;stroke-linejoin:round;stroke-miterlimit:10;}
	.st36{fill:#422E44;}
	.st37{fill:#F6306E;}
	.st38{fill:#DA285A;}
	.st39{fill:none;stroke:#C8EAE9;stroke-width:7.6228;stroke-linecap:round;stroke-linejoin:round;stroke-miterlimit:10;}
	.st40{fill:#2F2030;stroke:#5A415C;stroke-width:6.1701;stroke-linecap:round;stroke-linejoin:round;stroke-miterlimit:10;}
	.st41{fill:#F13363;}
	.st42{fill:none;stroke:#FFFFFF;stroke-width:4.636;stroke-linecap:round;stroke-miterlimit:10;}
	.st43{fill:none;stroke:#BC1200;stroke-width:4.636;stroke-linecap:round;stroke-miterlimit:10;}
	.st44{fill:#9BCB2F;}
	.st45{fill:none;stroke:#4B771B;stroke-width:2.8799;stroke-linecap:round;stroke-linejoin:round;stroke-miterlimit:10;}
	.st46{fill:none;stroke:#070606;stroke-width:2.8799;stroke-linecap:round;stroke-linejoin:round;stroke-miterlimit:10;}
	.st47{fill:#9DC7DF;stroke:#4B771B;stroke-width:2.8799;stroke-linecap:round;stroke-linejoin:round;stroke-miterlimit:10;}
	.st48{fill:#851A14;}
	.st49{fill:#A82621;}
	.st50{fill:#580F13;}
	.st51{fill:#BA4136;}
	.st52{fill:#E0A681;}
	.st53{fill:#FEE9C8;}
	.st54{fill:#8A5940;}
	.st55{fill:#C0C9C6;}
	.st56{fill:#F87AA4;}
	.st57{opacity:0.3;}
	.st58{fill:#4369AE;}
	.st59{fill:none;stroke:#FA373C;stroke-width:2.2323;stroke-linecap:round;stroke-linejoin:round;stroke-miterlimit:10;}
	.st60{fill:none;stroke:#362337;stroke-width:2.2323;stroke-linecap:round;stroke-linejoin:round;stroke-miterlimit:10;}
	.st61{fill:none;stroke:#362337;stroke-width:4.0182;stroke-linecap:round;stroke-linejoin:round;stroke-miterlimit:10;}
	.st62{fill:none;stroke:#2F2030;stroke-width:3.1253;stroke-linecap:round;stroke-linejoin:round;stroke-miterlimit:10;}
	.st63{opacity:0.7;}
	.st64{fill:none;stroke:#2F2030;stroke-width:2.3561;stroke-linecap:round;stroke-linejoin:round;stroke-miterlimit:10;}
	.st65{opacity:0.85;fill:#806B8B;}
	.st66{fill:#379184;}
	.st67{fill:#33127D;}
	.st68{fill:#C5934A;}
	.st69{fill:#F8DC33;}
	.st70{fill:#264852;}
	.st71{fill:#F42D2E;}
</style>
<g>
	<g>
		<g>
			<g>
				<rect x="453.4" y="209.5" class="st0" width="114.3" height="31.7"/>
				<rect x="552.9" y="209.4" class="st1" width="6.2" height="31.9"/>
				<rect x="465.4" y="209.4" class="st1" width="6.2" height="31.9"/>
				<rect x="453.4" y="231.8" class="st2" width="114.3" height="9.5"/>
			</g>
			<rect x="451.5" y="304.6" class="st3" width="121.4" height="18.9"/>
			<rect x="451.5" y="304.6" class="st4" width="121.4" height="4.4"/>
			<rect x="457.3" y="241.4" class="st5" width="106.4" height="29.9"/>
			<g>
				<rect x="451.5" y="271.4" class="st6" width="121.4" height="33.3"/>
				<rect x="451.5" y="271.3" class="st7" width="121.4" height="6"/>
			</g>
			<g>
				<path class="st8" d="M528,253.7c0.7,0,1.3,0.6,1.3,1.3v2.7c0,0.7-0.6,1.3-1.3,1.3h-59c-0.7,0-1.3-0.6-1.3-1.3V255
					c0-0.7,0.6-1.3,1.3-1.3H528z"/>
			</g>
			<g>
				<path class="st8" d="M548.4,252.5c1,0,1.8,0.8,1.8,1.8v3.9c0,1-0.8,1.8-1.8,1.8h-4.5c-1,0-1.8-0.8-1.8-1.8v-3.9
					c0-1,0.8-1.8,1.8-1.8H548.4z"/>
			</g>
			<g>
				<path class="st9" d="M461.6,274.5c1.1,0,2,0.9,2,2v22.9c0,1.1-0.9,2-2,2h-0.9c-1.1,0-2-0.9-2-2v-22.9c0-1.1,0.9-2,2-2H461.6z"/>
			</g>
			<g>
				<path class="st9" d="M469,274.5c1.1,0,2,0.9,2,2v22.9c0,1.1-0.9,2-2,2h-0.9c-1.1,0-2-0.9-2-2v-22.9c0-1.1,0.9-2,2-2H469z"/>
			</g>
		</g>
		<rect x="572.1" y="275.6" class="st10" width="10.3" height="50.1"/>
		<polygon class="st11" points="582.4,275.6 582.4,309 572.1,309 572.1,304.6 572.1,275.6 		"/>
	</g>
	<g>
		<path class="st12" d="M248.3,218.3c0-31.2,25.5-56.7,56.7-56.7h62.6c31.2,0,56.7,25.5,56.7,56.7v87.5c0,31.2-25.5,56.7-56.7,56.7
			H305c-31.2,0-56.7-25.5-56.7-56.7V218.3z"/>
		<path class="st13" d="M424.3,209v87.5c0,31.2-25.5,56.7-56.7,56.7H305c-31.2,0-56.7-25.5-56.7-56.7V209
			c0-31.2,25.5-56.7,56.7-56.7h62.6C398.8,152.3,424.3,177.8,424.3,209z"/>
	</g>
	<g>
		<path id="XMLID_77_" class="st14" d="M365.1,301.4c0,0,10.4,39.2,28.3,33.5c17.9-5.8,3.3-43.7,3.3-43.7s-7.1,0-16.5,3
			C370.9,297.2,365.1,301.4,365.1,301.4z"/>
		<path class="st15" d="M398.9,291.7c0,0-14-47.8-35.7-40.1c-21.8,7.7-2.7,53.6-2.7,53.6s8.8-0.2,20.1-4.2
			C392,297,398.9,291.7,398.9,291.7z"/>
		<g>
			<defs>
				<path id="XMLID_75_" d="M287.6,294.2c0,0-22.7,28.8-35.4,17.6c-12.8-11.2,12.9-37.4,12.9-37.4s5.9,2.6,12.6,8.4
					C284.3,288.6,287.6,294.2,287.6,294.2z"/>
			</defs>
			<use xlink:href="#XMLID_75_"  style="overflow:visible;fill:#FCF1BB;"/>
			<clipPath id="XMLID_2_">
				<use xlink:href="#XMLID_75_"  style="overflow:visible;"/>
			</clipPath>
			<path class="st16" d="M259.5,274.1c0,0,3,10.2-3.2,19.7c-5.6,8.6,5.2,12.1,12.2,15.4c11.8,5.5,28.9-26.6,28.9-26.6"/>
		</g>
		<path class="st15" d="M260.7,275.2c0,0,31.8-38.3,48.7-22.6c16.9,15.7-18.9,50.3-18.9,50.3s-7.9-3.7-16.8-11.9
			C265,282.8,260.7,275.2,260.7,275.2z"/>
		<path class="st15" d="M382.3,340.4c0,14.9-12.2,26.1-27.1,26.1h-44.2c-14.9,0-27.1-11.2-27.1-26.1v-66.8
			c0-14.9,12.2-27.1,27.1-27.1h44.2c14.9,0,27.1,12.2,27.1,27.1V340.4z"/>
		<g>
			<path class="st17" d="M339.2,316c0,0-46.5-13-81-9.5l0.5,3l-2.5,0.4v8.6h167.2l-1.4-3.3l1.4-2.9l-2.8-1.3v-1.7
				C420.5,309.1,368.4,298.7,339.2,316z"/>
			<rect x="252.8" y="318.5" class="st18" width="174.8" height="3.5"/>
		</g>
		<g>
			<defs>
				<rect id="XMLID_74_" x="318.1" y="228.7" width="25.9" height="39.5"/>
			</defs>
			<use xlink:href="#XMLID_74_"  style="overflow:visible;fill:#F5B886;"/>
			<clipPath id="XMLID_3_">
				<use xlink:href="#XMLID_74_"  style="overflow:visible;"/>
			</clipPath>
			<path class="st19" d="M351.8,223.4c0,0,2.2,23.6-20.8,23.1c-23.1-0.5-19.8-24-19.8-24s8.4-1.1,20.4-0.8
				C343.5,222,351.8,223.4,351.8,223.4z"/>
			<path class="st20" d="M351.8,223.4c0,0,2.2,23.6-20.8,23.1c-23.1-0.5-19.8-24-19.8-24s8.4-1.1,20.4-0.8
				C343.5,222,351.8,223.4,351.8,223.4z"/>
		</g>
		<rect x="317.8" y="252.3" class="st15" width="30.5" height="30.5"/>
		<polygon class="st21" points="330,252.3 313.4,237.2 306.5,246.4 324.2,269.2 		"/>
		<polygon class="st22" points="330.3,252.3 351,237.2 359.5,246.4 337.5,269.2 		"/>
		<g>
			
				<rect x="229.3" y="263.9" transform="matrix(0.9902 -0.1396 0.1396 0.9902 -38.9309 37.6573)" class="st23" width="39.2" height="64.8"/>
			<path class="st18" d="M237,271.3c0.3,2.1-1.2,4-3.3,4.3c-2.1,0.3-4-1.2-4.3-3.3c-0.3-2.1,1.2-4,3.3-4.3
				C234.8,267.8,236.7,269.2,237,271.3z"/>
		</g>
		<g>
			<defs>
				<path id="XMLID_62_" d="M233,323.7c13.1-8.6,3-8.6,3-8.6c12.9-11.5-0.6-8.2-0.6-8.2c11.7-11.5-1.2-10.2-1.2-10.2
					c11.1-9.8-5.5-6.2-5.5-6.2l-1.3-6.2c-15.5,1.8-13.7,18.6-11.9,24.6C221.8,329.8,233,323.7,233,323.7z"/>
			</defs>
			<use xlink:href="#XMLID_62_"  style="overflow:visible;fill:#F5B886;"/>
			<clipPath id="XMLID_4_">
				<use xlink:href="#XMLID_62_"  style="overflow:visible;"/>
			</clipPath>
			<path class="st24" d="M231,323.7c13.1-8.6,3-8.6,3-8.6c12.9-11.5-0.6-8.2-0.6-8.2c11.7-11.5-1.2-10.2-1.2-10.2
				c11.1-9.8-5.5-6.2-5.5-6.2l-1.3-6.2c-15.5,1.8-13.7,18.6-11.9,24.6C219.8,329.8,231,323.7,231,323.7z"/>
		</g>
		<g>
			<path id="XMLID_59_" class="st25" d="M266.2,171.1c0,0-3.6-16.4-17.9-8.8c-17.8,9.5,3.3,44.9,16.6,34.4"/>
			<path class="st26" d="M399.5,143.4c0,0,7.4,0.9,11.7-4.9c4.5-6.1,5.7,18-11.5,19.7"/>
			<path class="st27" d="M324.2,140.7c-37.8,1.9-64.4,17.8-65,34.9c-3.5-1.7-11.7-14.2-11.7-14.2S199.9,52.2,308.3,42.1
				c0,0-9.6,11.6-0.2,19.7C317.4,70,358.7,43,369,76.9c4.2-2.7,43.8,5.5,33.9,76.7c-4.2-2.8-10.4,16.5-10.4,16.5
				S362.1,138.8,324.2,140.7z"/>
			<g>
				<defs>
					<path id="XMLID_53_" d="M388.1,164.9c0,0,2-16.7,16.9-10.5c18.7,7.7,1.2,45-13.1,35.9"/>
				</defs>
				<use xlink:href="#XMLID_53_"  style="overflow:visible;fill:#FCF1BB;"/>
				<clipPath id="XMLID_5_">
					<use xlink:href="#XMLID_53_"  style="overflow:visible;"/>
				</clipPath>
				<path class="st28" d="M386.8,167.4c0,0,2.1-11.7,13.8-7.4c14.7,5.4-0.3,31.7-11.5,25.3"/>
			</g>
			<path class="st29" d="M393.2,184.8c1.4,27.7-24.2,55.5-63.9,57.5c-37,1.9-67.9-23.1-69.3-50.9l-2.2-43.1
				c-1.4-27.7,18.5-51.5,44.1-52.7l39.9-2c25.7-1.3,47.8,20.3,49.2,48.1L393.2,184.8z"/>
			<g>
				<path d="M296.9,172.4c0.2,4.3-2.4,8-5.8,8.2c-3.4,0.2-6.4-3.2-6.6-7.6c-0.2-4.3,2.4-8,5.8-8.2
					C293.8,164.7,296.7,168.1,296.9,172.4z"/>
				<path class="st15" d="M290,168.8c0.1,1.2-0.8,2.1-2,2.2c-1.2,0.1-2.1-0.8-2.2-2c-0.1-1.2,0.8-2.1,2-2.2
					C289,166.8,289.9,167.7,290,168.8z"/>
			</g>
			<path class="st14" d="M278.1,176.7c-2.9,0.1-5.3-1.6-5.4-3.8c-0.1-2.2,2.1-4.2,5-4.3c2.9-0.1,5.3,1.6,5.4,3.8
				C283.1,174.6,280.9,176.5,278.1,176.7z"/>
			<path class="st14" d="M373.6,171.9c-2.9,0.1-5.3-1.6-5.4-3.8c-0.1-2.2,2.1-4.2,5-4.3c2.9-0.1,5.3,1.6,5.4,3.8
				C378.7,169.8,376.4,171.8,373.6,171.9z"/>
			<path class="st14" d="M330,238.1c-2.5,0.1-4.7-1.4-4.8-3.4c-0.1-2,1.9-3.7,4.4-3.8c2.5-0.1,4.7,1.4,4.8,3.4
				C334.5,236.2,332.5,238,330,238.1z"/>
			<g>
				<path d="M362.6,168.8c0.2,4.3-2.4,8-5.8,8.2c-3.4,0.2-6.4-3.2-6.6-7.6c-0.2-4.3,2.4-8,5.8-8.2
					C359.4,161,362.4,164.4,362.6,168.8z"/>
				<path class="st15" d="M355.6,165.2c0.1,1.2-0.8,2.1-2,2.2c-1.2,0.1-2.1-0.8-2.2-2c-0.1-1.2,0.8-2.1,2-2.2
					C354.6,163.1,355.6,164,355.6,165.2z"/>
			</g>
			<path class="st30" d="M280.1,170.4c-0.3-6.7,4.8-12.4,11.5-12.7c3.9-0.2,7.5,1.5,9.8,4.2"/>
			<path class="st30" d="M371,165.8c-0.3-6.7-6-11.9-12.7-11.5c-3.9,0.2-7.3,2.2-9.4,5.2"/>
			<g>
				<defs>
					<path id="XMLID_52_" d="M303.8,202.4l46.4-5.7c0,0,6.7,28.6-21.3,30C311.8,227.5,304.7,221,303.8,202.4z"/>
				</defs>
				<use xlink:href="#XMLID_52_"  style="overflow:visible;fill:#190A0C;"/>
				<clipPath id="XMLID_6_">
					<use xlink:href="#XMLID_52_"  style="overflow:visible;"/>
				</clipPath>
				<path class="st31" d="M315.5,221c0,0-1.4-14.6,12.1-15.3c15.8-0.8,14.1,16.7,14.1,16.7"/>
				<path class="st32" d="M303.5,195.4l2.4,10.2c0,0,8.3,0.9,21.8,0.1c15.2-0.8,21.2-2.4,21.2-2.4L349,183L303.5,195.4z"/>
				<path class="st33" d="M303.4,229c0,0,5.5-14.8,24.4-15.9c23.5-1.4,26.8,16.1,26.8,16.1"/>
				<path class="st32" d="M349,184.1"/>
				
					<use xlink:href="#XMLID_52_"  style="overflow:visible;fill:none;stroke:#F5B886;stroke-width:1.0937;stroke-linecap:round;stroke-linejoin:round;stroke-miterlimit:10;"/>
			</g>
			<g>
				<path d="M278.8,147.4c-0.2,0-0.3-0.1-0.5-0.2c-0.2-0.2-0.2-0.6,0-0.8c0.4-0.5,9.6-11.3,17.1-11.3c4.1,0,6.9,3.1,8.3,9.3
					c0.1,0.2,0,0.5-0.2,0.6c-0.1,0.1-0.3,0.1-0.4,0.1c-0.1,0-0.2,0-0.2,0c0,0-4.4-1.8-10.2-1.8c-5,0-9.6,1.4-13.5,4
					C279,147.3,278.9,147.4,278.8,147.4z"/>
				<path class="st14" d="M295.4,135.7c3.3,0,6.2,2.3,7.7,8.8c0,0-4.4-1.9-10.4-1.9c-4.2,0-9.2,0.9-13.9,4.1
					C278.8,146.7,288.1,135.7,295.4,135.7 M295.4,134.5C295.4,134.5,295.4,134.5,295.4,134.5c-7.8,0-17.1,11-17.5,11.5
					c-0.4,0.5-0.4,1.2,0,1.6c0.2,0.3,0.6,0.4,0.9,0.4c0.2,0,0.5-0.1,0.7-0.2c3.8-2.6,8.3-3.9,13.2-3.9c5.6,0,9.9,1.8,9.9,1.8
					c0.2,0.1,0.3,0.1,0.5,0.1c0.3,0,0.6-0.1,0.8-0.3c0.4-0.3,0.5-0.8,0.4-1.2C302.8,137.8,299.8,134.5,295.4,134.5L295.4,134.5z"/>
			</g>
			<g>
				<path d="M346.4,143c-0.1,0-0.2,0-0.3-0.1c-0.2-0.1-0.3-0.4-0.3-0.6c0.8-6.7,3.5-10.1,8.1-10.1c7.4,0,16.9,9.1,17.3,9.5
					c0.2,0.2,0.3,0.6,0.1,0.8c-0.1,0.2-0.3,0.3-0.5,0.3c-0.1,0-0.2,0-0.3-0.1c-3.4-1.8-7.2-2.8-11.2-2.8c-7.1,0-12.6,3-12.6,3
					C346.6,143,346.5,143,346.4,143z"/>
				<path class="st14" d="M353.9,132.8c7.2,0,16.8,9.3,16.8,9.3c-4-2.1-7.9-2.8-11.5-2.8c-7.4,0-12.9,3.1-12.9,3.1
					C347.2,135.2,350.3,132.8,353.9,132.8 M353.9,131.5c-3.4,0-7.7,1.9-8.8,10.7c-0.1,0.5,0.2,0.9,0.5,1.2c0.2,0.1,0.4,0.2,0.7,0.2
					c0.2,0,0.4-0.1,0.6-0.2c0.1,0,5.4-2.9,12.3-2.9c3.9,0,7.5,0.9,10.9,2.7c0.2,0.1,0.4,0.1,0.6,0.1c0.4,0,0.8-0.2,1-0.5
					c0.4-0.5,0.3-1.2-0.1-1.6C371.2,140.8,361.5,131.5,353.9,131.5L353.9,131.5z"/>
			</g>
			<g>
				<path class="st14" d="M323.5,190.9c-0.7,0.5-1.4,0.9-2.1,1.2c-0.8,0.3-1.6,0.6-2.4,0.7c-0.9,0.1-1.8,0-2.7-0.3
					c-0.9-0.3-1.7-0.9-2.3-1.6c-0.6-0.7-1.1-1.5-1.4-2.3c-0.3-0.8-0.6-1.7-0.7-2.5c-0.1-0.8-0.2-1.7-0.3-2.5c0-0.4,0-0.8,0-1.3
					c0-0.4,0-0.8,0.1-1.3l0.1-1l1,0c1.5-0.1,3-0.2,4.5-0.2c1.5-0.1,3-0.1,4.5-0.1l-0.6,0.3c0,0,0.1-0.2,0.2-0.3
					c0.1-0.1,0.1-0.2,0.2-0.3c0.1-0.2,0.2-0.5,0.3-0.8c0.2-0.5,0.2-1.1,0.2-1.7c0-0.3,0-0.6-0.1-0.9c0-0.3-0.1-0.6-0.1-0.9
					c-0.1-0.6-0.3-1.2-0.5-1.9l0.6,0.8c0.2,0.3,0.4,0.6,0.5,0.9c0.1,0.3,0.3,0.6,0.4,0.9c0.1,0.3,0.2,0.7,0.3,1
					c0.2,0.7,0.2,1.4,0.1,2.1c0,0.4-0.1,0.7-0.2,1.1c0,0.2-0.1,0.4-0.2,0.5c-0.1,0.2-0.2,0.3-0.3,0.6l-0.2,0.3l-0.5,0.1
					c-1.5,0.2-3,0.4-4.5,0.6c-1.5,0.2-3,0.3-4.5,0.4l1.1-1.1l-0.1,1.1c0,0.4,0,0.8,0,1.1c0,0.8,0.1,1.5,0.2,2.2
					c0.2,1.5,0.6,2.9,1.3,4c0.7,1.1,1.9,1.8,3.4,1.9C320.4,191.7,321.9,191.3,323.5,190.9z"/>
			</g>
			<path class="st27" d="M287.7,94c0,0-8.8,9.6,1.2,23.7c4.2-11.1,10.4-11.6,10.4-11.6s-3.8,17,3.4,18.9
				c7.2,1.9,35.4-16.9,39.5-24.1c0,0,2.7,9.1-8,16.6c0,0,28.8-4.3,35.7-21.1c0,0,2.7-16.1-40.3-14.2"/>
			<path d="M247.3,159.3c0,0,0.5,5.5,3.6,10.2c1.6,2.5,8.1,7.1,8.1,1.3c0-0.7-0.1-4.7-0.9-16.9"/>
			<path d="M402.7,151.5c0,0,0,5.5-2.6,10.5c-1.4,2.6-7.4,7.8-7.9,2.1c-0.1-0.7-0.4-4.6-0.8-16.9"/>
			<path class="st14" d="M348.1,194.7c0,0,0.5-0.1,1.2,0c0.7,0,1.4,0.3,2.1,0.7c0.7,0.4,1.3,0.9,1.6,1.5c0.4,0.5,0.5,1,0.5,1
				s-0.5,0.1-1.2,0c-0.7,0-1.4-0.3-2.1-0.7c-0.7-0.4-1.3-0.9-1.6-1.5C348.3,195.2,348.1,194.7,348.1,194.7z"/>
		</g>
	</g>
	<g>
		<line class="st34" x1="85.4" y1="291.5" x2="85.4" y2="303.8"/>
		<polyline class="st35" points="24.4,167.6 93.5,291.5 78.6,291.2 6.8,161.9 		"/>
		<path class="st36" d="M114.3,307.7c1,0,1.8-0.8,1.8-1.8v-11.7c0-1-0.8-1.8-1.8-1.8h-7.9c-1,0-1.8,0.8-1.8,1.8V306
			c0,1,0.8,1.8,1.8,1.8H114.3z"/>
		<path class="st37" d="M136.2,320.8H43.5c0,0-1.2-8.8,4.2-14.6c2.7-2.9,6.9-5.1,13.8-5.1h56.8c6.6,0,10.8,2.2,13.5,5.1
			C137,312,136.2,320.8,136.2,320.8z"/>
		<path class="st38" d="M88.5,305.3h-40c-6.2,5.8-5,15.4-5,15.4h40C83.5,320.8,82.3,311.1,88.5,305.3z"/>
		<g>
			<line class="st34" x1="163.7" y1="50.6" x2="144" y2="59.4"/>
			<line class="st35" x1="144.3" y1="61.6" x2="22.6" y2="167.6"/>
			<line class="st39" x1="133.3" y1="53.8" x2="6.8" y2="161.9"/>
			<path class="st40" d="M5.7,167.4c1.2,6.2,7.3,10.2,13.7,8.9c6.3-1.2,10.5-7.3,9.2-13.4c-1.2-6.2-7.3-10.2-13.7-8.9
				C8.6,155.2,4.5,161.2,5.7,167.4z"/>
			<path class="st40" d="M122.4,65.1c1.2,6.2,7.3,10.2,13.7,8.9c6.3-1.2,10.5-7.3,9.2-13.4c-1.2-6.2-7.3-10.2-13.7-8.9
				C125.4,52.9,121.2,58.9,122.4,65.1z"/>
		</g>
		<g>
			<path class="st37" d="M163.1,57.7l-2.9,47.1c-0.1,1.9,1.3,2.9,3.1,2.2l56.8-22.3c1.8-0.7,2.1-2.3,0.6-3.6l-36.1-31.9L163.1,57.7z
				"/>
			<path class="st41" d="M157.4,44.4c-2.5-6,0.4-12.7,6.4-15.1c6-2.4,12.9,0.6,15.4,6.5l5.6,13.4L163,57.9L157.4,44.4z"/>
		</g>
		<line class="st42" x1="197.3" y1="72.9" x2="181.2" y2="55.7"/>
		<line class="st42" x1="207.1" y1="83.4" x2="202.3" y2="78.2"/>
		<line class="st43" x1="162.3" y1="107.5" x2="221.3" y2="84.3"/>
	</g>
	<g>
		<g>
			<g>
				<path class="st44" d="M654.8,259.3c-7.5,7.2-21.1,5-21.1,5s-1.6-13.7,5.9-20.9c7.5-7.2,21.1-5.1,21.1-5.1
					S662.3,252.1,654.8,259.3z"/>
				<path class="st44" d="M606,261.1c6.7,5.6,18,3,18,3s0.5-11.6-6.1-17.2c-6.7-5.6-18-3-18-3S599.3,255.5,606,261.1z"/>
				<path class="st44" d="M619.3,239.8c2.5,5.4,10.3,7.1,10.3,7.1s3.7-7,1.2-12.4c-2.5-5.4-10.3-7.1-10.3-7.1
					S616.8,234.4,619.3,239.8z"/>
				<g>
					<path class="st45" d="M628.8,270.4c0,0,12.1-17.5,19.7-18.9"/>
					<path class="st45" d="M628.8,270.4c0,0-3.5-8.1-15.6-16.4"/>
					<line class="st46" x1="628.6" y1="282.7" x2="628.8" y2="270.4"/>
				</g>
				<line class="st47" x1="628.6" y1="282.7" x2="629.3" y2="247.5"/>
				<path class="st47" d="M625.6,238.2c2.4,3.6,3.8,5.6,3.7,10.2"/>
			</g>
			<polygon class="st48" points="649.7,281.7 648.7,287.3 642.4,321.1 613.2,320.6 608.2,287.4 607.4,281.8 			"/>
			<polygon class="st49" points="628.8,282.3 628.8,287.9 628.7,320.9 617.7,320.7 613.6,287.6 612.9,281.9 			"/>
			<polygon class="st50" points="649.7,281.7 648.7,287.3 608.2,287.4 607.4,281.8 			"/>
		</g>
		<g>
			<path class="st51" d="M607.3,284.4c-1.4,0-2.5-1.2-2.5-2.5c0-1.4,1.1-2.6,2.5-2.6l42.3-0.1c1.4,0,2.6,1.1,2.6,2.5
				c0,1.4-1.1,2.6-2.5,2.6L607.3,284.4C607.4,284.4,607.4,284.4,607.3,284.4z"/>
		</g>
		<g>
			<path class="st50" d="M643.5,323.7l-31.6-0.6c-1.4,0-2.5-1.2-2.5-2.6c0-1.4,1.2-2.5,2.6-2.5l31.6,0.6c1.4,0,2.5,1.2,2.5,2.6
				C646.1,322.6,644.9,323.8,643.5,323.7z"/>
		</g>
	</g>
	<rect x="42.1" y="330.7" class="st52" width="616.2" height="39"/>
	<rect x="583.1" y="349.2" class="st53" width="75.2" height="20.6"/>
	<rect x="42.1" y="329.7" class="st54" width="541.9" height="19.6"/>
	<rect x="16.2" y="320.6" class="st52" width="580.6" height="20.6"/>
	<rect x="594" y="320.6" class="st53" width="96.5" height="20.6"/>
	<path class="st55" d="M231.5,290.2c-0.1,0.2-0.2,0.2-0.2,0.2C231.3,290.4,231.4,290.3,231.5,290.2z"/>
	<path class="st56" d="M111,315.8c-0.4-2.8-1.2-6.4-3.2-9.7h10.5c4.4,0,7.6,1.1,9.7,3.5c1.7,1.8,2.5,4.2,2.9,6.3H111z"/>
	<g>
		<g class="st57">
			<path d="M556.1,85.6c0,7.2-5.9,13.1-13.1,13.1h-63.5c-7.2,0-13.1-5.9-13.1-13.1V24.3c0-7.2,5.9-13.1,13.1-13.1h63.5
				c7.2,0,13.1,5.9,13.1,13.1V85.6z"/>
		</g>
		<g>
			<path class="st15" d="M472.8,89.9c-6,0-10.9-4.9-10.9-10.9V17.7c0-6,4.9-10.9,10.9-10.9h63.5c6,0,10.9,4.9,10.9,10.9V79
				c0,6-4.9,10.9-10.9,10.9H472.8z"/>
			<g>
				<path class="st15" d="M536.1,6.8h-63.5c-6,0-10.9,4.9-10.9,10.9V79c0,6,4.9,10.9,10.9,10.9h63.5c6,0,10.9-4.9,10.9-10.9V17.7
					C547.1,11.7,542.2,6.8,536.1,6.8L536.1,6.8z"/>
			</g>
			<path class="st58" d="M536.4,10.3c4.1,0,7.4,3.3,7.4,7.4V79c0,4.1-3.3,7.4-7.4,7.4h-63.5c-4.1,0-7.4-3.3-7.4-7.4V17.7
				c0-4.1,3.3-7.4,7.4-7.4H536.4 M536.4,4.6h-63.5c-7.2,0-13.1,5.9-13.1,13.1V79c0,7.2,5.9,13.1,13.1,13.1h63.5
				c7.2,0,13.1-5.9,13.1-13.1V17.7C549.5,10.5,543.6,4.6,536.4,4.6L536.4,4.6z"/>
		</g>
		<line class="st59" x1="504.4" y1="48.2" x2="499.2" y2="69.7"/>
		<path class="st5" d="M501.8,48.2c0-1.4,1.2-2.6,2.6-2.6c1.4,0,2.6,1.2,2.6,2.6c0,1.4-1.2,2.6-2.6,2.6
			C502.9,50.8,501.8,49.6,501.8,48.2z"/>
		<line class="st60" x1="504.4" y1="48.2" x2="521" y2="33.5"/>
		<line class="st61" x1="504.5" y1="48.2" x2="496.6" y2="37.3"/>
		<g>
			<line class="st62" x1="504.3" y1="22" x2="505.2" y2="22"/>
			<line class="st62" x1="488.9" y1="22" x2="489.8" y2="22"/>
			<line class="st62" x1="477.1" y1="33.4" x2="477.1" y2="32.4"/>
			<line class="st62" x1="477.1" y1="49.2" x2="477.1" y2="48.3"/>
			<line class="st62" x1="477.1" y1="64.2" x2="477.1" y2="63.3"/>
			<line class="st62" x1="490.1" y1="74.3" x2="489.1" y2="74.3"/>
			<line class="st62" x1="504.7" y1="74.3" x2="503.8" y2="74.3"/>
			<line class="st62" x1="519.5" y1="74.3" x2="518.5" y2="74.3"/>
			<line class="st62" x1="531.7" y1="63.8" x2="531.7" y2="64.7"/>
			<line class="st62" x1="531.7" y1="47.9" x2="531.7" y2="48.8"/>
			<line class="st62" x1="531.7" y1="32.3" x2="531.7" y2="33.3"/>
			<line class="st62" x1="518.3" y1="22" x2="519.2" y2="22"/>
		</g>
		<g class="st63">
			<path class="st64" d="M472.6,81.9c-1.6,0-2.9-1.3-2.9-2.9V17.7c0-1.6,1.3-2.9,2.9-2.9h63.5c1.6,0,2.9,1.3,2.9,2.9V79
				c0,1.6-1.3,2.9-2.9,2.9H472.6z"/>
		</g>
		<path class="st65" d="M536.1,6.8h-63.5c-6,0-10.9,4.9-10.9,10.9V79c0,6,4.9,10.9,10.9,10.9h63.5c6,0,10.9-4.9,10.9-10.9V17.7
			C547.1,11.7,542.2,6.8,536.1,6.8z M543.9,84.3c0,1.6-1.3,2.9-2.9,2.9h-64c-1.6,0-2.9-1.3-2.9-2.9V22.2c0-1.6,1.3-2.9,2.9-2.9h67.1
			c1.6,0,2.9,1.3,2.9,2.9L543.9,84.3z"/>
		<path class="st66" d="M536.4,3.7h-63.5c-7.7,0-14,6.3-14,14V79c0,7.7,6.3,14,14,14h63.5c7.7,0,14-6.3,14-14V17.7
			C550.4,10,544.1,3.7,536.4,3.7z M542.9,79c0,3.6-2.9,6.5-6.5,6.5h-63.5c-3.6,0-6.5-2.9-6.5-6.5V17.7c0-3.6,2.9-6.6,6.5-6.6h63.5
			c3.6,0,6.5,2.9,6.5,6.6V79z"/>
	</g>
	<g>
		<g>
			
				<rect x="163.5" y="258.7" transform="matrix(0.9557 0.2943 -0.2943 0.9557 92.0484 -36.8592)" class="st67" width="10" height="57.3"/>
			<polygon class="st68" points="181.7,261.4 172.3,258.5 176.9,254.2 179.5,251.9 180.3,255.3 			"/>
			<polygon class="st67" points="180.3,255.3 176.9,254.2 179.5,251.9 			"/>
		</g>
		<g>
			
				<rect x="151.2" y="253.5" transform="matrix(0.9934 -0.1145 0.1145 0.9934 -31.2757 19.7476)" class="st69" width="10" height="57.3"/>
			<polygon class="st68" points="157.9,253 148.2,254.1 150.7,248.3 152.1,245.2 154.1,247.9 			"/>
			<polygon class="st69" points="154.1,247.9 150.7,248.3 152.1,245.2 			"/>
		</g>
		<g>
			
				<rect x="145.7" y="256.7" transform="matrix(0.9452 -0.3265 0.3265 0.9452 -84.9045 64.8404)" class="st70" width="10" height="57.3"/>
			<polygon class="st68" points="146,256.5 136.8,259.7 137.9,253.6 138.6,250.1 141.2,252.4 			"/>
			<polygon class="st70" points="141.2,252.4 137.9,253.6 138.6,250.1 			"/>
		</g>
		<polygon class="st71" points="174.5,320.8 147.2,320.8 141.8,277.7 180,277.7 		"/>
	</g>
</g>
</svg>
