<?xml version="1.0" encoding="utf-8"?>
<!-- Generator: Adobe Illustrator 22.0.0, SVG Export Plug-In . SVG Version: 6.00 Build 0)  -->
<svg version="1.1" id="Layer_1" xmlns="http://www.w3.org/2000/svg" xmlns:xlink="http://www.w3.org/1999/xlink" x="0px" y="0px"
	 viewBox="0 0 559 596" style="enable-background:new 0 0 559 596;" xml:space="preserve">
<style type="text/css">
	.st0{stroke:#000000;stroke-width:4.3114;stroke-linecap:round;stroke-linejoin:round;stroke-miterlimit:10;}
	.st1{stroke:#000000;stroke-width:1.4371;stroke-linecap:round;stroke-linejoin:round;stroke-miterlimit:10;}
	.st2{fill:#EE7D63;}
	.st3{clip-path:url(#XMLID_2_);fill:#EA404F;}
	.st4{clip-path:url(#XMLID_2_);fill:#EE7D63;}
	.st5{clip-path:url(#XMLID_3_);fill:#EE7D63;}
	.st6{fill:#FCF1BB;}
	.st7{fill:#FFFFFF;}
	.st8{fill:#F5B886;}
	.st9{fill:none;stroke:#FCF1BB;stroke-width:29;stroke-linecap:round;stroke-linejoin:round;stroke-miterlimit:10;}
	.st10{fill:#727A86;}
	.st11{fill:none;stroke:#000000;stroke-width:2.9209;stroke-linecap:round;stroke-linejoin:round;stroke-miterlimit:10;}
	.st12{clip-path:url(#XMLID_4_);fill:#10090B;}
	.st13{clip-path:url(#XMLID_4_);fill:#FFFFFF;}
	.st14{clip-path:url(#XMLID_4_);fill:#BE0008;}
	.st15{fill:#1A366B;stroke:#1A366B;stroke-width:1.1548;stroke-linecap:round;stroke-linejoin:round;stroke-miterlimit:10;}
	.st16{fill:none;stroke:#FCF1BB;stroke-width:58;stroke-linecap:round;stroke-linejoin:round;stroke-miterlimit:10;}
	.st17{stroke:#000000;stroke-width:4.2564;stroke-linecap:round;stroke-linejoin:round;stroke-miterlimit:10;}
	.st18{clip-path:url(#XMLID_5_);fill:#ABBAC2;stroke:#ABBAC2;stroke-linecap:round;stroke-linejoin:round;stroke-miterlimit:10;}
	.st19{clip-path:url(#XMLID_6_);fill:#F5B886;}
	.st20{fill:#ABBAC2;}
	.st21{fill:#1A366B;stroke:#1A366B;stroke-width:1.6597;stroke-linecap:round;stroke-linejoin:round;stroke-miterlimit:10;}
	.st22{stroke:#000000;stroke-width:3;stroke-linecap:round;stroke-linejoin:round;stroke-miterlimit:10;}
	.st23{fill:#ABBAC2;stroke:#ABBAC2;stroke-linecap:round;stroke-linejoin:round;stroke-miterlimit:10;}
	.st24{fill:#FFFFFF;stroke:#333333;stroke-linecap:round;stroke-linejoin:round;stroke-miterlimit:10;}
	.st25{fill:#070606;}
	.st26{fill:#BBB8B1;}
	.st27{fill:#EAE9E5;}
	.st28{fill:#8B8581;}
	.st29{fill:#68BED9;}
	.st30{fill:#453D40;}
	.st31{fill:#2E2629;}
	.st32{fill:#0A0144;}
	.st33{fill:#8DD4E3;}
	.st34{clip-path:url(#XMLID_7_);}
	.st35{clip-path:url(#XMLID_8_);}
	.st36{clip-path:url(#XMLID_9_);}
	.st37{clip-path:url(#XMLID_10_);}
	.st38{clip-path:url(#XMLID_11_);}
	.st39{fill:#464755;}
</style>
<g>
	<g>
		<path class="st0" d="M138.1,231C94,235.2,63.8,255.1,64,275.1c-4.1-1.8-14.4-16-14.4-16s-36.8-96,64-126.7
			c15.9-4.9,59.9-17.2,73.6,22c4.7-3.3,51.4,4.2,43.5,87.8c-5-3-11.3,19.8-11.3,19.8S182.2,226.9,138.1,231z"/>
		<path class="st1" d="M187.4,157.2c0,0,3.4-21.3-8.3-23.8c-11-2.3-22.5,1.8-22.5,1.8"/>
		<path class="st1" d="M183.6,154.8c0,0,6.8-13,20-9.2c0,0-9.3,6.6-4.8,16"/>
	</g>
	<path id="XMLID_24_" class="st2" d="M213.1,251.5c0,0,1.7-19.9,19.7-13.1c22.5,8.4,3.2,53.4-14.2,43.1"/>
	<g>
		<defs>
			<rect id="XMLID_26_" x="137.4" y="331.5" width="30.7" height="46.7"/>
		</defs>
		<use xlink:href="#XMLID_26_"  style="overflow:visible;fill:#F5B886;"/>
		<clipPath id="XMLID_2_">
			<use xlink:href="#XMLID_26_"  style="overflow:visible;"/>
		</clipPath>
		<path class="st3" d="M177.3,325.2c0,0,2.6,27.9-24.7,27.4c-27.3-0.6-23.5-28.4-23.5-28.4s9.9-1.3,24.1-1
			C167.5,323.5,177.3,325.2,177.3,325.2z"/>
		<path class="st4" d="M177.3,325.2c0,0,2.6,27.9-24.7,27.4c-27.3-0.6-23.5-28.4-23.5-28.4s9.9-1.3,24.1-1
			C167.5,323.5,177.3,325.2,177.3,325.2z"/>
	</g>
	<g>
		<defs>
			<path id="XMLID_25_" d="M71,266.5c0,0-5-19.3-21.6-9.7c-20.8,12,5.3,53.8,24.9,40.1"/>
		</defs>
		<use xlink:href="#XMLID_25_"  style="overflow:visible;fill:#FCF1BB;"/>
		<clipPath id="XMLID_3_">
			<use xlink:href="#XMLID_25_"  style="overflow:visible;"/>
		</clipPath>
		<path class="st5" d="M73,269.2c0,0-4.3-13.5-17.4-6.6c-16.5,8.7,5.4,37.3,17.5,28"/>
	</g>
	<path class="st6" d="M228.9,277.6c2.7,32.9-26.5,66.9-73.6,70.8c-43.9,3.6-81.5-24.8-84.3-57.7l-4.2-51
		c-2.7-32.9,19.9-61.8,50.4-64.3l47.3-3.9c30.4-2.5,57.5,22.3,60.3,55.2L228.9,277.6z"/>
	<g>
		<path d="M121.7,248c0.4,5.2-2.5,9.6-6.5,9.9c-4,0.3-7.7-3.6-8.1-8.7c-0.4-5.2,2.5-9.6,6.5-9.9C117.6,238.9,121.2,242.8,121.7,248z
			"/>
		<path class="st7" d="M113.3,244c0.1,1.4-0.9,2.6-2.3,2.7c-1.4,0.1-2.6-0.9-2.7-2.3c-0.1-1.4,0.9-2.6,2.3-2.7
			C112,241.6,113.2,242.6,113.3,244z"/>
	</g>
	<path class="st8" d="M94.2,258.4c-3.4,0.3-6.3-1.6-6.5-4.3c-0.2-2.7,2.3-5,5.7-5.3c3.4-0.3,6.3,1.6,6.5,4.3
		C100.2,255.7,97.6,258.1,94.2,258.4z"/>
	<path class="st8" d="M207.4,249c-3.4,0.3-6.3-1.6-6.5-4.3c-0.2-2.7,2.3-5,5.7-5.3c3.4-0.3,6.3,1.6,6.5,4.3
		C213.4,246.4,210.8,248.7,207.4,249z"/>
	<path class="st9" d="M97.5,398c0,0-23.5,139.8-71.5,36.8"/>
	<path class="st8" d="M155.2,334.5c-3.4,0.3-6.3-1.6-6.5-4.3c-0.2-2.7,2.3-5,5.7-5.3c3.4-0.3,6.3,1.6,6.5,4.3
		C161.1,331.8,158.5,334.2,155.2,334.5z"/>
	<g>
		<path d="M200.5,240.5c0.4,5.2-2.5,9.6-6.6,9.9c-4,0.3-7.7-3.6-8.1-8.7c-0.4-5.2,2.5-9.6,6.5-9.9
			C196.5,231.5,200.1,235.4,200.5,240.5z"/>
		<path class="st7" d="M192.1,236.5c0.1,1.4-0.9,2.6-2.3,2.7c-1.4,0.1-2.6-0.9-2.7-2.3c-0.1-1.4,0.9-2.6,2.3-2.7
			C190.8,234.1,192,235.2,192.1,236.5z"/>
	</g>
	<path class="st10" d="M257.5,308c0,0,33.2,13.5,5,83.5c0,0-41.5,6.5-43.6-30.2C217.6,340.7,213.7,323.3,257.5,308z"/>
	<path class="st11" d="M96.4,250.8c-0.7-7.9,5.2-14.9,13.2-15.6c4.6-0.4,8.9,1.5,11.8,4.6"/>
	<path class="st11" d="M204.1,241.9c-0.7-7.9-7.6-13.8-15.6-13.2c-4.6,0.4-8.6,2.9-10.9,6.5"/>
	<g>
		<defs>
			<path id="XMLID_23_" d="M183.4,282.6l-62.4-1.1c0,0-4.9,38.9,32.4,36.9C176.2,317.2,184.7,307.5,183.4,282.6z"/>
		</defs>
		<use xlink:href="#XMLID_23_"  style="overflow:visible;fill:#190A0C;"/>
		<clipPath id="XMLID_4_">
			<use xlink:href="#XMLID_23_"  style="overflow:visible;"/>
		</clipPath>
		<path class="st12" d="M170.5,309.1c0,0-0.1-19.6-18.1-18.6c-21.1,1.1-16.4,24.1-16.4,24.1"/>
		<path class="st13" d="M182.9,273.4l-1.7,13.9c0,0-10.9,2.3-28.9,3.2c-20.3,1-28.4-0.2-28.4-0.2l-3.1-27.1L182.9,273.4z"/>
		<path class="st14" d="M187.6,318c0,0-9.4-18.8-34.6-17.7c-31.4,1.4-33.4,25-33.4,25"/>
		<path class="st13" d="M120.9,264.6"/>
		
			<use xlink:href="#XMLID_23_"  style="overflow:visible;fill:none;stroke:#F5B886;stroke-width:1.4604;stroke-linecap:round;stroke-linejoin:round;stroke-miterlimit:10;"/>
	</g>
	<g>
		<path d="M136.3,234.7c-0.1,0-0.3,0-0.4-0.1c-0.1-0.1-9.8-5.7-32.4-7.3c-0.4,0-0.6-0.3-0.7-0.6c0-0.4,0.2-0.7,0.5-0.8
			c0.1,0,11.1-3.3,20.3-3.3c5.9,0,10,1.3,12,3.9c1.5,1.9,2,4.5,1.3,7.6c-0.1,0.2-0.2,0.4-0.4,0.5
			C136.5,234.7,136.4,234.7,136.3,234.7z"/>
		<path class="st8" d="M123.7,223.3c7.8,0,14.4,2.3,12.6,10.6c0,0-9.6-5.8-32.7-7.4C103.6,226.6,114.4,223.3,123.7,223.3
			 M123.7,221.9v1.5V221.9C123.7,221.9,123.7,221.9,123.7,221.9c-9.4,0-20.1,3.2-20.5,3.3c-0.7,0.2-1.1,0.9-1,1.6
			c0.1,0.7,0.6,1.2,1.3,1.3c22.4,1.6,31.9,7.1,32,7.2c0.2,0.1,0.5,0.2,0.8,0.2c0.2,0,0.4,0,0.6-0.1c0.4-0.2,0.7-0.6,0.8-1
			c0.7-3.4,0.3-6.2-1.4-8.3C134.1,223.3,129.8,221.9,123.7,221.9L123.7,221.9z"/>
	</g>
	<g>
		<path d="M165.6,232.5c-0.1,0-0.1,0-0.2,0c-0.2-0.1-0.4-0.2-0.5-0.5c-1.2-3.5-1-6.3,0.6-8.6c2.6-3.6,8.6-5.4,17.9-5.4
			c5.9,0,11,0.8,11,0.8c0.4,0.1,0.6,0.4,0.6,0.7c0,0.4-0.3,0.7-0.6,0.7c-17.3,3-28.3,12-28.4,12.1
			C165.9,232.5,165.7,232.5,165.6,232.5z"/>
		<path class="st8" d="M183.4,218.7c5.9,0,10.9,0.8,10.9,0.8c-17.7,3.1-28.7,12.3-28.7,12.3C161.8,220.8,173.7,218.7,183.4,218.7
			 M183.4,217.2c-9.5,0-15.7,1.9-18.5,5.8c-1.8,2.5-2,5.6-0.7,9.3c0.2,0.5,0.5,0.8,1,0.9c0.1,0,0.3,0.1,0.4,0.1
			c0.3,0,0.7-0.1,0.9-0.3c0.1-0.1,10.9-9,28.1-12c0.7-0.1,1.2-0.7,1.2-1.5c0-0.7-0.5-1.3-1.2-1.4C194.3,218,189.3,217.2,183.4,217.2
			L183.4,217.2z"/>
	</g>
	<g>
		<path class="st8" d="M153.2,273c1.9,0.2,3.8,0.3,5.5-0.1c1.7-0.4,3-1.4,3.7-2.8c0.7-1.4,0.9-3.2,0.8-4.9c0-1.7-0.3-3.6-0.7-5.2
			l1.5,1.1c-1.8,0.1-3.6,0.3-5.3,0.3c-1.8,0.1-3.6,0.1-5.4,0.2l-0.6,0l-0.3-0.3c-0.4-0.5-0.6-0.8-0.8-1.2c-0.2-0.4-0.3-0.8-0.4-1.2
			c-0.2-0.8-0.3-1.7-0.2-2.5c0.1-0.8,0.2-1.6,0.5-2.4c0.1-0.4,0.3-0.7,0.4-1.1c0.2-0.4,0.4-0.7,0.6-1l-0.2,1.1
			c0,0.4-0.1,0.8-0.1,1.1c0,0.8,0,1.5,0.1,2.2c0.1,0.7,0.3,1.4,0.6,2c0.1,0.3,0.3,0.6,0.5,0.9c0.2,0.2,0.4,0.5,0.5,0.6l-0.8-0.3
			c1.8-0.3,3.5-0.5,5.3-0.7c1.8-0.2,3.5-0.4,5.3-0.6l1.2-0.1l0.3,1.2c0.5,2,0.7,4,0.6,6c-0.1,2-0.4,4.1-1.6,6
			c-0.6,0.9-1.4,1.8-2.4,2.3c-1,0.5-2.1,0.8-3.1,0.8C156.8,274.4,154.9,273.8,153.2,273z"/>
	</g>
	<path d="M54.7,252.9c0,0,0.8,6.5,4.7,11.9c2,2.8,9.9,8.1,9.6,1.2c0-0.9-0.3-5.5-1.7-20"/>
	<path class="st8" d="M123.5,278.6c0,0-0.7-0.1-1.5,0.1c-0.9,0.2-1.8,0.6-2.7,1.2c-0.8,0.6-1.6,1.4-2,2.2c-0.4,0.7-0.6,1.5-0.6,1.5
		s0.7,0.1,1.5-0.1c0.9-0.1,1.8-0.6,2.7-1.2c0.8-0.6,1.5-1.4,2-2.2C123.3,279.3,123.5,278.6,123.5,278.6z"/>
	<path class="st15" d="M76,503.9c0,0-1.8,3.5-2.9,15.8c-1.1,12.3,5.9,73,5.9,73h43.9c0,0-3.6-44.7,6.3-45.3
		c17.8-1.1,42.1,45.3,42.1,45.3h70.3L212.4,502L76,503.9z"/>
	<path class="st16" d="M232.3,356.3c0,0,190-96.6,230-183.9"/>
	<path class="st17" d="M196,179.4c0,0-34.1,30.1-94,25.2c0,0,6.9-6.5,6.7-12.3c0,0-27.9,6.8-32.7,41.7c0,0-20.5-36,9.4-61.8
		C115.2,146.3,206.6,130.1,196,179.4z"/>
	<g>
		<defs>
			<path id="XMLID_33_" d="M137,356.3c0,0-1.5,5.6,12,5.3c20.7-0.5,41-37,61.5-40s47-13.5,47-13.5s-32.5,17.5,5,83.5
				c0,0-47.4,6.8-47,52c0.2,26.2,9.2,41.2-3.2,51.8c0,0-125.7,16.8-136.3,3.3c-11.5-14.6,14.5-32.9,21.5-74.4s4.1-66.9,22.5-65.3
				C128.3,359.8,137,356.3,137,356.3z"/>
		</defs>
		<use xlink:href="#XMLID_33_"  style="overflow:visible;fill:#FFFFFF;"/>
		<clipPath id="XMLID_5_">
			<use xlink:href="#XMLID_33_"  style="overflow:visible;"/>
		</clipPath>
		<path class="st18" d="M294,354.8c-36.7,28.3-67.3,26.8-80.1,48.9c-19.1,32.9,1.4,58.2-3.9,70.6c-5.3,12.4-29.9,11.7-53.6,6.4
			c-23.7-5.3-84.7-2-94.6,19.3s-57.4,97.4,176.8,32.7"/>
	</g>
	<path class="st7" d="M126,358c0,0-34.2-18-57,69c0,0,17.5,17.5,36,10.4"/>
	<g>
		<defs>
			<path id="XMLID_27_" d="M5.2,415.5c0,0,12.5-21.5,30.5-22.5s14,11.2,14,11.2s15,2.4,9.5,16.4c0,0,13.5-0.3,7,12.3
				c0,0,12.3,7-13.9,26.2C20.9,482.1-4.6,432.6,5.2,415.5z"/>
		</defs>
		<use xlink:href="#XMLID_27_"  style="overflow:visible;fill:#FDF4BE;"/>
		<clipPath id="XMLID_6_">
			<use xlink:href="#XMLID_27_"  style="overflow:visible;"/>
		</clipPath>
		<path class="st19" d="M35.7,393c0,0,16.9,0.3,9.6,12.9c0,0,18.3,0.6,9.8,16.1c0,0,12.4,2.5,8.4,13.3c0,0,14.1,5.8-20.7,29.8
			c0,0,44.5-7.8,36-44.8S56.8,378.2,35.7,393z"/>
	</g>
	<path class="st20" d="M153.7,374.7l17.5-18.4l-29.2,3.2l8.3,15.2c0,0-14.4,27.9-20.1,42.3c-5.2,13.1-13.9,46.7-13.9,46.7l11.7,17.1
		l22.3-15.6c0,0-1.7-34.5-1.2-45.8C149.5,408,153.7,374.7,153.7,374.7z"/>
	<path class="st21" d="M149.5,374.7l17.5-18.4l-29.2,3.2l8.3,15.2c0,0-14.4,27.9-20.1,42.3c-5.2,13.1-11.4,44.3-11.4,44.3l9,13
		l22.6-14.7c0,0-1.8-29-1.4-40.3C145.4,408,149.5,374.7,149.5,374.7z"/>
	<path class="st22" d="M213.9,507.6c0,0-104,2.8-93.9,2.8c19.3-0.1-44-1.6-44-1.6v-10.1c0,0,12.3-5.1,44-6.9s92.3,3.6,92.3,3.6
		L213.9,507.6z"/>
	<path class="st23" d="M193.2,393.3l-4,29.5c0,0-6.8,4.5-33.7,0.5c0,0,14,10.2,37.1,3.5C193.9,410,193.2,393.3,193.2,393.3z"/>
	<polygon class="st24" points="133,346 147.8,354.8 137,366.5 126,358 	"/>
	<polygon class="st24" points="189.7,323.3 152.7,354.8 176.5,366.5 200.3,324.8 	"/>
	<g>
		<g>
			<g>
				<path class="st25" d="M508.3,329.3l-113.8,8.6c-12.7,1-23.8-8.6-24.7-21.2L348.7,37.9c-1-12.7,8.6-23.8,21.3-24.7l113.8-8.6
					c12.7-1,23.8,8.6,24.7,21.3l21.1,278.7C530.5,317.2,521,328.3,508.3,329.3z"/>
				<path class="st25" d="M508.3,329.3l-113.8,8.6c-12.7,1-23.8-8.6-24.7-21.2L348.7,37.9c-1-12.7,8.6-23.8,21.3-24.7l113.8-8.6
					c12.7-1,23.8,8.6,24.7,21.3l21.1,278.7C530.5,317.2,521,328.3,508.3,329.3z"/>
				<path class="st26" d="M506.8,326.8l-111.2,8.4c-13,1-24.4-8.8-25.3-21.8l0.1,1.8c1,13,12.3,22.8,25.3,21.8l111.2-8.4
					c13-1,22.8-12.3,21.8-25.3l-0.1-1.8C529.5,314.5,519.8,325.8,506.8,326.8z"/>
				<path class="st27" d="M372,15.4L482,7.1c12.9-1,24.1,8.7,25.1,21.5l-0.1-1.8c-1-12.9-12.2-22.5-25.1-21.5l-109.9,8.3
					c-12.9,1-22.5,12.2-21.5,25.1l0.1,1.8C349.5,27.6,359.2,16.4,372,15.4z"/>
				<g>
					<path class="st28" d="M362.7,23.8c-2.6,1.9-4.7,4.5-5.8,7.6c-0.6,1.5-0.9,3.1-1,4.7c-0.1,1.6,0.2,3.2,0.3,4.8l1.7,19.4
						l3.2,38.8l6.1,77.6l5.7,77.6l2.7,38.8l1.3,19.4c0.1,1.6,0.1,3.2,0.5,4.8c0.3,1.6,0.9,3.1,1.7,4.5c1.5,2.8,4,5.1,6.9,6.6
						c-2.9-1.4-5.5-3.7-7.1-6.5c-0.8-1.4-1.4-3-1.8-4.6c-0.4-1.6-0.4-3.2-0.6-4.9l-1.7-19.4l-3.2-38.8l-6.1-77.6l-5.7-77.6
						l-2.7-38.8l-1.3-19.4c-0.1-1.6-0.3-3.2-0.2-4.9c0.1-1.6,0.5-3.3,1.1-4.8C357.9,28.2,360,25.6,362.7,23.8z"/>
				</g>
				<g>
					<path class="st28" d="M492.4,13.9c2.9,1.4,5.5,3.7,7.1,6.5c0.8,1.4,1.4,3,1.8,4.6c0.4,1.6,0.4,3.2,0.6,4.9l1.7,19.4l3.2,38.8
						l6.1,77.6l5.7,77.6l2.7,38.8l1.3,19.4c0.1,1.6,0.3,3.2,0.2,4.9c-0.1,1.6-0.5,3.3-1.1,4.8c-1.2,3.1-3.4,5.7-6,7.5
						c2.6-1.9,4.7-4.5,5.8-7.6c0.6-1.5,0.9-3.1,1-4.7c0.1-1.6-0.2-3.2-0.3-4.8l-1.7-19.4l-3.2-38.8l-6.1-77.6l-5.7-77.6l-2.7-38.8
						l-1.3-19.4c-0.1-1.6-0.1-3.2-0.5-4.8c-0.3-1.6-0.9-3.1-1.7-4.5C497.7,17.7,495.3,15.4,492.4,13.9z"/>
				</g>
				<g>
					<path class="st27" d="M497.9,13.5c2.9,1.4,5.5,3.7,7.1,6.5c0.8,1.4,1.4,3,1.8,4.6c0.4,1.6,0.4,3.2,0.6,4.9l1.7,19.4l3.2,38.8
						l6.1,77.6l5.7,77.6l2.7,38.8l1.3,19.4c0.1,1.6,0.3,3.2,0.2,4.9c-0.1,1.6-0.5,3.3-1.1,4.8c-1.2,3.1-3.4,5.7-6,7.5
						c2.6-1.9,4.7-4.5,5.8-7.6c0.6-1.5,0.9-3.1,1-4.7c0.1-1.6-0.2-3.2-0.3-4.8l-1.7-19.4l-3.2-38.8l-6.1-77.6l-5.7-77.6l-2.7-38.8
						l-1.3-19.4c-0.1-1.6-0.1-3.2-0.5-4.8c-0.3-1.6-0.9-3.1-1.7-4.5C503.2,17.3,500.8,15,497.9,13.5z"/>
				</g>
				<g>
					<path class="st27" d="M351.5,31.3c-0.6,1.4-0.9,2.9-1.1,4.4c-0.2,1.5,0,3,0.1,4.5l0.8,9.1l1.6,18.1l3,36.2l5.7,72.5l5.3,72.5
						l2.5,36.3l1.2,18.1l0.6,9.1c0.1,1.5,0.2,3,0.3,4.5c0.2,1.5,0.5,3,1.1,4.4c-0.6-1.4-1-2.9-1.3-4.4c-0.2-1.5-0.3-3-0.4-4.5
						l-0.8-9.1l-1.6-18.1l-3-36.2l-5.7-72.5l-5.3-72.5l-2.5-36.3l-1.2-18.1l-0.6-9.1c-0.1-1.5-0.2-3,0-4.5
						C350.5,34.2,350.9,32.7,351.5,31.3z"/>
				</g>
				<path class="st29" d="M387.6,21.5l1.6,5.1c1.1,3.4,4.4,5.7,8,5.4l62.7-4.7c3.8-0.3,6.9-3.3,7.2-7.1l0.4-4.7l16.2-1.2
					c7.8-0.6,14.7,5.3,15.3,13.1l21,277.1c0.6,7.8-5.3,14.7-13.1,15.3l-112.2,8.5c-7.8,0.6-14.7-5.3-15.3-13.1L358.3,38
					c-0.6-7.8,5.3-14.7,13.1-15.3L387.6,21.5z"/>
				<path class="st30" d="M507.7,320.6l-113.8,8.6c-8,0.6-14.9-5.3-15.5-13.1l0.2,2.8c0.6,7.9,7.5,13.7,15.5,13.1l113.8-8.6
					c8-0.6,13.9-7.5,13.3-15.3l-0.2-2.8C521.6,313.1,515.6,320,507.7,320.6z"/>
				<path class="st30" d="M370.5,20.7L484.3,12c8-0.6,14.9,5.3,15.5,13.1l-0.1-1.9c-0.6-7.9-7.6-13.7-15.5-13.1l-113.8,8.6
					c-8,0.6-13.9,7.5-13.4,15.3l0.1,1.9C356.5,28.1,362.5,21.3,370.5,20.7z"/>
				<path class="st25" d="M351.2,70.9L351.2,70.9c-1.1,0.1-1.9-0.7-2-1.7l-0.6-7.8c-0.1-1,0.7-1.9,1.7-2l0.1,0L351.2,70.9z"/>
				<path class="st25" d="M353.8,104.9L353.8,104.9c-1.1,0.1-1.9-0.7-2-1.7l-1.4-18.4c-0.1-1,0.7-1.9,1.7-2l0.1,0L353.8,104.9z"/>
				<path class="st25" d="M356,134.2L356,134.2c-1.1,0.1-1.9-0.7-2-1.7l-1.4-18.4c-0.1-1,0.7-1.9,1.7-2l0.1,0L356,134.2z"/>
				<path class="st31" d="M446.2,22.7c0.1,1.1-0.7,2-1.8,2.1c-1.1,0.1-2-0.7-2.1-1.8c-0.1-1.1,0.7-2,1.8-2.1
					C445.2,20.8,446.1,21.6,446.2,22.7z"/>
				<path class="st31" d="M409.7,25.4c0.1,1.1,1,1.9,2.1,1.8c1.1-0.1,1.9-1,1.8-2.1c-0.1-1.1-1-1.9-2.1-1.8
					C410.5,23.4,409.6,24.3,409.7,25.4z"/>
				<path class="st31" d="M403.4,25.9c0,0.7,0.6,1.2,1.3,1.1c0.7,0,1.2-0.6,1.1-1.3c-0.1-0.7-0.6-1.2-1.3-1.1
					C403.8,24.7,403.3,25.2,403.4,25.9z"/>
				<path class="st31" d="M452.5,22.2c0.1,0.7-0.4,1.2-1.1,1.3c-0.7,0.1-1.2-0.4-1.3-1.1c0-0.7,0.4-1.2,1.1-1.3
					C451.9,21,452.5,21.5,452.5,22.2z"/>
				<path class="st32" d="M445.4,22.7c0,0.6-0.4,1.2-1.1,1.2c-0.6,0-1.2-0.4-1.2-1.1c0-0.6,0.4-1.2,1.1-1.2
					C444.8,21.6,445.3,22.1,445.4,22.7z"/>
				<path class="st7" d="M445.5,22c0,0.3-0.2,0.6-0.6,0.6c-0.3,0-0.6-0.2-0.6-0.6c0-0.3,0.2-0.6,0.6-0.6
					C445.2,21.4,445.5,21.6,445.5,22z"/>
				<path class="st7" d="M444.1,23.6c0,0.3-0.2,0.6-0.5,0.6c-0.3,0-0.6-0.2-0.6-0.6c0-0.3,0.2-0.6,0.6-0.6
					C443.8,23,444.1,23.3,444.1,23.6z"/>
				<path class="st31" d="M437,25.3l-17.7,1.3c-1,0.1-2-0.7-2-1.7l0-0.1c-0.1-1,0.7-2,1.7-2l17.7-1.3c1-0.1,2,0.7,2,1.7l0,0.1
					C438.8,24.3,438,25.2,437,25.3z"/>
				<path class="st33" d="M433.6,98.8c25.3-1.9,49.6,2.2,71.6,11.2l-6.3-82.7c-0.6-7.8-7.5-13.7-15.3-13.1l-16.2,1.2l-0.4,4.7
					c-0.3,3.8-3.3,6.9-7.2,7.1L397.2,32c-3.6,0.3-6.9-2-8-5.4l-1.6-5.1l-16.2,1.2c-7.8,0.6-13.7,7.5-13.1,15.3l6.3,82.7
					C384.9,108.5,408.3,100.7,433.6,98.8z"/>
			</g>
		</g>
		<g>
			<defs>
				<path id="XMLID_32_" d="M381.6,221.3c-0.5,0-1.1,0.1-1.7,0l-25.6-1.1c-8.5-0.4-15.3-8.4-15.1-17.8c0.2-9.5,7.2-16.9,15.8-16.5
					l25.6,1.1c8.5,0.4,15.3,8.4,15.1,17.8C395.5,213.7,389.3,220.7,381.6,221.3z"/>
			</defs>
			<use xlink:href="#XMLID_32_"  style="overflow:visible;fill:#F5B886;"/>
			<clipPath id="XMLID_7_">
				<use xlink:href="#XMLID_32_"  style="overflow:visible;"/>
			</clipPath>
			<g class="st34">
				<path class="st6" d="M381.6,217.7c-0.5,0-1.1,0-1.7,0l-25.6-1.1c-8.5-0.4-15.3-8.4-15.1-17.8c0.2-9.5,7.2-16.9,15.8-16.5
					l25.6,1.1c8.5,0.4,15.3,8.4,15.1,17.8C395.5,210,389.3,217.1,381.6,217.7z"/>
			</g>
		</g>
		<g>
			<defs>
				<path id="XMLID_28_" d="M496.2,202.8c-7.8,0.6-14.7-4.9-15.9-12.7c-1.2-8.2,4.4-15.7,12.6-16.9l34.1-5
					c8.1-1.2,15.7,4.4,16.9,12.6c1.2,8.2-4.4,15.7-12.6,16.9l-34.1,5C496.9,202.7,496.6,202.7,496.2,202.8z"/>
			</defs>
			<use xlink:href="#XMLID_28_"  style="overflow:visible;fill:#F5B886;"/>
			<clipPath id="XMLID_8_">
				<use xlink:href="#XMLID_28_"  style="overflow:visible;"/>
			</clipPath>
			<g class="st35">
				<path class="st6" d="M496.2,198.7c-7.8,0.6-14.7-4.9-15.9-12.7c-1.2-8.2,4.4-15.7,12.6-16.9l34.1-5c8.1-1.2,15.7,4.4,16.9,12.6
					c1.2,8.2-4.4,15.7-12.6,16.9l-34.1,5C496.9,198.6,496.6,198.7,496.2,198.7z"/>
			</g>
		</g>
		<g>
			<defs>
				<path id="XMLID_29_" d="M538.6,226.1l-44,3.3c-8.2,0.6-15.4-5.5-16-13.8c-0.6-8.2,5.5-15.4,13.8-16l44-3.3
					c8.2-0.6,15.4,5.5,16,13.8C553,218.3,546.8,225.5,538.6,226.1z"/>
			</defs>
			<use xlink:href="#XMLID_29_"  style="overflow:visible;fill:#F5B886;"/>
			<clipPath id="XMLID_9_">
				<use xlink:href="#XMLID_29_"  style="overflow:visible;"/>
			</clipPath>
			<g class="st36">
				<path class="st6" d="M538.6,222l-44,3.3c-8.2,0.6-15.4-5.5-16-13.8c-0.6-8.2,5.5-15.4,13.8-16l44-3.3c8.2-0.6,15.4,5.5,16,13.8
					C553,214.2,546.8,221.4,538.6,222z"/>
			</g>
		</g>
		<g>
			<defs>
				<path id="XMLID_30_" d="M534.8,256.1c-0.8,0.1-1.6,0.1-2.4,0l-33.5-2.8c-8.2-0.7-14.3-7.9-13.7-16.1c0.7-8.2,7.9-14.3,16.1-13.7
					l33.5,2.8c8.2,0.7,14.3,7.9,13.7,16.1C547.9,249.9,542,255.6,534.8,256.1z"/>
			</defs>
			<use xlink:href="#XMLID_30_"  style="overflow:visible;fill:#F5B886;"/>
			<clipPath id="XMLID_10_">
				<use xlink:href="#XMLID_30_"  style="overflow:visible;"/>
			</clipPath>
			<g class="st37">
				<path class="st6" d="M534.8,252.1c-0.8,0.1-1.6,0.1-2.4,0l-33.5-2.8c-8.2-0.7-14.3-7.9-13.7-16.1c0.7-8.2,7.9-14.3,16.1-13.7
					l33.5,2.8c8.2,0.7,14.3,7.9,13.7,16.1C547.9,245.8,542,251.5,534.8,252.1z"/>
			</g>
		</g>
		<g>
			<defs>
				<path id="XMLID_31_" d="M532,278.8c-0.5,0-1.1,0.1-1.7,0l-26-0.9c-8.2-0.3-14.7-7.2-14.4-15.5c0.3-8.2,7.2-14.7,15.5-14.4
					l26,0.9c8.2,0.3,14.7,7.2,14.4,15.5C545.5,272.1,539.5,278.3,532,278.8z"/>
			</defs>
			<use xlink:href="#XMLID_31_"  style="overflow:visible;fill:#F5B886;"/>
			<clipPath id="XMLID_11_">
				<use xlink:href="#XMLID_31_"  style="overflow:visible;"/>
			</clipPath>
			<g class="st38">
				<path class="st6" d="M532,274.8c-0.5,0-1.1,0.1-1.7,0l-26-0.9c-8.2-0.3-14.7-7.2-14.4-15.5c0.3-8.2,7.2-14.7,15.5-14.4l26,0.9
					c8.2,0.3,14.7,7.2,14.4,15.5C545.5,268.1,539.5,274.2,532,274.8z"/>
			</g>
		</g>
	</g>
	<g>
		<path class="st10" d="M145.1,486.8h-38.4c-1.1,0-2,0.9-2,2v23.6c0,1.1,0.9,2,2,2h38.4c1.1,0,2-0.9,2-2v-23.6
			C147.1,487.6,146.2,486.8,145.1,486.8z"/>
		<path class="st39" d="M145.1,486.8c0,0-10.9,10.6-19.2,15.6c-7.6,4.6-21.2,10-21.2,10c0,1.1,0.9,2,2,2h38.4c1.1,0,2-0.9,2-2v-23.6
			C147.1,487.6,146.2,486.8,145.1,486.8z"/>
	</g>
</g>
</svg>
